<svg width="100" height="100" viewBox="0 0 100 100" fill="none" xmlns="http://www.w3.org/2000/svg">
<path d="M37.3639 12.1774C41.0188 10.1198 45.4828 10.1198 49.1376 12.1774L75.3884 26.9557C79.1649 29.0817 81.5016 33.0788 81.5016 37.4125V66.4498C81.5016 70.7836 79.1649 74.7806 75.3884 76.9067L49.1376 91.685C45.4828 93.7426 41.0188 93.7426 37.3639 91.685L11.1131 76.9067C7.3367 74.7806 5 70.7836 5 66.4498V37.4126C5 33.0788 7.33671 29.0817 11.1132 26.9557L37.3639 12.1774Z" fill="#1B4ED1"/>
<mask id="mask0_630_2010" style="mask-type:alpha" maskUnits="userSpaceOnUse" x="14" y="47" width="20" height="31">
<path d="M15.5013 68.7057L30.7901 77.3128C32.1234 78.0633 33.7713 77.1 33.7713 75.57V58.4423C33.7713 57.72 33.3818 57.0538 32.7524 56.6995L17.4636 48.0923C16.1303 47.3418 14.4824 48.3052 14.4824 49.8352V66.9629C14.4824 67.6851 14.8719 68.3513 15.5013 68.7057Z" fill="black"/>
</mask>
<g mask="url(#mask0_630_2010)">
<path d="M33.7713 35.5547L53.0601 46.4137V68.1317L33.7713 78.9907L14.4824 68.1317V46.4137L33.7713 35.5547Z" fill="white"/>
</g>
<mask id="path-4-inside-1_630_2010" fill="white">
<path d="M43.8125 28.7932C43.8125 25.5763 45.5295 22.604 48.3161 20.9969L59.94 14.2931C63.2733 12.3706 67.438 14.7764 67.438 18.6244V34.0663C67.438 35.8729 66.4634 37.539 64.8887 38.4245L51.2632 46.0863C47.9302 47.9605 43.8125 45.5519 43.8125 41.7281V28.7932Z"/>
</mask>
<path d="M43.8125 28.7932C43.8125 25.5763 45.5295 22.604 48.3161 20.9969L59.94 14.2931C63.2733 12.3706 67.438 14.7764 67.438 18.6244V34.0663C67.438 35.8729 66.4634 37.539 64.8887 38.4245L51.2632 46.0863C47.9302 47.9605 43.8125 45.5519 43.8125 41.7281V28.7932Z" fill="white"/>
<path d="M51.2632 46.0863L51.7533 46.9579L51.2632 46.0863ZM48.8157 21.8632L60.4396 15.1593L59.4404 13.4268L47.8165 20.1306L48.8157 21.8632ZM66.438 18.6244V34.0663H68.438V18.6244H66.438ZM64.3985 37.5529L50.773 45.2147L51.7533 46.9579L65.3788 39.2962L64.3985 37.5529ZM44.8125 41.7281V28.7932H42.8125V41.7281H44.8125ZM50.773 45.2147C48.1066 46.714 44.8125 44.7871 44.8125 41.7281H42.8125C42.8125 46.3166 47.7537 49.207 51.7533 46.9579L50.773 45.2147ZM66.438 34.0663C66.438 35.5116 65.6583 36.8445 64.3985 37.5529L65.3788 39.2962C67.2685 38.2336 68.438 36.2342 68.438 34.0663H66.438ZM60.4396 15.1593C63.1063 13.6214 66.438 15.546 66.438 18.6244H68.438C68.438 14.0068 63.4404 11.1199 59.4404 13.4268L60.4396 15.1593ZM47.8165 20.1306C44.7202 21.9164 42.8125 25.2189 42.8125 28.7932H44.8125C44.8125 25.9338 46.3387 23.2917 48.8157 21.8632L47.8165 20.1306Z" fill="#1B4ED1" mask="url(#path-4-inside-1_630_2010)"/>
<mask id="path-6-inside-2_630_2010" fill="white">
<path d="M56.75 31.7047C56.75 28.8467 58.2747 26.2058 60.7497 24.7767L87.5006 9.33062C90.8339 7.40595 95.0008 9.81156 95.0008 13.6606V44.1245C95.0008 47.0137 93.443 49.6784 90.9254 51.0957L64.2028 66.1396C60.8698 68.016 56.75 65.6075 56.75 61.7826V31.7047Z"/>
</mask>
<path d="M56.75 31.7047C56.75 28.8467 58.2747 26.2058 60.7497 24.7767L87.5006 9.33062C90.8339 7.40595 95.0008 9.81156 95.0008 13.6606V44.1245C95.0008 47.0137 93.443 49.6784 90.9254 51.0957L64.2028 66.1396C60.8698 68.016 56.75 65.6075 56.75 61.7826V31.7047Z" fill="white"/>
<path d="M64.2028 66.1396L63.7123 65.2682L64.2028 66.1396ZM90.9254 51.0957L90.4348 50.2243L90.9254 51.0957ZM61.2498 25.6427L88.0006 10.1966L87.0006 8.46462L60.2497 23.9107L61.2498 25.6427ZM94.0008 13.6606V44.1245H96.0008V13.6606H94.0008ZM90.4348 50.2243L63.7123 65.2682L64.6934 67.011L91.4159 51.9671L90.4348 50.2243ZM57.75 61.7826V31.7047H55.75V61.7826H57.75ZM63.7123 65.2682C61.0458 66.7693 57.75 64.8425 57.75 61.7826H55.75C55.75 66.3725 60.6938 69.2627 64.6934 67.011L63.7123 65.2682ZM94.0008 44.1245C94.0008 46.6525 92.6377 48.9841 90.4348 50.2243L91.4159 51.9671C94.2483 50.3726 96.0008 47.3748 96.0008 44.1245H94.0008ZM88.0006 10.1966C90.6673 8.65689 94.0008 10.5814 94.0008 13.6606H96.0008C96.0008 9.04174 91.0006 6.15501 87.0006 8.46462L88.0006 10.1966ZM60.2497 23.9107C57.4653 25.5184 55.75 28.4894 55.75 31.7047H57.75C57.75 29.2039 59.0841 26.8931 61.2498 25.6427L60.2497 23.9107Z" fill="#1B4ED1" mask="url(#path-6-inside-2_630_2010)"/>
</svg>
