<svg width="100" height="100" viewBox="0 0 100 100" fill="none" xmlns="http://www.w3.org/2000/svg">
<path fill-rule="evenodd" clip-rule="evenodd" d="M58.0565 57.5388C58.9524 57.8073 59.6029 58.6094 59.6021 59.5446L59.5995 62.7665C59.5986 63.8724 60.4953 64.769 61.6011 64.7681L68.5904 64.7625C69.6937 64.7616 70.5879 63.8674 70.5888 62.7641L70.5916 59.3476C70.5923 58.4341 71.215 57.6459 72.083 57.3613C73.421 56.9228 74.7057 56.3668 75.9249 55.7057C76.7492 55.2588 77.7796 55.3654 78.4416 56.0295L80.9176 58.5134C81.6983 59.2966 82.9663 59.2976 83.7483 58.5157L88.6903 53.5741C89.4705 52.7939 89.4715 51.5293 88.6926 50.7479L86.0407 48.0876C85.3981 47.4429 85.2802 46.4495 85.6888 45.6361C86.2785 44.4623 86.7719 43.2319 87.1586 41.9553C87.4293 41.0617 88.231 40.4138 89.1648 40.4153L92.9964 40.4215C94.1023 40.4233 94.9997 39.5274 94.9997 38.4215V31.4332C94.9997 30.3299 94.1062 29.435 93.0029 29.4332L88.9879 29.4267C88.0747 29.4252 87.2872 28.8022 87.0029 27.9344C86.6041 26.717 86.1077 25.5437 85.5229 24.4238C85.0949 23.6041 85.2078 22.5913 85.8622 21.938L88.736 19.0692C89.5187 18.2878 89.5187 17.0196 88.736 16.2383L83.79 11.3007C83.0092 10.5213 81.7447 10.5213 80.9639 11.3007L78.0885 14.1712C77.4351 14.8236 76.424 14.9355 75.6056 14.508C74.4931 13.9269 73.3279 13.4326 72.1191 13.0342C71.2515 12.7482 70.6301 11.959 70.6308 11.0455L70.6341 7.00163C70.635 5.89579 69.7383 4.9991 68.6325 5L61.6432 5.00568C60.5399 5.00658 59.6458 5.90076 59.6449 7.00406L59.6418 10.8307C59.641 11.7659 58.9892 12.5669 58.0929 12.834C56.82 13.2132 55.5926 13.6979 54.4209 14.2777C53.6072 14.6804 52.6174 14.5581 51.9765 13.9151L49.3234 11.2537C48.5427 10.4705 47.2747 10.4695 46.4928 11.2514L41.5508 16.193C40.7705 16.9732 40.7695 18.2378 41.5485 19.0192L43.9767 21.4552C44.6405 22.1211 44.7425 23.1551 44.2894 23.9788C43.6122 25.2099 43.043 26.5086 42.5947 27.8622C42.3075 28.7291 41.518 29.3495 40.6048 29.348L37.2357 29.3425C36.1298 29.3407 35.2324 30.2367 35.2324 31.3425V38.3309C35.2324 39.4342 36.1259 40.3291 37.2292 40.3309L40.3921 40.336C41.3259 40.3375 42.1255 40.9881 42.3933 41.8826C42.8215 43.313 43.3834 44.6856 44.0646 45.9863C44.4942 46.8063 44.3818 47.8204 43.7267 48.4745L41.4985 50.6988C40.7159 51.4801 40.7159 52.7483 41.4985 53.5296L46.4446 58.4672C47.2254 59.2467 48.4898 59.2467 49.2706 58.4672L51.5141 56.2275C52.1669 55.5759 53.1765 55.4635 53.9946 55.8894C55.2828 56.5602 56.6414 57.1147 58.0565 57.5388Z" fill="#1B4ED1"/>
<path d="M74.4091 35.1238C74.4091 40.3871 70.135 44.6538 64.8627 44.6538C59.5904 44.6538 55.3164 40.3871 55.3164 35.1238C55.3164 29.8605 59.5904 25.5938 64.8627 25.5938C70.135 25.5938 74.4091 29.8605 74.4091 35.1238Z" fill="white"/>
<mask id="path-3-inside-1_630_1988" fill="white">
<path fill-rule="evenodd" clip-rule="evenodd" d="M36.5894 94.9999C35.4849 95.0008 34.5902 94.1061 34.5911 93.0015L34.5962 86.7123C31.5571 86.0251 28.7031 84.851 26.1209 83.2765L21.7458 87.644C20.9641 88.4244 19.6967 88.4244 18.915 87.644L12.3017 81.0421C11.52 80.2617 11.52 78.9964 12.3017 78.2161L16.6718 73.8534C15.0813 71.2598 13.8969 68.3909 13.2073 65.3351L7 65.325C5.89543 65.3232 5 64.4263 5 63.3217V53.9777C5 52.8731 5.89543 51.9791 7 51.9809L13.4097 51.9914C14.1705 49.0443 15.3943 46.283 16.9991 43.7892L12.369 39.1444C11.5892 38.3621 11.5902 37.0948 12.3713 36.3138L18.9792 29.7065C19.7603 28.9254 21.0256 28.9265 21.8054 29.7088L26.6522 34.5709C29.1056 33.1473 31.7923 32.0803 34.6411 31.441L34.6468 24.4272C34.6477 23.3226 35.5439 22.4265 36.6484 22.4256L45.9936 22.418C47.0981 22.4171 47.9928 23.3118 47.9919 24.4163L47.9861 31.6437C50.7374 32.3505 53.3273 33.4589 55.6893 34.9025L60.8346 29.766C61.6163 28.9856 62.8837 28.9856 63.6654 29.766L70.2787 36.368C71.0604 37.1483 71.0604 38.4136 70.2787 39.194L65.1285 44.3354C66.5811 46.7096 67.6935 49.3139 68.398 52.0808L75.5802 52.0924C76.6847 52.0942 77.5802 52.9911 77.5802 54.0957V63.4397C77.5802 64.5443 76.6847 65.4383 75.5802 65.4365L68.5571 65.4251C67.9036 68.2771 66.8189 70.965 65.3753 73.4169L70.22 78.2771C70.9998 79.0593 70.9988 80.3266 70.2177 81.1077L63.6098 87.715C62.8287 88.496 61.5634 88.495 60.7835 87.7127L56.0944 83.0087C53.6119 84.5838 50.8677 85.7846 47.9414 86.5312L47.9362 92.9907C47.9353 94.0952 47.0391 94.9914 45.9346 94.9923L36.5894 94.9999ZM40.9835 70.5773C47.3861 70.5773 52.5764 65.3958 52.5764 59.0042C52.5764 52.6126 47.3861 47.4311 40.9835 47.4311C34.5809 47.4311 29.3906 52.6126 29.3906 59.0042C29.3906 65.3958 34.5809 70.5773 40.9835 70.5773Z"/>
</mask>
<path fill-rule="evenodd" clip-rule="evenodd" d="M36.5894 94.9999C35.4849 95.0008 34.5902 94.1061 34.5911 93.0015L34.5962 86.7123C31.5571 86.0251 28.7031 84.851 26.1209 83.2765L21.7458 87.644C20.9641 88.4244 19.6967 88.4244 18.915 87.644L12.3017 81.0421C11.52 80.2617 11.52 78.9964 12.3017 78.2161L16.6718 73.8534C15.0813 71.2598 13.8969 68.3909 13.2073 65.3351L7 65.325C5.89543 65.3232 5 64.4263 5 63.3217V53.9777C5 52.8731 5.89543 51.9791 7 51.9809L13.4097 51.9914C14.1705 49.0443 15.3943 46.283 16.9991 43.7892L12.369 39.1444C11.5892 38.3621 11.5902 37.0948 12.3713 36.3138L18.9792 29.7065C19.7603 28.9254 21.0256 28.9265 21.8054 29.7088L26.6522 34.5709C29.1056 33.1473 31.7923 32.0803 34.6411 31.441L34.6468 24.4272C34.6477 23.3226 35.5439 22.4265 36.6484 22.4256L45.9936 22.418C47.0981 22.4171 47.9928 23.3118 47.9919 24.4163L47.9861 31.6437C50.7374 32.3505 53.3273 33.4589 55.6893 34.9025L60.8346 29.766C61.6163 28.9856 62.8837 28.9856 63.6654 29.766L70.2787 36.368C71.0604 37.1483 71.0604 38.4136 70.2787 39.194L65.1285 44.3354C66.5811 46.7096 67.6935 49.3139 68.398 52.0808L75.5802 52.0924C76.6847 52.0942 77.5802 52.9911 77.5802 54.0957V63.4397C77.5802 64.5443 76.6847 65.4383 75.5802 65.4365L68.5571 65.4251C67.9036 68.2771 66.8189 70.965 65.3753 73.4169L70.22 78.2771C70.9998 79.0593 70.9988 80.3266 70.2177 81.1077L63.6098 87.715C62.8287 88.496 61.5634 88.495 60.7835 87.7127L56.0944 83.0087C53.6119 84.5838 50.8677 85.7846 47.9414 86.5312L47.9362 92.9907C47.9353 94.0952 47.0391 94.9914 45.9346 94.9923L36.5894 94.9999ZM40.9835 70.5773C47.3861 70.5773 52.5764 65.3958 52.5764 59.0042C52.5764 52.6126 47.3861 47.4311 40.9835 47.4311C34.5809 47.4311 29.3906 52.6126 29.3906 59.0042C29.3906 65.3958 34.5809 70.5773 40.9835 70.5773Z" fill="white"/>
<path d="M34.5911 93.0015L35.5911 93.0023L34.5911 93.0015ZM36.5894 94.9999L36.5886 93.9999H36.5886L36.5894 94.9999ZM34.5962 86.7123L35.5962 86.7132L35.5968 85.9134L34.8167 85.737L34.5962 86.7123ZM26.1209 83.2765L26.6415 82.4227L25.9705 82.0135L25.4144 82.5687L26.1209 83.2765ZM21.7458 87.644L22.4523 88.3518L21.7458 87.644ZM18.915 87.644L18.2085 88.3518H18.2085L18.915 87.644ZM12.3017 81.0421L13.0082 80.3344L12.3017 81.0421ZM12.3017 78.2161L13.0082 78.9238H13.0082L12.3017 78.2161ZM16.6718 73.8534L17.3783 74.5611L17.9369 74.0034L17.5243 73.3306L16.6718 73.8534ZM13.2073 65.3351L14.1828 65.1149L14.0071 64.3364L13.2089 64.3351L13.2073 65.3351ZM7 65.325L7.00162 64.325H7.00162L7 65.325ZM7 51.9809L6.99837 52.9809H6.99837L7 51.9809ZM13.4097 51.9914L13.4081 52.9914L14.1841 52.9926L14.378 52.2413L13.4097 51.9914ZM16.9991 43.7892L17.84 44.3304L18.2757 43.6534L17.7073 43.0833L16.9991 43.7892ZM12.369 39.1444L13.0772 38.4384L12.369 39.1444ZM12.3713 36.3138L11.6642 35.6067L11.6642 35.6067L12.3713 36.3138ZM18.9792 29.7065L19.6863 30.4136L18.9792 29.7065ZM21.8054 29.7088L22.5137 29.0028V29.0028L21.8054 29.7088ZM26.6522 34.5709L25.944 35.2769L26.4878 35.8225L27.1541 35.4359L26.6522 34.5709ZM34.6411 31.441L34.8601 32.4167L35.6405 32.2416L35.6411 31.4418L34.6411 31.441ZM34.6468 24.4272L33.6468 24.4264L34.6468 24.4272ZM36.6484 22.4256L36.6493 23.4256L36.6484 22.4256ZM45.9936 22.418L45.9928 21.418L45.9936 22.418ZM47.9919 24.4163L46.9919 24.4155V24.4155L47.9919 24.4163ZM47.9861 31.6437L46.9861 31.6429L46.9854 32.4191L47.7372 32.6122L47.9861 31.6437ZM55.6893 34.9025L55.1678 35.7557L55.839 36.166L56.3958 35.6102L55.6893 34.9025ZM60.8346 29.766L60.1281 29.0583V29.0583L60.8346 29.766ZM63.6654 29.766L62.9589 30.4737L63.6654 29.766ZM70.2787 36.368L70.9852 35.6603V35.6603L70.2787 36.368ZM70.2787 39.194L69.5722 38.4863L70.2787 39.194ZM65.1285 44.3354L64.422 43.6277L63.864 44.1847L64.2755 44.8573L65.1285 44.3354ZM68.398 52.0808L67.4289 52.3275L67.6204 53.0795L68.3964 53.0808L68.398 52.0808ZM75.5802 52.0924L75.5786 53.0924L75.5802 52.0924ZM75.5802 65.4365L75.5818 64.4365L75.5802 65.4365ZM68.5571 65.4251L68.5587 64.4251L67.7606 64.4238L67.5823 65.2017L68.5571 65.4251ZM65.3753 73.4169L64.5135 72.9096L64.1214 73.5756L64.667 74.1229L65.3753 73.4169ZM70.22 78.2771L69.5117 78.983L70.22 78.2771ZM70.2177 81.1077L69.5106 80.4005L70.2177 81.1077ZM63.6098 87.715L62.9027 87.0079L62.9027 87.0079L63.6098 87.715ZM60.7835 87.7127L60.0753 88.4187L60.7835 87.7127ZM56.0944 83.0087L56.8026 82.3027L56.2362 81.7344L55.5587 82.1643L56.0944 83.0087ZM47.9414 86.5312L47.6942 85.5623L46.9421 85.7542L46.9414 86.5304L47.9414 86.5312ZM47.9362 92.9907L46.9362 92.9899L47.9362 92.9907ZM45.9346 94.9923L45.9354 95.9923H45.9354L45.9346 94.9923ZM33.5911 93.0007C33.5897 94.6582 34.9328 96.0012 36.5902 95.9999L36.5886 93.9999C36.037 94.0003 35.5906 93.554 35.5911 93.0023L33.5911 93.0007ZM33.5962 86.7115L33.5911 93.0007L35.5911 93.0023L35.5962 86.7132L33.5962 86.7115ZM25.6003 84.1302C28.2736 85.7603 31.2286 86.9761 34.3756 87.6877L34.8167 85.737C31.8855 85.0741 29.1327 83.9417 26.6415 82.4227L25.6003 84.1302ZM22.4523 88.3518L26.8274 83.9842L25.4144 82.5687L21.0393 86.9363L22.4523 88.3518ZM18.2085 88.3518C19.3806 89.5219 21.2802 89.5219 22.4523 88.3518L21.0393 86.9363C20.648 87.327 20.0128 87.327 19.6215 86.9363L18.2085 88.3518ZM11.5952 81.7498L18.2085 88.3518L19.6215 86.9363L13.0082 80.3344L11.5952 81.7498ZM11.5952 77.5083C10.4222 78.6794 10.4222 80.5787 11.5952 81.7498L13.0082 80.3344C12.6178 79.9446 12.6178 79.3135 13.0082 78.9238L11.5952 77.5083ZM15.9653 73.1457L11.5952 77.5083L13.0082 78.9238L17.3783 74.5611L15.9653 73.1457ZM12.2318 65.5552C12.9461 68.72 14.1726 71.6909 15.8194 74.3762L17.5243 73.3306C15.9899 70.8286 14.8478 68.0618 14.1828 65.1149L12.2318 65.5552ZM6.99837 66.325L13.2057 66.3351L13.2089 64.3351L7.00162 64.325L6.99837 66.325ZM4 63.3217C4 64.9779 5.34215 66.3223 6.99837 66.325L7.00162 64.325C6.4487 64.3241 6 63.8746 6 63.3217H4ZM4 53.9777V63.3217H6V53.9777H4ZM7.00162 50.9809C5.34414 50.9782 4 52.3202 4 53.9777H6C6 53.426 6.44672 52.98 6.99837 52.9809L7.00162 50.9809ZM13.4114 50.9914L7.00162 50.9809L6.99837 52.9809L13.4081 52.9914L13.4114 50.9914ZM16.1582 43.2481C14.4967 45.8298 13.2293 48.6892 12.4415 51.7414L14.378 52.2413C15.1116 49.3994 16.2918 46.7361 17.84 44.3304L16.1582 43.2481ZM11.6608 39.8504L16.2909 44.4952L17.7073 43.0833L13.0772 38.4384L11.6608 39.8504ZM11.6642 35.6067C10.493 36.7778 10.4915 38.6774 11.6608 39.8504L13.0772 38.4384C12.6869 38.0469 12.6874 37.4119 13.0784 37.021L11.6642 35.6067ZM18.2721 28.9993L11.6642 35.6067L13.0784 37.021L19.6863 30.4136L18.2721 28.9993ZM22.5137 29.0028C21.3435 27.8289 19.4442 27.8274 18.2721 28.9993L19.6863 30.4136C20.0764 30.0235 20.7077 30.024 21.0972 30.4147L22.5137 29.0028ZM27.3604 33.8649L22.5137 29.0028L21.0972 30.4147L25.944 35.2769L27.3604 33.8649ZM34.4221 30.4653C31.4722 31.1273 28.6903 32.2322 26.1503 33.706L27.1541 35.4359C29.5209 34.0625 32.1124 33.0334 34.8601 32.4167L34.4221 30.4653ZM33.6468 24.4264L33.6411 31.4402L35.6411 31.4418L35.6468 24.428L33.6468 24.4264ZM36.6476 21.4256C34.9914 21.4269 33.6482 22.7702 33.6468 24.4264L35.6468 24.428C35.6473 23.8751 36.0963 23.426 36.6493 23.4256L36.6476 21.4256ZM45.9928 21.418L36.6476 21.4256L36.6493 23.4256L45.9944 23.418L45.9928 21.418ZM48.9919 24.4172C48.9933 22.7597 47.6502 21.4166 45.9928 21.418L45.9944 23.418C46.546 23.4175 46.9924 23.8639 46.9919 24.4155L48.9919 24.4172ZM48.9861 31.6445L48.9919 24.4172L46.9919 24.4155L46.9861 31.6429L48.9861 31.6445ZM56.2108 34.0492C53.7655 32.5547 51.0839 31.4071 48.2349 30.6751L47.7372 32.6122C50.3909 33.294 52.889 34.363 55.1678 35.7557L56.2108 34.0492ZM60.1281 29.0583L54.9828 34.1948L56.3958 35.6102L61.5411 30.4737L60.1281 29.0583ZM64.3719 29.0583C63.1998 27.8882 61.3002 27.8882 60.1281 29.0583L61.5411 30.4737C61.9324 30.083 62.5676 30.083 62.9589 30.4737L64.3719 29.0583ZM70.9852 35.6603L64.3719 29.0583L62.9589 30.4737L69.5722 37.0757L70.9852 35.6603ZM70.9852 39.9017C72.1582 38.7306 72.1582 36.8313 70.9852 35.6603L69.5722 37.0757C69.9626 37.4654 69.9626 38.0965 69.5722 38.4863L70.9852 39.9017ZM65.835 45.0431L70.9852 39.9017L69.5722 38.4863L64.422 43.6277L65.835 45.0431ZM69.3671 51.834C68.6374 48.9685 67.4854 46.2716 65.9815 43.8135L64.2755 44.8573C65.6768 47.1476 66.7495 49.6594 67.4289 52.3275L69.3671 51.834ZM75.5818 51.0924L68.3996 51.0808L68.3964 53.0808L75.5786 53.0924L75.5818 51.0924ZM78.5802 54.0957C78.5802 52.4395 77.238 51.0951 75.5818 51.0924L75.5786 53.0924C76.1315 53.0933 76.5802 53.5428 76.5802 54.0957H78.5802ZM78.5802 63.4397V54.0957H76.5802V63.4397H78.5802ZM75.5786 66.4365C77.236 66.4392 78.5802 65.0972 78.5802 63.4397H76.5802C76.5802 63.9914 76.1334 64.4374 75.5818 64.4365L75.5786 66.4365ZM68.5554 66.4251L75.5786 66.4365L75.5818 64.4365L68.5587 64.4251L68.5554 66.4251ZM66.237 73.9243C67.7317 71.3857 68.855 68.6021 69.5318 65.6484L67.5823 65.2017C66.9521 67.952 65.9062 70.5444 64.5135 72.9096L66.237 73.9243ZM70.9282 77.5711L66.0835 72.711L64.667 74.1229L69.5117 78.983L70.9282 77.5711ZM70.9248 81.8148C72.096 80.6437 72.0975 78.7441 70.9282 77.5711L69.5117 78.983C69.9021 79.3746 69.9016 80.0096 69.5106 80.4005L70.9248 81.8148ZM64.3169 88.4221L70.9248 81.8148L69.5106 80.4005L62.9027 87.0079L64.3169 88.4221ZM60.0753 88.4187C61.2455 89.5926 63.1448 89.5941 64.3169 88.4221L62.9027 87.0079C62.5126 87.398 61.8813 87.3974 61.4918 87.0067L60.0753 88.4187ZM55.3862 83.7147L60.0753 88.4187L61.4918 87.0067L56.8026 82.3027L55.3862 83.7147ZM48.1887 87.5002C51.2189 86.727 54.0603 85.4837 56.6302 83.8531L55.5587 82.1643C53.1636 83.684 50.5165 84.8421 47.6942 85.5623L48.1887 87.5002ZM48.9362 92.9915L48.9414 86.5321L46.9414 86.5304L46.9362 92.9899L48.9362 92.9915ZM45.9354 95.9923C47.5916 95.991 48.9348 94.6477 48.9362 92.9915L46.9362 92.9899C46.9357 93.5428 46.4867 93.9919 45.9337 93.9923L45.9354 95.9923ZM36.5902 95.9999L45.9354 95.9923L45.9337 93.9923L36.5886 93.9999L36.5902 95.9999ZM51.5764 59.0042C51.5764 64.8419 46.8354 69.5773 40.9835 69.5773V71.5773C47.9367 71.5773 53.5764 65.9497 53.5764 59.0042H51.5764ZM40.9835 48.4311C46.8354 48.4311 51.5764 53.1664 51.5764 59.0042H53.5764C53.5764 52.0587 47.9367 46.4311 40.9835 46.4311V48.4311ZM30.3906 59.0042C30.3906 53.1664 35.1316 48.4311 40.9835 48.4311V46.4311C34.0303 46.4311 28.3906 52.0587 28.3906 59.0042H30.3906ZM40.9835 69.5773C35.1316 69.5773 30.3906 64.8419 30.3906 59.0042H28.3906C28.3906 65.9497 34.0303 71.5773 40.9835 71.5773V69.5773Z" fill="#1B4ED1" mask="url(#path-3-inside-1_630_1988)"/>
</svg>
