<svg width="100" height="100" viewBox="0 0 100 100" fill="none" xmlns="http://www.w3.org/2000/svg">
<path d="M5 54.4453V44.9215C5 38.4927 25.1471 33.2812 50 33.2812C74.8529 33.2812 95 38.4927 95 44.9215V54.4453C95 60.874 74.8529 66.0855 50 66.0855C25.1471 66.0855 5 60.874 5 54.4453Z" fill="#1B4ED1"/>
<mask id="path-2-inside-1_630_1970" fill="white">
<path d="M49.998 90C86.0191 80.1754 77.3348 21.2281 77.3348 21.2281C77.3348 21.2281 72.6848 20.1053 63.8691 16.6269C55.0535 13.1484 49.998 10 49.998 10C49.998 10 44.9425 13.1484 36.1269 16.6269C27.3113 20.1053 22.6613 21.2281 22.6613 21.2281C22.6613 21.2281 13.9769 80.1754 49.998 90Z"/>
</mask>
<path d="M49.998 90C86.0191 80.1754 77.3348 21.2281 77.3348 21.2281C77.3348 21.2281 72.6848 20.1053 63.8691 16.6269C55.0535 13.1484 49.998 10 49.998 10C49.998 10 44.9425 13.1484 36.1269 16.6269C27.3113 20.1053 22.6613 21.2281 22.6613 21.2281C22.6613 21.2281 13.9769 80.1754 49.998 90Z" fill="white"/>
<path d="M77.3348 21.2281L78.3241 21.0823L78.2257 20.4145L77.5695 20.256L77.3348 21.2281ZM49.998 90L49.7349 90.9648L49.998 91.0365L50.2612 90.9648L49.998 90ZM63.8691 16.6269L64.2362 15.6966L63.8691 16.6269ZM49.998 10L50.5267 9.15115L49.998 8.82193L49.4694 9.15115L49.998 10ZM22.6613 21.2281L22.4266 20.256L21.7703 20.4145L21.6719 21.0823L22.6613 21.2281ZM36.1269 16.6269L35.7599 15.6966L36.1269 16.6269ZM77.3348 21.2281C76.3455 21.3738 76.3454 21.3737 76.3455 21.3739C76.3455 21.3742 76.3456 21.3746 76.3457 21.3753C76.3459 21.3767 76.3462 21.379 76.3467 21.3821C76.3476 21.3885 76.349 21.3983 76.3509 21.4117C76.3547 21.4384 76.3604 21.4791 76.3679 21.5333C76.3827 21.6417 76.4044 21.8043 76.4314 22.0177C76.4853 22.4446 76.5601 23.0749 76.6428 23.8821C76.8082 25.4967 77.0052 27.8183 77.1299 30.6363C77.3794 36.2765 77.3386 43.8849 76.1848 51.7853C73.8658 67.6643 67.132 84.2903 49.7349 89.0352L50.2612 90.9648C68.8851 85.8852 75.8197 68.1252 78.1638 52.0743C79.3416 44.0099 79.381 36.2674 79.1279 30.5479C79.0013 27.6861 78.8012 25.3256 78.6324 23.6782C78.548 22.8544 78.4714 22.2086 78.4156 21.7672C78.3878 21.5465 78.3651 21.3769 78.3493 21.2616C78.3414 21.204 78.3352 21.16 78.331 21.13C78.3288 21.115 78.3272 21.1034 78.326 21.0955C78.3254 21.0915 78.325 21.0884 78.3247 21.0862C78.3245 21.0851 78.3244 21.0841 78.3243 21.0836C78.3242 21.0828 78.3241 21.0823 77.3348 21.2281ZM77.3348 21.2281C77.5695 20.256 77.5696 20.256 77.5697 20.2561C77.5697 20.2561 77.5698 20.2561 77.5698 20.2561C77.5698 20.2561 77.5698 20.2561 77.5697 20.2561C77.5695 20.256 77.569 20.2559 77.5682 20.2557C77.5666 20.2553 77.5639 20.2546 77.5601 20.2537C77.5524 20.2518 77.5402 20.2488 77.5235 20.2446C77.49 20.2362 77.4385 20.2232 77.3691 20.2051C77.2303 20.1691 77.0198 20.1131 76.7385 20.0349C76.1759 19.8784 75.3303 19.6326 74.2091 19.2783C71.9668 18.5698 68.6223 17.4273 64.2362 15.6966L63.5021 17.5571C67.9316 19.3048 71.32 20.4629 73.6065 21.1854C74.7498 21.5466 75.6176 21.799 76.2024 21.9617C76.4948 22.043 76.7165 22.102 76.8664 22.1409C76.9413 22.1604 76.9984 22.1749 77.0374 22.1846C77.0569 22.1895 77.0718 22.1932 77.0823 22.1958C77.0875 22.1971 77.0916 22.1981 77.0946 22.1988C77.0961 22.1992 77.0973 22.1995 77.0982 22.1997C77.0986 22.1998 77.099 22.1999 77.0993 22.2C77.0995 22.2 77.0997 22.2 77.0998 22.2001C77.0999 22.2001 77.1001 22.2001 77.3348 21.2281ZM64.2362 15.6966C59.8632 13.9712 56.4261 12.3289 54.0866 11.1205C52.917 10.5164 52.0219 10.0209 51.4218 9.67804C51.1217 9.50658 50.8954 9.37329 50.7454 9.28364C50.6704 9.23882 50.6144 9.20491 50.5779 9.1826C50.5596 9.17144 50.5461 9.16319 50.5376 9.15792C50.5333 9.15528 50.5303 9.15339 50.5285 9.15226C50.5275 9.1517 50.5269 9.15132 50.5266 9.15114C50.5265 9.15104 50.5264 9.151 50.5264 9.151C50.5264 9.151 50.5265 9.15104 50.5265 9.15104C50.5266 9.15109 50.5267 9.15115 49.998 10C49.4694 10.8488 49.4695 10.8489 49.4697 10.849C49.4698 10.8491 49.4699 10.8492 49.4701 10.8493C49.4704 10.8495 49.4708 10.8497 49.4713 10.85C49.4722 10.8506 49.4734 10.8514 49.475 10.8523C49.4781 10.8542 49.4824 10.8569 49.488 10.8604C49.4991 10.8672 49.5151 10.8771 49.536 10.8898C49.5778 10.9153 49.6391 10.9525 49.7196 11.0005C49.8804 11.0966 50.1179 11.2365 50.4296 11.4146C51.0528 11.7707 51.9727 12.2797 53.1688 12.8975C55.561 14.133 59.0594 15.8041 63.5021 17.5571L64.2362 15.6966ZM22.6613 21.2281C21.6719 21.0823 21.6719 21.0828 21.6718 21.0836C21.6717 21.0841 21.6715 21.0851 21.6714 21.0862C21.6711 21.0884 21.6706 21.0915 21.67 21.0955C21.6689 21.1034 21.6672 21.115 21.6651 21.13C21.6608 21.16 21.6546 21.204 21.6467 21.2616C21.6309 21.3769 21.6083 21.5465 21.5804 21.7672C21.5247 22.2086 21.4481 22.8544 21.3637 23.6782C21.1949 25.3256 20.9948 27.6861 20.8681 30.5479C20.6151 36.2674 20.6545 44.0099 21.8322 52.0743C24.1763 68.1252 31.1109 85.8852 49.7349 90.9648L50.2612 89.0352C32.864 84.2903 26.1302 67.6643 23.8112 51.7853C22.6574 43.8849 22.6166 36.2765 22.8662 30.6363C22.9909 27.8183 23.1878 25.4967 23.3533 23.8821C23.436 23.0749 23.5108 22.4446 23.5647 22.0177C23.5916 21.8043 23.6133 21.6417 23.6282 21.5333C23.6356 21.4791 23.6413 21.4384 23.6451 21.4117C23.647 21.3983 23.6485 21.3885 23.6494 21.3821C23.6498 21.379 23.6502 21.3767 23.6504 21.3753C23.6505 21.3746 23.6505 21.3742 23.6506 21.3739C23.6506 21.3737 23.6506 21.3738 22.6613 21.2281ZM22.6613 21.2281C22.896 22.2001 22.8961 22.2001 22.8963 22.2001C22.8964 22.2 22.8966 22.2 22.8967 22.2C22.897 22.1999 22.8974 22.1998 22.8979 22.1997C22.8988 22.1995 22.9 22.1992 22.9015 22.1988C22.9044 22.1981 22.9085 22.1971 22.9138 22.1958C22.9242 22.1932 22.9392 22.1895 22.9587 22.1846C22.9977 22.1749 23.0547 22.1604 23.1297 22.1409C23.2796 22.102 23.5012 22.043 23.7936 21.9617C24.3784 21.799 25.2462 21.5466 26.3895 21.1854C28.6761 20.4629 32.0644 19.3048 36.4939 17.5571L35.7599 15.6966C31.3737 17.4273 28.0293 18.5698 25.7869 19.2783C24.6658 19.6326 23.8201 19.8784 23.2575 20.0349C22.9762 20.1131 22.7657 20.1691 22.6269 20.2051C22.5575 20.2232 22.506 20.2362 22.4726 20.2446C22.4559 20.2488 22.4437 20.2518 22.436 20.2537C22.4322 20.2546 22.4294 20.2553 22.4279 20.2557C22.4271 20.2559 22.4266 20.256 22.4264 20.2561C22.4263 20.2561 22.4262 20.2561 22.4262 20.2561C22.4263 20.2561 22.4263 20.2561 22.4263 20.2561C22.4264 20.256 22.4266 20.256 22.6613 21.2281ZM36.4939 17.5571C40.9366 15.8041 44.4351 14.133 46.8272 12.8975C48.0234 12.2797 48.9432 11.7707 49.5665 11.4146C49.8781 11.2365 50.1156 11.0966 50.2765 11.0005C50.3569 10.9525 50.4182 10.9153 50.46 10.8898C50.4809 10.8771 50.4969 10.8672 50.5081 10.8604C50.5136 10.8569 50.518 10.8542 50.5211 10.8523C50.5226 10.8514 50.5239 10.8506 50.5248 10.85C50.5253 10.8497 50.5256 10.8495 50.526 10.8493C50.5261 10.8492 50.5263 10.8491 50.5264 10.849C50.5265 10.8489 50.5267 10.8488 49.998 10C49.4694 9.15115 49.4695 9.15109 49.4696 9.15104C49.4696 9.15104 49.4696 9.151 49.4696 9.151C49.4696 9.151 49.4696 9.15104 49.4694 9.15114C49.4691 9.15132 49.4685 9.1517 49.4676 9.15226C49.4658 9.15339 49.4627 9.15528 49.4584 9.15792C49.4499 9.16319 49.4365 9.17144 49.4182 9.1826C49.3816 9.20491 49.3257 9.23882 49.2507 9.28364C49.1006 9.37329 48.8743 9.50659 48.5742 9.67804C47.9741 10.0209 47.0791 10.5164 45.9094 11.1205C43.5699 12.3289 40.1328 13.9712 35.7599 15.6966L36.4939 17.5571Z" fill="#1B4ED1" mask="url(#path-2-inside-1_630_1970)"/>
<mask id="path-4-inside-2_630_1970" fill="white">
<path d="M49.9957 65.2757C63.9335 61.573 60.5732 39.3567 60.5732 39.3567C60.5732 39.3567 58.7739 38.9335 55.3629 37.6226C51.9518 36.3116 49.9957 35.125 49.9957 35.125C49.9957 35.125 48.0395 36.3116 44.6284 37.6226C41.2174 38.9335 39.4181 39.3567 39.4181 39.3567C39.4181 39.3567 36.0579 61.573 49.9957 65.2757Z"/>
</mask>
<path d="M49.9957 65.2757C63.9335 61.573 60.5732 39.3567 60.5732 39.3567C60.5732 39.3567 58.7739 38.9335 55.3629 37.6226C51.9518 36.3116 49.9957 35.125 49.9957 35.125C49.9957 35.125 48.0395 36.3116 44.6284 37.6226C41.2174 38.9335 39.4181 39.3567 39.4181 39.3567C39.4181 39.3567 36.0579 61.573 49.9957 65.2757Z" fill="white"/>
<path d="M60.5732 39.3567L61.5619 39.2071L61.4608 38.5381L60.8021 38.3832L60.5732 39.3567ZM49.9957 65.2757L49.7389 66.2422L49.9957 66.3104L50.2524 66.2422L49.9957 65.2757ZM55.3629 37.6226L55.0041 38.556L55.3629 37.6226ZM49.9957 35.125L50.5143 34.27L49.9957 33.9554L49.477 34.27L49.9957 35.125ZM39.4181 39.3567L39.1892 38.3832L38.5306 38.5381L38.4294 39.2071L39.4181 39.3567ZM44.6284 37.6226L44.2697 36.6891L44.6284 37.6226ZM60.5732 39.3567C59.5844 39.5062 59.5844 39.506 59.5844 39.5059C59.5844 39.5059 59.5844 39.5059 59.5844 39.506C59.5844 39.5063 59.5845 39.5069 59.5847 39.5078C59.5849 39.5097 59.5854 39.5128 59.5861 39.5173C59.5874 39.5263 59.5894 39.5406 59.5922 39.5599C59.5976 39.5986 59.6057 39.6575 59.6158 39.7356C59.6361 39.8918 59.6644 40.1243 59.6958 40.4231C59.7587 41.0211 59.8339 41.8834 59.8815 42.9312C59.9769 45.0311 59.9606 47.8551 59.5222 50.7794C58.6349 56.6966 56.0994 62.6195 49.7389 64.3093L50.2524 66.2422C57.8297 64.2292 60.5829 57.1926 61.5 51.076C61.9637 47.9834 61.9785 45.0218 61.8794 42.8405C61.8298 41.7476 61.7513 40.8454 61.6849 40.2139C61.6516 39.8981 61.6214 39.6496 61.5992 39.4785C61.5881 39.393 61.5791 39.3268 61.5726 39.2811C61.5694 39.2583 61.5669 39.2406 61.5651 39.2283C61.5642 39.2221 61.5634 39.2172 61.5629 39.2137C61.5627 39.2119 61.5624 39.2105 61.5623 39.2094C61.5622 39.2088 61.5621 39.2083 61.5621 39.208C61.562 39.2075 61.5619 39.2071 60.5732 39.3567ZM60.5732 39.3567C60.8021 38.3832 60.8022 38.3833 60.8024 38.3833C60.8024 38.3833 60.8025 38.3833 60.8026 38.3833C60.8027 38.3834 60.8028 38.3834 60.8028 38.3834C60.8029 38.3834 60.8029 38.3834 60.8029 38.3834C60.8027 38.3834 60.802 38.3832 60.8009 38.383C60.7988 38.3824 60.7949 38.3815 60.7892 38.3801C60.778 38.3774 60.7597 38.3729 60.7345 38.3665C60.684 38.3537 60.6059 38.3335 60.5003 38.3049C60.2892 38.2477 59.9686 38.157 59.5413 38.0255C58.6868 37.7625 57.4058 37.3364 55.7216 36.6891L55.0041 38.556C56.731 39.2197 58.0551 39.6606 58.953 39.937C59.402 40.0752 59.7443 40.1722 59.9772 40.2353C60.0936 40.2668 60.1827 40.2899 60.244 40.3054C60.2746 40.3132 60.2983 40.319 60.315 40.3231C60.3234 40.3251 60.33 40.3267 60.3349 40.3279C60.3373 40.3285 60.3393 40.329 60.3409 40.3293C60.3417 40.3295 60.3423 40.3297 60.3429 40.3298C60.3432 40.3299 60.3434 40.3299 60.3436 40.33C60.3438 40.33 60.3439 40.33 60.344 40.3301C60.3441 40.3301 60.3442 40.3301 60.5732 39.3567ZM55.7216 36.6891C54.0504 36.0468 52.7389 35.4363 51.8495 34.9888C51.4049 34.7652 51.0661 34.5824 50.8409 34.4571C50.7283 34.3944 50.6441 34.3461 50.5894 34.3143C50.562 34.2983 50.542 34.2865 50.5294 34.279C50.5231 34.2753 50.5187 34.2727 50.5162 34.2711C50.5149 34.2704 50.5141 34.2699 50.5138 34.2697C50.5137 34.2696 50.5136 34.2696 50.5137 34.2696C50.5137 34.2697 50.5138 34.2697 50.5139 34.2698C50.514 34.2698 50.5141 34.2699 50.5141 34.2699C50.5142 34.2699 50.5143 34.27 49.9957 35.125C49.477 35.98 49.4771 35.9801 49.4773 35.9802C49.4773 35.9802 49.4775 35.9803 49.4776 35.9803C49.4778 35.9805 49.478 35.9806 49.4783 35.9808C49.4789 35.9811 49.4796 35.9815 49.4803 35.982C49.4819 35.983 49.484 35.9842 49.4865 35.9857C49.4916 35.9888 49.4986 35.993 49.5075 35.9983C49.5253 36.0088 49.5506 36.0238 49.5834 36.0428C49.6489 36.081 49.7442 36.1356 49.8683 36.2047C50.1165 36.3428 50.4799 36.5386 50.9507 36.7755C51.8922 37.2491 53.2643 37.8873 55.0041 38.556L55.7216 36.6891ZM39.4181 39.3567C38.4294 39.2071 38.4293 39.2075 38.4292 39.208C38.4292 39.2083 38.4291 39.2088 38.429 39.2094C38.4289 39.2105 38.4287 39.2119 38.4284 39.2137C38.4279 39.2172 38.4271 39.2221 38.4262 39.2283C38.4244 39.2406 38.4219 39.2583 38.4187 39.2811C38.4122 39.3268 38.4032 39.393 38.3921 39.4785C38.3699 39.6496 38.3397 39.8981 38.3064 40.2139C38.24 40.8454 38.1615 41.7476 38.1119 42.8405C38.0128 45.0218 38.0276 47.9834 38.4913 51.076C39.4084 57.1926 42.1616 64.2292 49.7389 66.2422L50.2524 64.3093C43.8919 62.6195 41.3564 56.6966 40.4692 50.7794C40.0307 47.8551 40.0144 45.0311 40.1098 42.9312C40.1574 41.8834 40.2326 41.0211 40.2955 40.4231C40.3269 40.1243 40.3552 39.8918 40.3755 39.7356C40.3856 39.6575 40.3937 39.5986 40.3991 39.5599C40.4019 39.5406 40.4039 39.5263 40.4052 39.5173C40.4059 39.5128 40.4064 39.5097 40.4066 39.5078C40.4068 39.5069 40.4069 39.5063 40.4069 39.506C40.4069 39.5059 40.4069 39.5059 40.4069 39.5059C40.4069 39.506 40.4069 39.5062 39.4181 39.3567ZM39.4181 39.3567C39.6471 40.3301 39.6472 40.3301 39.6473 40.3301C39.6474 40.33 39.6475 40.33 39.6477 40.33C39.6479 40.3299 39.6481 40.3299 39.6484 40.3298C39.649 40.3297 39.6496 40.3295 39.6504 40.3293C39.652 40.329 39.654 40.3285 39.6564 40.3279C39.6613 40.3267 39.6679 40.3251 39.6763 40.3231C39.693 40.319 39.7167 40.3132 39.7474 40.3054C39.8086 40.2899 39.8977 40.2668 40.0141 40.2353C40.247 40.1722 40.5893 40.0752 41.0383 39.937C41.9362 39.6606 43.2603 39.2197 44.9872 38.556L44.2697 36.6891C42.5855 37.3364 41.3045 37.7625 40.45 38.0255C40.0227 38.157 39.7021 38.2477 39.491 38.3049C39.3854 38.3335 39.3073 38.3537 39.2568 38.3665C39.2316 38.3729 39.2134 38.3774 39.2021 38.3801C39.1964 38.3815 39.1925 38.3824 39.1904 38.383C39.1893 38.3832 39.1887 38.3834 39.1885 38.3834C39.1884 38.3834 39.1884 38.3834 39.1885 38.3834C39.1886 38.3834 39.1886 38.3834 39.1888 38.3833C39.1888 38.3833 39.1889 38.3833 39.1889 38.3833C39.1891 38.3833 39.1892 38.3832 39.4181 39.3567ZM44.9872 38.556C46.727 37.8873 48.0991 37.2491 49.0406 36.7755C49.5114 36.5386 49.8749 36.3428 50.123 36.2047C50.2471 36.1356 50.3424 36.081 50.4079 36.0428C50.4407 36.0238 50.466 36.0088 50.4838 35.9983C50.4927 35.993 50.4997 35.9888 50.5048 35.9857C50.5073 35.9842 50.5094 35.983 50.511 35.982C50.5118 35.9815 50.5124 35.9811 50.513 35.9808C50.5133 35.9806 50.5135 35.9805 50.5137 35.9803C50.5138 35.9803 50.514 35.9802 50.514 35.9802C50.5142 35.9801 50.5143 35.98 49.9957 35.125C49.477 34.27 49.4771 34.2699 49.4772 34.2699C49.4773 34.2699 49.4773 34.2698 49.4774 34.2698C49.4775 34.2697 49.4776 34.2697 49.4776 34.2696C49.4777 34.2696 49.4776 34.2696 49.4775 34.2697C49.4772 34.2699 49.4764 34.2704 49.4751 34.2711C49.4726 34.2727 49.4682 34.2753 49.4619 34.279C49.4494 34.2865 49.4293 34.2983 49.4019 34.3143C49.3472 34.3461 49.263 34.3944 49.1504 34.4571C48.9252 34.5824 48.5864 34.7652 48.1418 34.9888C47.2524 35.4363 45.9409 36.0468 44.2697 36.6891L44.9872 38.556Z" fill="#1B4ED1" mask="url(#path-4-inside-2_630_1970)"/>
</svg>
