<svg width="100" height="100" viewBox="0 0 100 100" fill="none" xmlns="http://www.w3.org/2000/svg">
<ellipse cx="50" cy="61.4002" rx="35" ry="33.5994" fill="#1B4ED1"/>
<mask id="path-2-inside-1_630_1979" fill="white">
<path d="M35.7738 50.5181C35.9784 12.0908 50.0059 5 50.0059 5C50.0059 5 64.0333 12.0908 64.238 50.5181C64.2406 51.0203 64.5648 51.4882 65.0292 51.7194C66.7245 52.5632 70.6139 55.0332 71.2559 60.1646V73.3561C71.2559 73.3561 70.637 75.7545 68.574 74.7552L61.357 70.2196C61.0856 70.0491 60.7684 69.9583 60.4441 69.9583H39.5676C39.2433 69.9583 38.9261 70.0491 38.6548 70.2196L31.4377 74.7552C29.3747 75.7545 28.7559 73.3561 28.7559 73.3561V60.1646C29.3978 55.0332 33.2872 52.5632 34.9826 51.7194C35.4469 51.4882 35.7711 51.0203 35.7738 50.5181Z"/>
</mask>
<path d="M35.7738 50.5181C35.9784 12.0908 50.0059 5 50.0059 5C50.0059 5 64.0333 12.0908 64.238 50.5181C64.2406 51.0203 64.5648 51.4882 65.0292 51.7194C66.7245 52.5632 70.6139 55.0332 71.2559 60.1646V73.3561C71.2559 73.3561 70.637 75.7545 68.574 74.7552L61.357 70.2196C61.0856 70.0491 60.7684 69.9583 60.4441 69.9583H39.5676C39.2433 69.9583 38.9261 70.0491 38.6548 70.2196L31.4377 74.7552C29.3747 75.7545 28.7559 73.3561 28.7559 73.3561V60.1646C29.3978 55.0332 33.2872 52.5632 34.9826 51.7194C35.4469 51.4882 35.7711 51.0203 35.7738 50.5181Z" fill="white"/>
<path d="M50.0059 5L50.457 4.10754L50.0059 3.8795L49.5547 4.10754L50.0059 5ZM35.7738 50.5181L36.7737 50.5235L35.7738 50.5181ZM34.9826 51.7194L34.537 50.8241L34.537 50.8241L34.9826 51.7194ZM28.7559 60.1646L27.7636 60.0404L27.7559 60.1022V60.1646H28.7559ZM28.7559 73.3561H27.7559V73.483L27.7876 73.6059L28.7559 73.3561ZM31.4377 74.7552L31.8737 75.6552L31.9232 75.6312L31.9698 75.6019L31.4377 74.7552ZM38.6548 70.2196L38.1227 69.3729L38.1227 69.3729L38.6548 70.2196ZM64.238 50.5181L63.238 50.5235L64.238 50.5181ZM65.0292 51.7194L65.4747 50.8241L65.4747 50.8241L65.0292 51.7194ZM71.2559 60.1646H72.2559V60.1022L72.2481 60.0404L71.2559 60.1646ZM71.2559 73.3561L72.2241 73.6059L72.2559 73.483V73.3561H71.2559ZM68.574 74.7552L68.0419 75.6019L68.0885 75.6312L68.1381 75.6552L68.574 74.7552ZM61.357 70.2196L61.889 69.3729L61.889 69.3729L61.357 70.2196ZM50.0059 5C49.5547 4.10754 49.5537 4.10805 49.5527 4.10859C49.5522 4.1088 49.5511 4.10937 49.5503 4.1098C49.5486 4.11066 49.5467 4.11164 49.5446 4.11273C49.5403 4.11492 49.5353 4.11756 49.5294 4.12068C49.5175 4.12691 49.5024 4.13503 49.484 4.14513C49.4473 4.16533 49.3976 4.19344 49.336 4.23021C49.2127 4.30375 49.0414 4.41192 48.829 4.56067C48.4041 4.85828 47.8155 5.31784 47.1184 5.98688C45.7231 7.32601 43.9002 9.49744 42.0856 12.8756C38.4568 19.631 34.8767 31.1814 34.7738 50.5128L36.7737 50.5235C36.8754 31.4276 40.4114 20.2189 43.8475 13.822C45.5653 10.6241 47.2621 8.62109 48.5033 7.42985C49.1245 6.8337 49.6334 6.43908 49.9764 6.1988C50.148 6.07861 50.2783 5.99691 50.3606 5.94782C50.4017 5.92328 50.4309 5.90688 50.4472 5.8979C50.4554 5.89341 50.4604 5.89077 50.462 5.88989C50.4629 5.88945 50.4629 5.88946 50.462 5.88989C50.4616 5.8901 50.461 5.89043 50.4601 5.89085C50.4597 5.89107 50.4589 5.89147 50.4587 5.89158C50.4579 5.892 50.457 5.89246 50.0059 5ZM34.537 50.8241C32.7398 51.7186 28.4686 54.4049 27.7636 60.0404L29.7481 60.2887C30.327 55.6615 33.8346 53.4078 35.4281 52.6146L34.537 50.8241ZM27.7559 60.1646V73.3561H29.7559V60.1646H27.7559ZM28.7559 73.3561C27.7876 73.6059 27.7877 73.6064 27.7878 73.6068C27.7878 73.607 27.788 73.6074 27.788 73.6078C27.7882 73.6084 27.7884 73.6091 27.7886 73.6098C27.789 73.6113 27.7894 73.6129 27.7899 73.6146C27.7908 73.6182 27.7919 73.6223 27.7932 73.627C27.7958 73.6364 27.799 73.6481 27.8031 73.662C27.8111 73.6897 27.8222 73.7262 27.8366 73.7699C27.8653 73.857 27.9078 73.9752 27.9666 74.1113C28.081 74.3765 28.2717 74.745 28.5684 75.0864C28.8681 75.4312 29.3079 75.7835 29.9129 75.9301C30.5292 76.0794 31.1927 75.985 31.8737 75.6552L31.0017 73.8552C30.6513 74.025 30.4637 74.0056 30.3838 73.9863C30.2926 73.9642 30.1908 73.9043 30.0779 73.7744C29.9621 73.6411 29.8691 73.4724 29.803 73.3192C29.7715 73.2461 29.7495 73.1846 29.7363 73.1444C29.7298 73.1246 29.7256 73.1105 29.7236 73.1036C29.7225 73.1002 29.7221 73.0985 29.7222 73.0989C29.7223 73.0991 29.7225 73.0998 29.7228 73.101C29.7229 73.1016 29.7231 73.1023 29.7234 73.1032C29.7235 73.1036 29.7236 73.1041 29.7237 73.1046C29.7238 73.1049 29.7239 73.1053 29.7239 73.1054C29.724 73.1058 29.7241 73.1062 28.7559 73.3561ZM31.9698 75.6019L39.1869 71.0663L38.1227 69.3729L30.9056 73.9085L31.9698 75.6019ZM39.1869 71.0663C39.2968 70.9972 39.4292 70.9583 39.5676 70.9583V68.9583C39.0575 68.9583 38.5554 69.101 38.1227 69.3729L39.1869 71.0663ZM34.7738 50.5128C34.7734 50.5888 34.7093 50.7384 34.537 50.8241L35.4281 52.6146C36.1846 52.2381 36.7688 51.4518 36.7737 50.5235L34.7738 50.5128ZM50.0059 5C49.5547 5.89246 49.5538 5.892 49.553 5.89158C49.5528 5.89147 49.552 5.89107 49.5516 5.89085C49.5507 5.89043 49.5501 5.8901 49.5497 5.88989C49.5489 5.88946 49.5489 5.88945 49.5497 5.88989C49.5513 5.89077 49.5563 5.89341 49.5645 5.8979C49.5808 5.90688 49.61 5.92328 49.6512 5.94782C49.7334 5.99691 49.8637 6.07861 50.0353 6.1988C50.3783 6.43908 50.8873 6.8337 51.5084 7.42985C52.7496 8.62109 54.4464 10.6241 56.1642 13.822C59.6004 20.2189 63.1363 31.4276 63.238 50.5235L65.2379 50.5128C65.135 31.1814 61.5549 19.631 57.9261 12.8756C56.1115 9.49744 54.2886 7.32601 52.8933 5.98688C52.1962 5.31784 51.6076 4.85828 51.1827 4.56067C50.9703 4.41192 50.799 4.30375 50.6757 4.23021C50.6141 4.19344 50.5645 4.16533 50.5277 4.14513C50.5093 4.13503 50.4942 4.12691 50.4824 4.12068C50.4765 4.11756 50.4714 4.11492 50.4671 4.11273C50.465 4.11164 50.4631 4.11066 50.4614 4.1098C50.4606 4.10937 50.4595 4.1088 50.4591 4.10859C50.458 4.10805 50.457 4.10754 50.0059 5ZM64.5836 52.6146C66.1771 53.4078 69.6847 55.6615 70.2636 60.2887L72.2481 60.0404C71.5431 54.4049 67.2719 51.7186 65.4747 50.8241L64.5836 52.6146ZM70.2559 60.1646V73.3561H72.2559V60.1646H70.2559ZM71.2559 73.3561C70.2876 73.1062 70.2877 73.1058 70.2878 73.1054C70.2878 73.1053 70.2879 73.1049 70.288 73.1046C70.2881 73.1041 70.2882 73.1037 70.2884 73.1032C70.2886 73.1023 70.2888 73.1016 70.2889 73.101C70.2893 73.0998 70.2895 73.0991 70.2895 73.0989C70.2896 73.0985 70.2892 73.1002 70.2882 73.1036C70.2862 73.1105 70.282 73.1246 70.2754 73.1444C70.2622 73.1846 70.2402 73.2461 70.2087 73.3192C70.1426 73.4724 70.0496 73.6411 69.9338 73.7744C69.8209 73.9043 69.7191 73.9642 69.628 73.9863C69.548 74.0056 69.3605 74.025 69.01 73.8552L68.1381 75.6552C68.8191 75.985 69.4825 76.0794 70.0988 75.9301C70.7039 75.7835 71.1436 75.4312 71.4433 75.0864C71.7401 74.745 71.9307 74.3765 72.0452 74.1113C72.1039 73.9752 72.1464 73.857 72.1751 73.7699C72.1895 73.7262 72.2006 73.6897 72.2086 73.662C72.2127 73.6481 72.216 73.6364 72.2185 73.627C72.2198 73.6223 72.2209 73.6182 72.2219 73.6146C72.2223 73.6129 72.2228 73.6113 72.2231 73.6098C72.2233 73.6091 72.2235 73.6084 72.2237 73.6078C72.2238 73.6074 72.2239 73.607 72.2239 73.6068C72.224 73.6064 72.2241 73.6059 71.2559 73.3561ZM69.1061 73.9085L61.889 69.3729L60.8249 71.0663L68.0419 75.6019L69.1061 73.9085ZM61.889 69.3729C61.4563 69.101 60.9543 68.9583 60.4441 68.9583V70.9583C60.5825 70.9583 60.7149 70.9972 60.8249 71.0663L61.889 69.3729ZM63.238 50.5235C63.2429 51.4518 63.8271 52.2381 64.5836 52.6146L65.4747 50.8241C65.3024 50.7384 65.2383 50.5888 65.2379 50.5128L63.238 50.5235ZM39.5676 70.9583H60.4441V68.9583H39.5676V70.9583Z" fill="#1B4ED1" mask="url(#path-2-inside-1_630_1979)"/>
<path d="M56.1771 29.3999C56.1771 32.6393 53.4356 35.2998 50.0104 35.2998C46.5852 35.2998 43.8438 32.6393 43.8438 29.3999C43.8438 26.1605 46.5852 23.5 50.0104 23.5C53.4356 23.5 56.1771 26.1605 56.1771 29.3999Z" fill="white" stroke="#1B4ED1"/>
</svg>
