<svg width="57" height="72" viewBox="0 0 57 72" fill="none" xmlns="http://www.w3.org/2000/svg">
<circle cx="28.9143" cy="15.9143" r="14.9143" stroke="#1B4ED1" stroke-width="2"/>
<path fill-rule="evenodd" clip-rule="evenodd" d="M56.3064 67.683C54.4727 58.7366 48.1954 39 28.4995 39C8.8036 39 2.52631 58.7366 0.69262 67.683C0.220029 69.9887 2.03018 72 4.38384 72H52.6151C54.9688 72 56.7789 69.9887 56.3064 67.683ZM22.0679 60.7985C22.3984 60.4679 22.4484 59.9557 22.247 59.5339C22.1328 59.2947 22.0322 59.0479 21.9461 58.7943C21.794 58.3463 21.3932 58.0117 20.9202 58.0117H19.9995C19.4472 58.0117 18.9995 57.564 18.9995 57.0117V55.989C18.9995 55.4367 19.4472 54.989 19.9995 54.989H20.9949C21.4559 54.989 21.8498 54.6707 22.0103 54.2386C22.0963 54.0073 22.1944 53.7819 22.304 53.5633C22.5171 53.1382 22.4716 52.6149 22.1354 52.2786L21.4154 51.5587C21.0249 51.1682 21.0249 50.535 21.4154 50.1445L22.1386 49.4213C22.5291 49.0308 23.1623 49.0308 23.5528 49.4213L24.3474 50.2159C24.6716 50.5401 25.1719 50.5949 25.5898 50.4061C25.7892 50.3159 25.9937 50.2352 26.2027 50.1643C26.6509 50.0123 26.9857 49.6114 26.9857 49.1382V48C26.9857 47.4477 27.4334 47 27.9857 47H29.0084C29.5607 47 30.0084 47.4477 30.0084 48V49.215C30.0084 49.6758 30.3265 50.0696 30.7584 50.2302C30.9481 50.3008 31.1337 50.3795 31.3149 50.466C31.7367 50.6674 32.2489 50.6174 32.5794 50.2869L33.4473 49.419C33.8378 49.0285 34.471 49.0285 34.8615 49.419L35.5847 50.1422C35.9752 50.5327 35.9752 51.1659 35.5847 51.5564L34.7136 52.4275C34.3837 52.7575 34.3332 53.2688 34.5336 53.6903C34.6185 53.8689 34.6959 54.0518 34.7653 54.2386C34.9258 54.6707 35.3197 54.989 35.7807 54.989H36.9995C37.5518 54.989 37.9995 55.4367 37.9995 55.989V57.0117C37.9995 57.564 37.5518 58.0117 36.9995 58.0117H35.8554C35.3824 58.0117 34.9816 58.3463 34.8295 58.7943C34.7588 59.0025 34.6783 59.2062 34.5885 59.4048C34.3997 59.8227 34.4545 60.323 34.7787 60.6472L35.5737 61.4421C35.9642 61.8327 35.9642 62.4658 35.5737 62.8564L34.8505 63.5795C34.4599 63.9701 33.8268 63.9701 33.4363 63.5795L32.716 62.8592C32.3797 62.523 31.8564 62.4775 31.4313 62.6906C31.2134 62.7998 30.9889 62.8977 30.7584 62.9834C30.3265 63.144 30.0084 63.5378 30.0084 63.9986V65C30.0084 65.5523 29.5607 66 29.0084 66H27.9857C27.4334 66 26.9857 65.5523 26.9857 65V64.0754C26.9857 63.6022 26.6509 63.2013 26.2027 63.0493C25.952 62.9643 25.7079 62.8651 25.4713 62.7526C25.0498 62.5522 24.5385 62.6026 24.2085 62.9326L23.5639 63.5772C23.1734 63.9678 22.5402 63.9678 22.1497 63.5772L21.4265 62.8541C21.036 62.4635 21.036 61.8304 21.4265 61.4399L22.0679 60.7985Z" fill="#1B4ED1"/>
</svg>
