<svg width="81" height="50" viewBox="0 0 81 50" fill="none" xmlns="http://www.w3.org/2000/svg">
<path d="M13.2135 45.4112C12.6932 47.4319 12.0576 49.9002 10.7914 49.9002C9.244 49.9002 8.69451 48.8039 8.02412 47.4663C7.77772 46.9747 7.51499 46.4505 7.18038 45.9362C5.95764 44.0567 5.69629 42.0454 5.45145 40.1612L5.43808 40.0584C5.42665 39.9705 5.4181 39.886 5.41224 39.8049L2.5 39.4492L0 38.031V35.5L2 34.9492L4.5 37.7059L5.95457 38.031C6.07007 37.9079 6.19118 37.8036 6.3045 37.7059C6.45483 37.5764 6.59145 37.4587 6.6831 37.3246C6.91086 36.9912 7.3238 36.9627 7.809 36.9293C8.11948 36.9079 8.45955 36.8845 8.79962 36.7778C9.45511 36.5722 9.47672 36.2892 9.55311 35.2892C9.57829 34.9596 9.60941 34.5522 9.67113 34.044C9.82499 32.777 9.69352 32.3451 9.48248 31.6518C9.35198 31.2231 9.19105 30.6944 9.04834 29.8065C8.79201 28.2118 9.35661 26.9389 9.85681 25.8112C10.0855 25.2957 10.3007 24.8105 10.4179 24.3388C10.7913 22.8353 13.7794 21.605 15.7714 20.7848C17.5376 20.0575 18.5209 18.2557 18.8946 17.5708C18.9424 17.4833 18.9802 17.414 19.0084 17.3675C19.2574 16.9574 21.125 16.0006 22.4945 16.0006C23.6102 16.0006 23.9823 16.6357 24.5531 17.6102C24.6829 17.8319 24.823 18.0711 24.9845 18.3244C25.5535 19.2168 24.9549 19.5266 24.1589 19.9385C23.7358 20.1574 23.2569 20.4052 22.868 20.7848C22.1755 21.4606 21.8158 21.301 21.3188 21.0806C21.0117 20.9443 20.6521 20.7848 20.129 20.7848C18.7594 20.7848 20.0045 22.6985 20.627 23.382C21.1076 23.9096 22.7013 23.541 24.0905 23.2198C24.5006 23.1249 24.893 23.0342 25.2335 22.9719C26.7275 22.6985 28.2215 22.6985 29.591 22.6985C30.4179 22.6985 31.0178 23.0971 31.7197 23.5634C32.1803 23.8695 32.6848 24.2047 33.3261 24.4755C34.7992 25.0976 35.9629 23.7947 37.0049 22.628C37.1078 22.5128 37.2095 22.399 37.3101 22.2884C38.2313 21.277 38.311 21.2819 38.8637 21.3156C38.9833 21.3229 39.125 21.3316 39.3022 21.3316C40.2982 21.3316 39.9247 22.4251 39.3022 23.9287L39.27 24.0065C38.6754 25.4422 38.5573 25.7272 38.6796 26.936C38.7926 28.0516 39.2126 27.9307 40.0327 27.6946C40.117 27.6703 40.2054 27.6449 40.2982 27.6194C40.9622 27.4372 40.9622 27.0119 40.9622 26.5056C40.9622 26.2525 40.9622 25.9791 41.0452 25.7057C41.1762 25.2743 41.3071 25.1455 41.4744 24.981C41.625 24.8328 41.8051 24.6556 42.0412 24.2021C42.316 23.6741 42.3633 23.1877 42.4133 22.6741C42.4539 22.2569 42.4963 21.8217 42.6637 21.3316C42.8654 20.7409 43.1762 20.5092 43.4389 20.3132C43.6626 20.1464 43.8514 20.0056 43.9087 19.6913C44.0073 19.1498 45.1999 18.2652 45.9388 17.7171C46.1326 17.5733 46.2952 17.4527 46.3987 17.3675C46.8967 16.9574 48.1417 16.5474 49.2623 16.9574C50.1168 17.2702 49.8127 17.742 49.2889 18.5547C49.1258 18.8075 48.9415 19.0935 48.7642 19.4179C48.0172 20.7848 48.2662 21.1949 50.0093 21.3316C51.2271 21.4271 53.1134 20.4549 54.2671 19.8604C54.7646 19.604 55.1258 19.4179 55.2383 19.4179C55.6118 19.4179 56.7323 19.6913 57.4793 20.7848C58.2263 21.8783 58.5998 21.0582 59.0979 19.6913C59.2486 19.2774 59.3652 18.7508 59.4924 18.1758C59.7854 16.8519 60.135 15.2719 61.0899 14.2236C61.9116 13.3214 62.5988 13.1574 63.2861 12.9933C63.7443 12.884 64.2024 12.7746 64.7004 12.4466C65.5044 11.917 65.7373 11.5584 66.0025 11.1499C66.148 10.9258 66.3033 10.6867 66.5679 10.3962C67.1282 9.78109 67.2682 9.16598 67.5134 8.08953C67.5951 7.73071 67.6884 7.32063 67.8129 6.8422C67.9182 6.4378 68.0012 6.14938 68.0619 5.93824C68.1716 5.55721 68.2088 5.42785 68.1736 5.32274C68.1555 5.26872 68.1183 5.2211 68.0619 5.14901C68.0012 5.0713 67.9182 4.96513 67.8129 4.79182C67.4159 4.13796 67.7311 3.22339 68.0645 2.25599C68.1493 2.00999 68.2352 1.76058 68.311 1.51118C68.6002 0.558468 69.3374 0.999364 70.1757 1.5007C70.4199 1.64674 70.6727 1.79791 70.9255 1.92125C72.0344 2.46239 72.1678 4.07463 72.2911 5.56541L72.295 5.61194C72.3669 6.48006 72.6462 6.61914 73.205 6.89732C73.6141 7.10095 74.1728 7.37913 74.9095 8.0724C76.4163 9.49042 76.0623 10.8063 75.6169 12.4615C75.5471 12.721 75.475 12.9888 75.4075 13.2667C74.9095 15.3171 75.283 18.3243 75.9055 19.4179C76.1679 19.8788 76.9169 20.5826 77.761 21.3756C78.9194 22.4641 80.2569 23.7209 80.7611 24.7489C81.6326 26.5259 79.8896 27.346 79.3916 27.4827C78.8936 27.6194 77.026 25.1589 74.9095 22.015C73.2163 19.4999 72.71 20.1469 72.6685 20.7848C72.6685 21.6961 72.3946 23.71 71.299 24.4755C70.3048 25.1701 70.5572 26.5851 70.7702 27.7792C70.8507 28.2299 70.9255 28.6492 70.9255 28.9863C70.9255 30.2165 70.9255 31.7201 71.299 32.8137C71.5733 33.617 72.1165 33.5351 72.7803 33.4351C73.0201 33.399 73.2757 33.3605 73.54 33.3605C74.536 33.3605 75.1585 33.6338 75.9055 35.5475C76.4386 36.9131 76.4645 37.165 76.6617 39.0846C76.7409 39.8551 76.8477 40.8943 77.026 42.3821C77.6485 47.5765 74.6605 48.5333 74.038 47.9865C73.6525 47.6479 73.649 47.0997 73.643 46.1794C73.6394 45.6136 73.6348 44.9072 73.54 44.0224C73.3962 42.6808 73.128 42.7061 72.5915 42.7567C72.1987 42.7937 71.6622 42.8443 70.9255 42.3821C70.054 41.8354 69.6182 41.8354 69.2914 41.8354C68.9646 41.8354 68.7467 41.8354 68.311 41.2886C67.4394 40.1951 66.5679 40.0584 65.4474 40.0584C64.5648 40.0584 64.5319 40.5673 64.436 42.0529L64.436 42.054C64.4101 42.4541 64.3797 42.9249 64.3269 43.4757C64.1474 45.3475 63.192 46.0123 62.2062 46.6981C61.8242 46.9639 61.4376 47.2329 61.0899 47.5765C60.0939 48.5606 57.5208 47.9865 56.3588 47.5765H53.4953C53.2363 47.5765 52.9923 47.56 52.7581 47.5443C52.3167 47.5145 51.91 47.4871 51.5033 47.5765C50.8808 47.7131 49.1378 48.2599 48.3907 48.5333C47.6437 48.8067 43.0372 49.9002 40.0492 49.9002C37.3323 49.9002 36.5711 47.5271 36.2681 46.5826C36.2379 46.4883 36.2122 46.4082 36.1896 46.3462C35.9406 45.6628 35.4426 45.2527 33.8241 44.8426C32.7022 44.5584 32.5374 44.0114 32.3346 43.3384C32.2448 43.0404 32.1476 42.7177 31.9566 42.3821C31.5567 41.6798 31.1569 41.8797 30.6911 42.1125C30.4317 42.2422 30.1518 42.3821 29.8401 42.3821C29.6042 42.3821 29.2317 42.212 28.789 42.0099C27.5957 41.4649 25.8926 40.6871 24.9845 42.3821C24.8881 42.562 24.7999 42.728 24.7188 42.8808C24.1587 43.935 23.9315 44.3626 23.639 44.4134C23.4394 44.448 23.2093 44.3073 22.8223 44.0706C22.7967 44.055 22.7705 44.0389 22.7435 44.0224C22.2629 43.7293 21.5534 42.9586 20.831 42.1738C19.8688 41.1285 18.8837 40.0584 18.3859 40.0584C17.5144 40.0584 14.6509 41.2886 13.7794 43.4757C13.5888 43.954 13.4093 44.6509 13.2135 45.4112Z" fill="#1B4ED1"/>
<path d="M33.2122 16.9696L32.0663 19.8342C32.0261 19.9348 32.0717 20.0621 32.112 20.1627C32.2181 20.4281 32.3599 20.9401 32.6392 20.8791C32.9895 20.8025 33.3176 20.6824 33.5 20.5C34 20 34 19 34.5 18.5C35.4864 17.5136 36.6921 16.7787 38.0029 16.3013C38.8032 16.0098 39.5876 15.7062 40 15.5C41 15 41 14 41 13.5C41 13 40 13 39 13C38 13 37.5 13 37 13.5C36.8315 13.6685 36.4207 13.9019 35.9392 14.1407C34.7257 14.7426 33.7153 15.7119 33.2122 16.9696Z" stroke="#1B4ED1"/>
</svg>
