<svg width="1333" height="743" viewBox="0 0 1333 743" fill="none" xmlns="http://www.w3.org/2000/svg">
<g opacity="0.1">
<path d="M556.605 392.508L563.877 404.951L576.412 392.413L549.141 379.779L556.605 392.508Z" fill="#1B4ED1"/>
<path d="M556.222 371.452L575.742 370.399L576.89 366.379L580.909 351.927L579.187 353.267L556.222 371.452Z" fill="#1B4ED1"/>
<path d="M581.579 349.822L587.703 334.412L569.235 338.528L581.579 349.822Z" fill="#1B4ED1"/>
<path d="M582.344 368.964L585.693 368.294L585.406 366.954L581.77 352.501L576.794 370.208L582.344 368.964Z" fill="#1B4ED1"/>
<path d="M564.355 417.393L563.59 409.258L563.303 406.291L544.166 407.248L564.355 417.393Z" fill="#1B4ED1"/>
<path d="M566.365 381.789L576.699 391.168L575.646 371.356L555.935 372.409L566.365 381.789Z" fill="#1B4ED1"/>
<path d="M462.354 404.855L480.343 439.407L495.557 381.406L496.705 377.195L454.125 389.159L462.354 404.855Z" fill="#1B4ED1"/>
<path d="M535.267 451.466L564.068 418.35L553.447 412.99L542.73 407.631L535.267 451.466Z" fill="#1B4ED1"/>
<path d="M474.793 343.888L445.035 360.924L453.551 387.627L464.364 365.327L474.793 343.888Z" fill="#1B4ED1"/>
<path d="M534.406 450.605L541.869 407.152L521.679 394.423L534.406 450.605Z" fill="#1B4ED1"/>
<path d="M481.3 440.364L533.832 452.423L523.115 404.951L520.723 394.423L481.3 440.364Z" fill="#1B4ED1"/>
<path d="M610.572 380.353L646.167 371.739L621.384 343.696L610.572 380.353Z" fill="#1B4ED1"/>
<path d="M220.556 585.939L201.323 541.051L190.606 568.807L220.556 585.939Z" fill="#1B4ED1"/>
<path d="M668.174 348.003L679.465 355.469L692.383 323.118L647.124 333.934L668.174 348.003Z" fill="#1B4ED1"/>
<path d="M690.374 316.801L693.149 321.396L694.584 317.663L705.97 288.184L676.021 292.395L690.374 316.801Z" fill="#1B4ED1"/>
<path d="M769.697 271.722L767.209 259.28L736.877 292.874L775.917 302.636L769.697 271.722Z" fill="#1B4ED1"/>
<path d="M706.545 313.93L694.488 322.161L740.992 328.67L740.896 327.808L735.633 294.022L706.545 313.93Z" fill="#1B4ED1"/>
<path d="M572.489 316.419L569.618 316.227L588.181 332.785L591.339 317.28L572.489 316.419Z" fill="#1B4ED1"/>
<path d="M598.802 370.016L607.988 340.442L594.688 348.577L598.802 370.016Z" fill="#1B4ED1"/>
<path d="M594.401 347.62L600.907 343.6L607.605 339.485L589.329 334.412L594.401 347.62Z" fill="#1B4ED1"/>
<path d="M435.466 369.825L409.823 393.848L449.819 388.871L452.786 388.489L452.69 388.201L444.174 361.594L435.466 369.825Z" fill="#1B4ED1"/>
<path d="M647.506 371.261L678.7 356.138L647.793 335.561L646.454 334.604L647.506 371.261Z" fill="#1B4ED1"/>
<path d="M621.958 342.93L646.549 370.686L645.497 334.412L621.958 342.93Z" fill="#1B4ED1"/>
<path d="M286.101 413.756L329.064 397.581L328.011 392.796L322.653 368.581L286.101 413.756Z" fill="#1B4ED1"/>
<path d="M192.903 356.33L207.734 386.096L213.092 338.241L192.903 356.33Z" fill="#1B4ED1"/>
<path d="M154.724 459.506L198.931 468.12L169.842 433.664L154.724 459.506Z" fill="#1B4ED1"/>
<path d="M239.119 340.729L253.089 365.422L275.575 326.755L271.748 328.191L239.119 340.729Z" fill="#1B4ED1"/>
<path d="M179.507 396.05L207.351 387.436L192.329 357.478L179.507 396.05Z" fill="#1B4ED1"/>
<path d="M214.049 337.666L208.787 385.809L226.68 357.957L237.588 340.825L235.196 340.538L214.049 337.666Z" fill="#1B4ED1"/>
<path d="M209.361 386.574L252.419 366.188L247.922 358.244L238.449 341.399L209.361 386.574Z" fill="#1B4ED1"/>
<path d="M404.847 374.323L408.674 393.561L443.217 361.211H402.263L404.847 374.323Z" fill="#1B4ED1"/>
<path d="M192.807 574.358L189.936 569.764L181.133 578.665L164.197 595.606H206.012L192.807 574.358Z" fill="#1B4ED1"/>
<path d="M147.835 432.133L154.246 458.549L168.981 433.281L165.345 433.09L147.835 432.133Z" fill="#1B4ED1"/>
<path d="M200.653 540.19L165.25 536.935L189.841 568.041L200.653 540.19Z" fill="#1B4ED1"/>
<path d="M174.627 496.641L154.15 461.037L143.433 500.948L174.627 496.641Z" fill="#1B4ED1"/>
<path d="M164.771 535.978L200.366 539.233L177.593 501.618L175.584 498.173L164.771 535.978Z" fill="#1B4ED1"/>
<path d="M170.417 432.228L225.723 427.921L179.124 397.485L170.417 432.228Z" fill="#1B4ED1"/>
<path d="M330.403 398.155L369.348 452.327L359.588 387.244L330.403 398.155Z" fill="#1B4ED1"/>
<path d="M323.992 367.528L324.279 367.624L359.492 385.809V351.353L350.593 355.373L323.992 367.528Z" fill="#1B4ED1"/>
<path d="M361.31 386.383L407.813 393.944L404.56 377.673L401.307 361.498L361.31 386.383Z" fill="#1B4ED1"/>
<path d="M360.449 351.162V385.809L399.489 361.498L400.445 360.924L367.242 352.884L360.449 351.162Z" fill="#1B4ED1"/>
<path d="M329.925 397.294L358.822 386.574L328.394 370.878L323.514 368.389L329.925 397.294Z" fill="#1B4ED1"/>
<path d="M270.982 313.26L276.724 324.745L291.363 294.405L268.303 307.996L270.982 313.26Z" fill="#1B4ED1"/>
<path d="M580.048 409.641L576.986 393.274L564.642 405.525L580.048 409.641Z" fill="#1B4ED1"/>
<path d="M301.698 352.597L288.971 339.293L276.819 326.66L254.046 365.614L301.698 352.597Z" fill="#1B4ED1"/>
<path d="M305.525 309.815L278.733 325.224L283.23 324.841L305.525 323.118V309.815Z" fill="#1B4ED1"/>
<path d="M283.709 325.798L277.776 326.277L282.465 331.158L302.272 351.832L305.429 324.076L283.709 325.798Z" fill="#1B4ED1"/>
<path d="M741.948 328.382L775.438 303.498L736.59 293.831L741.948 328.382Z" fill="#1B4ED1"/>
<path d="M694.201 321.204L729.126 297.277L734.772 293.448L707.023 288.088L694.201 321.204Z" fill="#1B4ED1"/>
<path d="M774.769 565.936L770.367 564.787L743.384 557.322L757.449 610.25L761.468 599.913L774.769 565.936Z" fill="#1B4ED1"/>
<path d="M766.157 506.5L743.384 556.365L774.769 564.979L766.157 506.5Z" fill="#1B4ED1"/>
<path d="M852.753 556.365L767.018 505.734L772.855 545.358L775.821 565.17L852.753 556.365Z" fill="#1B4ED1"/>
<path d="M824.621 472.905L819.454 475.777L767.305 504.872L853.327 555.599L824.621 472.905Z" fill="#1B4ED1"/>
<path d="M756.11 611.781L711.424 591.108L690.756 635.709L756.11 611.781Z" fill="#1B4ED1"/>
<path d="M710.563 590.725L704.535 589.002L652.578 574.358L689.8 635.613L710.563 590.725Z" fill="#1B4ED1"/>
<path d="M760.99 626.808L757.067 612.451L692.479 636.091H763.478L760.99 626.808Z" fill="#1B4ED1"/>
<path d="M914.087 512.816L854.953 556.652L874.282 570.051L894.376 584.025L914.087 512.816Z" fill="#1B4ED1"/>
<path d="M981.163 516.453L967.958 504.49L957.337 521.526L1003.08 536.361L981.163 516.453Z" fill="#1B4ED1"/>
<path d="M968.628 556.173L956.38 522.579L895.907 584.216L977.336 579.814L968.628 556.173Z" fill="#1B4ED1"/>
<path d="M976.57 580.867L896.29 585.174L910.93 593.787L940.784 611.207L976.57 580.867Z" fill="#1B4ED1"/>
<path d="M940.114 611.972L908.059 593.213L895.333 585.748L908.442 655.712L940.114 611.972Z" fill="#1B4ED1"/>
<path d="M565.312 417.393L579.282 410.406L564.26 406.386L565.312 417.393Z" fill="#1B4ED1"/>
<path d="M559.954 516.549L512.015 506.691L562.059 569.86L559.954 516.549Z" fill="#1B4ED1"/>
<path d="M512.781 513.869L526.942 589.672L561.867 571.104L511.632 507.839L512.781 513.869Z" fill="#1B4ED1"/>
<path d="M688.938 635.996L664.73 596.276L652.004 575.22L650.951 630.54L663.486 632.359L688.938 635.996Z" fill="#1B4ED1"/>
<path d="M1006.42 471.757L957.242 462.664L968.15 502.958L1010.54 472.427L1006.42 471.757Z" fill="#1B4ED1"/>
<path d="M566.652 454.816L564.451 419.307L535.458 452.615L566.652 454.816Z" fill="#1B4ED1"/>
<path d="M560.145 514.156L565.312 467.45L566.556 455.773L535.267 453.572L560.145 514.156Z" fill="#1B4ED1"/>
<path d="M651.047 574.645L647.028 578.091L603.012 616.088L649.994 630.349L651.047 574.645Z" fill="#1B4ED1"/>
<path d="M591.147 523.153L560.911 516.741L563.016 569.668L591.147 523.153Z" fill="#1B4ED1"/>
<path d="M650.473 573.88L606.936 566.223L603.778 601.731L602.63 615.227L607.605 610.824L650.473 573.88Z" fill="#1B4ED1"/>
<path d="M601.577 552.823L591.817 524.015L587.894 530.427L563.59 570.721L605.883 565.266L601.577 552.823Z" fill="#1B4ED1"/>
<path d="M601.673 615.131L605.979 566.223L563.59 571.678L601.673 615.131Z" fill="#1B4ED1"/>
<path d="M1056.09 321.587L1045.18 315.557L1059.34 375.568L1092.06 341.686L1056.09 321.587Z" fill="#1B4ED1"/>
<path d="M934.086 411.459L951.787 374.228L955.902 365.614L901.265 353.554L934.086 411.459Z" fill="#1B4ED1"/>
<path d="M910.93 320.63L876.961 319.194L858.972 318.524L900.117 352.023L905.571 336.231L910.93 320.63Z" fill="#1B4ED1"/>
<path d="M984.703 435.77L957.624 461.803L1010.63 471.565L984.703 435.77Z" fill="#1B4ED1"/>
<path d="M912.652 320.63L955.998 363.891L950.544 318.429L912.652 320.63Z" fill="#1B4ED1"/>
<path d="M957.05 364.561L968.245 359.488L1012.74 339.389L951.596 318.62L957.05 364.561Z" fill="#1B4ED1"/>
<path d="M888.539 410.981L933.224 412.033L900.5 354.224L888.539 410.981Z" fill="#1B4ED1"/>
<path d="M819.071 329.627L819.167 329.148L828.735 302.636L778.118 303.785L819.071 329.627Z" fill="#1B4ED1"/>
<path d="M775.917 337.666L818.019 330.105L776.969 304.168L775.917 337.666Z" fill="#1B4ED1"/>
<path d="M846.055 356.426L849.021 345.993L856.867 318.716L820.219 330.584L846.055 356.426Z" fill="#1B4ED1"/>
<path d="M846.916 356.808L899.065 352.501L857.824 318.811L846.916 356.808Z" fill="#1B4ED1"/>
<path d="M820.985 327.138L820.028 329.531L850.073 319.864L856.389 317.854L829.692 302.923L820.985 327.138Z" fill="#1B4ED1"/>
<path d="M951.883 316.993L1014.17 289.715L974.848 264.639L952.936 314.6L951.883 316.993Z" fill="#1B4ED1"/>
<path d="M774.96 337.571L776.013 304.263L742.714 328.957L774.96 337.571Z" fill="#1B4ED1"/>
<path d="M1040.49 425.816L1082.97 454.146L1059.05 377.96L1040.49 425.816Z" fill="#1B4ED1"/>
<path d="M1037.71 499.704L1082.21 456.156L1012.64 472.522L1031.59 493.004L1037.71 499.704Z" fill="#1B4ED1"/>
<path d="M1014.65 288.95V243.296L975.613 263.969L1014.65 288.95Z" fill="#1B4ED1"/>
<path d="M1038.96 426.677L985.565 435.387L996.09 449.743L1011.78 471.374L1038.96 426.677Z" fill="#1B4ED1"/>
<path d="M1100.1 296.128L1045.56 314.696L1087.09 337.858L1092.45 340.825L1100.1 296.128Z" fill="#1B4ED1"/>
<path d="M1015.61 289.045L1036.66 278.23L1066.9 262.821L1015.61 243.2V289.045Z" fill="#1B4ED1"/>
<path d="M1014.56 338.336L1043.65 314.6L1039.72 311.25L1015.61 290.768L1014.56 338.336Z" fill="#1B4ED1"/>
<path d="M1139.91 258.801L1069.1 263.204L1091.2 285.217L1100.67 294.788L1139.91 258.801Z" fill="#1B4ED1"/>
<path d="M1016.66 242.53L1067.47 262.055L1062.02 229.609L1016.66 242.53Z" fill="#1B4ED1"/>
<path d="M1063.26 231.236L1068.33 261.577L1107.09 206.639L1062.97 229.226L1063.26 231.236Z" fill="#1B4ED1"/>
<path d="M280.168 319.864L277.776 324.65L278.733 324.171L305.238 308.858L292.607 294.022L280.168 319.864Z" fill="#1B4ED1"/>
<path d="M1191.77 28.6174L1186.98 34.1686L1200.95 44.1225L1193.97 26.1289L1191.77 28.6174Z" fill="#1B4ED1"/>
<path d="M1195.21 26.7032L1202.29 44.8882L1215.5 42.8783L1197.32 28.3303L1195.21 26.7032Z" fill="#1B4ED1"/>
<path d="M1200.67 101.549L1192.63 124.711L1236.64 110.737L1202.29 96.7632L1200.67 101.549Z" fill="#1B4ED1"/>
<path d="M1186.03 62.2118L1200.48 56.3734L1201.43 46.7067L1195.79 52.3536L1186.03 62.2118Z" fill="#1B4ED1"/>
<path d="M1184.21 284.164L1141.72 259.088L1141.82 264.735L1142.78 309.24L1184.21 284.164Z" fill="#1B4ED1"/>
<path d="M1202.39 94.9447L1208.23 88.1493L1201.43 72.7399L1202.1 86.2351L1202.39 94.9447Z" fill="#1B4ED1"/>
<path d="M1201.24 45.5582L1186.7 35.1257L1185.93 44.4096L1184.59 62.2118L1201.24 45.5582Z" fill="#1B4ED1"/>
<path d="M1199.42 22.0134L1210.81 16.2708L1189.28 10.1453L1194.45 24.5019L1199.42 22.0134Z" fill="#1B4ED1"/>
<path d="M1188.51 10.8153L1184.59 20.482L1193.3 24.3104L1188.51 10.8153Z" fill="#1B4ED1"/>
<path d="M1211.19 15.4094L1202.96 0L1189.57 9.28391L1208.7 14.7394L1211.19 15.4094Z" fill="#1B4ED1"/>
<path d="M1217.03 42.3997L1230.52 34.1686L1212.82 17.515L1214.64 28.3303L1217.03 42.3997Z" fill="#1B4ED1"/>
<path d="M1190.52 28.5217L1193.3 25.3633L1190.52 24.119L1184.59 21.5348L1186.6 33.1158L1190.52 28.5217Z" fill="#1B4ED1"/>
<path d="M1195.02 25.2676L1215.98 42.0169L1211.77 16.9407L1210.81 17.4193L1195.02 25.2676Z" fill="#1B4ED1"/>
<path d="M1236.36 109.588L1220.95 92.1691L1203.54 96.2847L1228.13 106.239L1236.36 109.588Z" fill="#1B4ED1"/>
<path d="M1218.08 165.388L1168.13 171.609L1166.03 171.896L1201.81 200.13L1218.08 165.388Z" fill="#1B4ED1"/>
<path d="M1244.97 194.866L1219.04 165.675L1202.77 200.226L1210.9 199.269L1244.97 194.866Z" fill="#1B4ED1"/>
<path d="M1165.26 172.47L1160.96 225.877L1201.14 200.8L1165.26 172.47Z" fill="#1B4ED1"/>
<path d="M1179.71 266.554L1160.29 227.695L1142.01 257.94L1164.69 263.108L1179.71 266.554Z" fill="#1B4ED1"/>
<path d="M1200.95 203.672L1201.34 201.853L1163.35 225.494L1198.27 216.21L1200.95 203.672Z" fill="#1B4ED1"/>
<path d="M1200 123.371L1193.68 125.285L1246.31 137.153L1237.7 111.407L1200 123.371Z" fill="#1B4ED1"/>
<path d="M1249.56 94.2748L1222.29 92.1691L1237.98 109.971L1249.56 94.2748Z" fill="#1B4ED1"/>
<path d="M1245.64 194.196L1254.25 163.091L1219.9 165.196L1245.64 194.196Z" fill="#1B4ED1"/>
<path d="M1246.69 194.196L1264.39 183.764L1255.02 163.952L1252.53 173.14L1246.69 194.196Z" fill="#1B4ED1"/>
<path d="M1254.25 162.133L1246.79 138.684L1220.19 164.239L1254.25 162.133Z" fill="#1B4ED1"/>
<path d="M219.79 503.628L200.653 470.704L201.323 513.869L201.802 539.233L236.535 532.628L219.79 503.628Z" fill="#1B4ED1"/>
<path d="M1107.76 205.203L1087.09 186.827L1067.38 169.216L1062.97 228.174L1107.76 205.203Z" fill="#1B4ED1"/>
<path d="M1065.85 167.972L1057.9 162.038L1035.99 175.916L1065.85 167.972Z" fill="#1B4ED1"/>
<path d="M1062.11 227.408L1066.42 168.833L1041.25 175.533L1033.89 177.543L1059.82 223.292L1062.11 227.408Z" fill="#1B4ED1"/>
<path d="M1056.47 161.751L1046.9 160.794L1035.32 175.246L1047.19 167.685L1056.47 161.751Z" fill="#1B4ED1"/>
<path d="M1077.81 165.483L1080.2 159.836L1082.49 154.285L1068.52 167.398L1070.53 167.015L1077.81 165.483Z" fill="#1B4ED1"/>
<path d="M1078 166.44L1067.95 168.45L1105.08 201.566L1078 166.44Z" fill="#1B4ED1"/>
<path d="M1014.46 240.999L1008.05 198.312L987.765 212.19L1014.46 240.999Z" fill="#1B4ED1"/>
<path d="M1125.65 182.328L1084.03 153.137L1078.86 165.675L1125.65 182.328Z" fill="#1B4ED1"/>
<path d="M1007.48 197.546L998.482 192.474L988.435 210.563L1007.48 197.546Z" fill="#1B4ED1"/>
<path d="M1022.4 194.675L1008.91 197.833L1015.13 239.372L1022.4 194.675Z" fill="#1B4ED1"/>
<path d="M1038.57 235.352L1061.44 228.748L1024.7 196.206L1023.36 195.058L1015.71 241.86L1038.57 235.352Z" fill="#1B4ED1"/>
<path d="M1060.58 226.738L1033.12 178.117L1023.65 194.005L1028.91 198.695L1060.58 226.738Z" fill="#1B4ED1"/>
<path d="M1094.93 132.942L1136.84 138.972L1101.92 125.955L1100.29 127.678L1094.93 132.942Z" fill="#1B4ED1"/>
<path d="M1132.06 57.522L1117.23 72.4528L1154.45 99.0603L1132.06 57.522Z" fill="#1B4ED1"/>
<path d="M1146.51 48.5252L1132.83 56.852L1154.93 97.816L1146.51 48.5252Z" fill="#1B4ED1"/>
<path d="M1156.17 99.4431L1183.25 63.6474L1147.47 48.5252L1155.89 97.7203L1156.17 99.4431Z" fill="#1B4ED1"/>
<path d="M1184.59 49.1952L1185.74 34.7429L1172.15 35.7957L1158.09 36.8485L1183.63 62.4032L1184.59 49.1952Z" fill="#1B4ED1"/>
<path d="M1157.03 37.1356L1147.66 47.5681L1181.91 62.1161L1157.03 37.1356Z" fill="#1B4ED1"/>
<path d="M1093.98 134.186L1084.41 152.275L1126.99 182.041L1093.98 134.186Z" fill="#1B4ED1"/>
<path d="M1101.15 125.381L1094.46 118.681V132.176L1099.14 127.391L1101.15 125.381Z" fill="#1B4ED1"/>
<path d="M1172.73 27.9474L1159.04 35.7957L1184.5 33.8815L1172.73 27.9474Z" fill="#1B4ED1"/>
<path d="M1139.62 138.972L1137.71 136.77L1117.52 113.704L1102.78 125.285L1119.62 131.506L1139.62 138.972Z" fill="#1B4ED1"/>
<path d="M1110.63 92.4563L1098.19 102.793L1116.75 112.077L1110.63 92.4563Z" fill="#1B4ED1"/>
<path d="M1116.75 73.3142L1111.39 91.3077L1153.78 99.7303L1116.75 73.3142Z" fill="#1B4ED1"/>
<path d="M1201.43 94.0833L1201.14 88.1493L1200.38 70.5386L1185.07 64.4131L1201.43 94.0833Z" fill="#1B4ED1"/>
<path d="M644.349 689.976L649.898 631.88L594.018 668.059L643.105 689.402L644.349 689.976Z" fill="#1B4ED1"/>
<path d="M602.438 616.949L593.635 667.102L649.324 631.115L602.438 616.949Z" fill="#1B4ED1"/>
<path d="M558.327 617.332L527.038 591.395L522.636 633.603L558.327 617.332Z" fill="#1B4ED1"/>
<path d="M570.766 661.168L592.678 667.484L598.228 635.517L601.29 618.002L566.843 660.019L570.766 661.168Z" fill="#1B4ED1"/>
<path d="M559.571 606.995L562.059 572.157L527.421 590.533L558.806 616.471L559.571 606.995Z" fill="#1B4ED1"/>
<path d="M599.759 616.854L559.667 617.906L556.509 636.857L599.759 616.854Z" fill="#1B4ED1"/>
<path d="M563.016 572.444L561.867 587.662L559.762 616.949L601.003 615.897L563.016 572.444Z" fill="#1B4ED1"/>
<path d="M690.087 685.765L650.76 632.263L645.306 690.072L690.087 685.765Z" fill="#1B4ED1"/>
<path d="M763.478 637.049H691.043L745.871 689.785L763.478 637.049Z" fill="#1B4ED1"/>
<path d="M764.339 637.527L747.307 688.636L779.266 653.511L764.339 637.527Z" fill="#1B4ED1"/>
<path d="M689.321 637.049L662.338 633.124L651.525 631.593L690.469 684.617L689.321 637.049Z" fill="#1B4ED1"/>
<path d="M744.819 690.072L690.374 637.719L691.426 685.669L744.819 690.072Z" fill="#1B4ED1"/>
<path d="M237.971 532.724L273.853 542.487L260.744 480.562L240.841 526.216L237.971 532.724Z" fill="#1B4ED1"/>
<path d="M295.669 495.493L297.487 491.664L261.605 479.701L274.618 541.625L295.669 495.493Z" fill="#1B4ED1"/>
<path d="M818.688 645.662L765.391 637.24L780.031 652.937L818.688 645.662Z" fill="#1B4ED1"/>
<path d="M283.804 415.479L227.924 428.591L260.84 477.882L283.804 415.479Z" fill="#1B4ED1"/>
<path d="M368.199 557.609L299.401 493.292L334.326 573.975L368.199 557.609Z" fill="#1B4ED1"/>
<path d="M227.924 430.218L227.158 429.166L200.94 468.503L259.979 478.265L227.924 430.218Z" fill="#1B4ED1"/>
<path d="M380.83 508.605L299.688 492.143L368.773 556.843L380.83 508.605Z" fill="#1B4ED1"/>
<path d="M485.223 568.041L465.608 505.734L433.935 539.615L481.3 565.84L485.223 568.041Z" fill="#1B4ED1"/>
<path d="M510.676 507.744L486.658 568.807L525.985 589.576L510.676 507.744Z" fill="#1B4ED1"/>
<path d="M510.197 506.404L466.469 505.351L486.084 567.563L510.197 506.404Z" fill="#1B4ED1"/>
<path d="M432.022 539.615L387.624 512.625L381.691 508.988L369.635 557.13L391.929 550.813L432.022 539.615Z" fill="#1B4ED1"/>
<path d="M437.763 521.048L448.193 481.998L382.456 508.318L432.883 539.041L437.763 521.048Z" fill="#1B4ED1"/>
<path d="M977.623 581.249L941.74 611.685L979.249 630.54L983.077 632.359L977.623 581.249Z" fill="#1B4ED1"/>
<path d="M1037.43 501.331L1006.04 537.127L1047.19 540.381L1037.43 501.331Z" fill="#1B4ED1"/>
<path d="M1089.1 560.48L1097.8 519.229L1048.91 540.955L1088.81 560.289L1089.1 560.48Z" fill="#1B4ED1"/>
<path d="M1067.57 505.542L1077.14 488.793L1038.19 500.661L1047.95 539.615L1067.57 505.542Z" fill="#1B4ED1"/>
<path d="M1033.02 496.067L1012.17 473.288L1005.66 536.074L1037.04 500.374L1033.02 496.067Z" fill="#1B4ED1"/>
<path d="M1011.21 473.192L976.857 497.886L968.628 503.82L1004.61 536.553L1011.21 473.192Z" fill="#1B4ED1"/>
<path d="M1101.06 296.032L1093.5 340.633L1141.25 310.197L1101.06 296.032Z" fill="#1B4ED1"/>
<path d="M1092.83 342.26L1060.1 376.046L1133.21 378.248L1092.83 342.26Z" fill="#1B4ED1"/>
<path d="M1107.85 495.014L1079.24 488.697L1098.57 517.698L1123.26 498.364L1107.85 495.014Z" fill="#1B4ED1"/>
<path d="M1004.32 537.797L957.433 522.483L978.101 579.24L1002.98 539.807L1004.32 537.797Z" fill="#1B4ED1"/>
<path d="M1059.82 377.29L1081.73 446.968L1084.03 454.337L1126.89 401.505L1059.82 377.29Z" fill="#1B4ED1"/>
<path d="M1109.57 467.737L1084.22 455.964L1078.76 487.262L1124.12 474.341L1109.57 467.737Z" fill="#1B4ED1"/>
<path d="M907.102 653.607L894.376 585.843L876.387 605.56L858.302 625.276L907.581 655.904L907.102 653.607Z" fill="#1B4ED1"/>
<path d="M856.484 633.507L857.058 626.233L822.324 645.662L853.805 674.95L856.484 633.507Z" fill="#1B4ED1"/>
<path d="M858.015 626.138L854.666 675.333L907.102 656.765L858.015 626.138Z" fill="#1B4ED1"/>
<path d="M853.231 627.19L856.771 625.18L851.126 619.342L830.841 598.19L822.229 644.705L853.231 627.19Z" fill="#1B4ED1"/>
<path d="M775.63 566.319L758.119 611.207L769.027 609.005L829.214 596.946L775.63 566.319Z" fill="#1B4ED1"/>
<path d="M841.653 577.134L853.327 557.226L776.874 565.936L830.362 596.563L841.653 577.134Z" fill="#1B4ED1"/>
<path d="M799.36 603.933L757.928 612.164L764.435 635.9L827.874 598.19L799.36 603.933Z" fill="#1B4ED1"/>
<path d="M982.79 633.316L941.358 612.547L940.209 674.854L966.427 649.299L982.79 633.316Z" fill="#1B4ED1"/>
<path d="M1141.34 285.696L1140.77 259.375L1101.63 295.267L1130.72 305.508L1141.82 309.432L1141.34 285.696Z" fill="#1B4ED1"/>
<path d="M898.777 699.835L938.774 676.003L908.537 657.626L901.17 689.402L898.777 699.835Z" fill="#1B4ED1"/>
<path d="M1006.62 606.23L1005.18 604.986L978.58 581.441L979.154 586.322L984.034 632.072L1006.62 606.23Z" fill="#1B4ED1"/>
<path d="M940.209 621.544L940.305 613.312L908.92 656.765L939.253 675.141L940.209 621.544Z" fill="#1B4ED1"/>
<path d="M587.607 369.442L595.166 378.918L598.037 372.314L587.607 369.442Z" fill="#1B4ED1"/>
<path d="M1141.25 257.365L1159.62 226.929L1109.76 206.352L1129 237.458L1141.25 257.365Z" fill="#1B4ED1"/>
<path d="M1164.31 172.279L1158.85 174.097L1129.57 184.243L1160 225.398L1164.31 172.279Z" fill="#1B4ED1"/>
<path d="M1109.96 204.533L1109.38 205.203L1158.95 225.685L1128.81 184.721L1109.96 204.533Z" fill="#1B4ED1"/>
<path d="M1246.02 138.11L1192.92 126.146L1218.94 164.048L1246.02 138.11Z" fill="#1B4ED1"/>
<path d="M1165.74 170.939L1188.32 168.163L1218.08 164.431L1191.96 126.338L1165.74 170.939Z" fill="#1B4ED1"/>
<path d="M1111.49 92.2648L1117.9 112.46L1153.97 100.783L1132.35 96.3804L1111.49 92.2648Z" fill="#1B4ED1"/>
<path d="M1156.94 100.017L1201.24 95.7104L1183.92 64.3174L1156.94 100.017Z" fill="#1B4ED1"/>
<path d="M1141.44 141.077L1129.57 183.19L1164.11 171.322L1141.44 141.077Z" fill="#1B4ED1"/>
<path d="M1141.05 139.163L1155.02 101.357L1118.38 113.225L1134.93 132.176L1141.05 139.163Z" fill="#1B4ED1"/>
<path d="M1148.33 122.126L1142.01 139.354L1190.81 125.189L1156.08 101.357L1148.33 122.126Z" fill="#1B4ED1"/>
<path d="M1184.02 137.823L1190.91 126.242L1142.01 140.311L1164.78 170.747L1184.02 137.823Z" fill="#1B4ED1"/>
<path d="M1201.24 96.6675L1157.23 100.974L1183.54 119.064L1191.67 124.615L1201.34 96.6675H1201.24Z" fill="#1B4ED1"/>
<path d="M869.402 272.296L871.985 285.313L874.76 299.191L910.164 276.603L869.402 272.296Z" fill="#1B4ED1"/>
<path d="M980.206 260.428L1013.41 242.913L966.332 240.807L970.446 251.527L974.848 263.204L980.206 260.428Z" fill="#1B4ED1"/>
<path d="M858.589 317.471L880.119 318.429L909.59 319.673L880.406 303.689L874.569 300.531L872.751 302.445L858.589 317.471Z" fill="#1B4ED1"/>
<path d="M599.855 369.634L620.332 343.026L609.136 339.963L599.855 369.634Z" fill="#1B4ED1"/>
<path d="M967.001 237.649L978.197 223.005L986.139 212.381L976.092 210.372L967.001 237.649Z" fill="#1B4ED1"/>
<path d="M613.346 328.191L609.423 339.006L620.236 341.973L613.346 328.191Z" fill="#1B4ED1"/>
<path d="M1128.61 182.807L1140.58 140.407L1094.93 133.899L1128.61 182.807Z" fill="#1B4ED1"/>
<path d="M955.136 235.065L953.893 234.395L956.859 251.431L964.896 240.425L955.136 235.065Z" fill="#1B4ED1"/>
<path d="M965.471 241.286L963.27 244.253L957.337 252.484L961.26 254.973L973.7 262.725L965.471 241.286Z" fill="#1B4ED1"/>
<path d="M977.144 207.213L976.379 209.51L985.565 211.329L978.197 203.959L977.144 207.213Z" fill="#1B4ED1"/>
<path d="M945.472 262.342L969.585 263.204L972.838 263.395L956.667 253.25L945.472 262.342Z" fill="#1B4ED1"/>
<path d="M959.825 223.484L965.566 238.798L975.039 210.467L956.189 213.626L959.825 223.484Z" fill="#1B4ED1"/>
<path d="M371.453 452.997L426.855 424.763L408.387 395.38L371.453 452.997Z" fill="#1B4ED1"/>
<path d="M261.892 477.882L310.883 449.552L284.761 415.766L269.643 456.73L261.892 477.882Z" fill="#1B4ED1"/>
<path d="M310.788 450.7L262.084 478.839L297.774 490.707L310.788 450.7Z" fill="#1B4ED1"/>
<path d="M322.174 367.624L315.763 362.934L302.846 353.65L285.718 412.608L322.174 367.624Z" fill="#1B4ED1"/>
<path d="M311.458 448.69L328.872 398.73L285.335 415L311.458 448.69Z" fill="#1B4ED1"/>
<path d="M348.488 452.997L311.936 450.222L298.923 490.42L368.391 454.529L348.488 452.997Z" fill="#1B4ED1"/>
<path d="M329.734 398.921L312.223 449.265L369.156 453.667L329.734 398.921Z" fill="#1B4ED1"/>
<path d="M409.249 394.901L427.62 424.093L445.705 398.825L452.403 389.541L438.911 391.168L409.249 394.901Z" fill="#1B4ED1"/>
<path d="M370.4 452.902L407.622 394.901L360.544 387.244L370.4 452.902Z" fill="#1B4ED1"/>
<path d="M369.826 454.912L299.497 491.186L380.734 507.648L369.826 454.912Z" fill="#1B4ED1"/>
<path d="M520.244 393.466L497.662 377.29L481.491 438.832L520.244 393.466Z" fill="#1B4ED1"/>
<path d="M472.975 437.971L479.482 439.885L453.36 389.829L428.29 424.667L472.975 437.971Z" fill="#1B4ED1"/>
<path d="M301.889 353.554L277.872 360.063L253.855 366.667L273.183 396.337L284.378 413.66L301.889 353.554Z" fill="#1B4ED1"/>
<path d="M1140.38 257.844L1120.29 225.207L1108.52 206.256L1069 262.247L1140.38 257.844Z" fill="#1B4ED1"/>
<path d="M854.284 557.322L831.51 596.563L893.515 584.504L854.284 557.322Z" fill="#1B4ED1"/>
<path d="M1048.91 539.902L1059.82 535.021L1097.71 518.176L1084.22 497.886L1078.19 488.889L1048.91 539.902Z" fill="#1B4ED1"/>
<path d="M857.537 624.606L893.323 585.556L831.51 597.52L846.629 613.312L857.537 624.606Z" fill="#1B4ED1"/>
<path d="M1039.44 499.321L1077.81 487.645L1083.07 456.73L1039.44 499.321Z" fill="#1B4ED1"/>
<path d="M1108.62 204.629L1127.95 184.147L1079.53 166.919L1108.62 204.629Z" fill="#1B4ED1"/>
<path d="M200.749 537.988L200.271 508.414L199.696 470.034L175.966 497.024L195.104 528.513L200.749 537.988Z" fill="#1B4ED1"/>
<path d="M252.132 367.337L227.063 379.3L208.691 388.01L227.158 427.156L252.132 367.337Z" fill="#1B4ED1"/>
<path d="M205.246 389.159L179.889 396.911L226.01 426.964L207.83 388.297L205.246 389.159Z" fill="#1B4ED1"/>
<path d="M253.185 367.337L228.019 427.634L283.804 414.426L253.185 367.337Z" fill="#1B4ED1"/>
<path d="M447.523 481.232L370.783 454.912L379.203 495.301L381.787 507.552L447.523 481.232Z" fill="#1B4ED1"/>
<path d="M170.704 433.185L200.079 468.024L226.201 428.878L170.704 433.185Z" fill="#1B4ED1"/>
<path d="M175.488 496.163L199.218 469.172L154.915 460.463L175.488 496.163Z" fill="#1B4ED1"/>
<path d="M578.421 226.929L581.866 233.725L592.678 219.943L592.583 220.038L577.943 225.877L578.421 226.929Z" fill="#1B4ED1"/>
<path d="M402.742 295.362L392.312 311.92L410.971 315.079L402.742 295.362Z" fill="#1B4ED1"/>
<path d="M1289.37 269.999L1275.01 268.946L1289.37 288.375V269.999Z" fill="#1B4ED1"/>
<path d="M591.243 219.56L560.432 221.378L577.177 225.111L591.243 219.56Z" fill="#1B4ED1"/>
<path d="M1281.33 552.536L1282.29 558.087L1283.34 564.404L1293.29 550.526L1288.7 551.292L1281.33 552.536Z" fill="#1B4ED1"/>
<path d="M559.188 237.266L581.005 234.203L577.082 226.259L559.188 237.266Z" fill="#1B4ED1"/>
<path d="M1283.53 324.554L1313.67 331.828L1305.35 316.323L1283.53 324.554Z" fill="#1B4ED1"/>
<path d="M1302.19 316.419L1304.87 315.462L1290.04 291.055L1282.57 323.98L1302.19 316.419Z" fill="#1B4ED1"/>
<path d="M1262.48 299.095L1275.68 315.94L1281.71 323.597L1282.67 319.386L1289.18 290.481L1262.48 299.095Z" fill="#1B4ED1"/>
<path d="M1321.61 328L1306.97 317.28L1314.72 331.924L1321.61 328Z" fill="#1B4ED1"/>
<path d="M1270.71 553.685L1282.38 564.404L1280.37 552.632L1270.71 553.685Z" fill="#1B4ED1"/>
<path d="M1305.44 314.6L1311.66 297.947L1290.9 290.673L1295.97 298.999L1305.44 314.6Z" fill="#1B4ED1"/>
<path d="M576.029 225.781L557.466 221.665V237.17L567.991 230.758L576.029 225.781Z" fill="#1B4ED1"/>
<path d="M732.38 205.395L736.398 188.262L724.342 194.292L732.38 205.395Z" fill="#1B4ED1"/>
<path d="M724.725 183.285L724.151 193.335L730.275 190.272L736.303 187.21L725.108 177.064L724.725 183.285Z" fill="#1B4ED1"/>
<path d="M728.17 178.5L723.385 173.523L725.108 175.724L728.17 178.5Z" fill="#1B4ED1"/>
<path d="M733.241 205.682L747.594 199.556L737.355 188.358L734.293 201.183L733.241 205.682Z" fill="#1B4ED1"/>
<path d="M704.535 184.051L723.194 193.335L724.246 176.777L704.535 184.051Z" fill="#1B4ED1"/>
<path d="M706.927 150.265L701.76 169.79L717.166 166.728L706.927 150.265Z" fill="#1B4ED1"/>
<path d="M1293 549.665L1287.64 546.028L1282.19 551.388L1293 549.665Z" fill="#1B4ED1"/>
<path d="M1286.59 545.645L1268.12 541.817L1280.76 551.483L1286.59 545.645Z" fill="#1B4ED1"/>
<path d="M716.687 167.78L701.665 170.843L703.674 182.903L716.687 167.78Z" fill="#1B4ED1"/>
<path d="M723.959 175.82L717.931 167.876L704.918 182.903L723.959 175.82Z" fill="#1B4ED1"/>
<path d="M1266.98 542.104L1269.94 552.728L1279.61 551.771L1266.98 542.104Z" fill="#1B4ED1"/>
<path d="M1228.22 248.751L1250.9 258.61L1248.89 249.708L1244.39 249.517L1228.22 248.751Z" fill="#1B4ED1"/>
<path d="M280.455 576.464L326.959 574.454L332.317 574.263L275.097 544.018L277.872 560.672L280.455 576.464Z" fill="#1B4ED1"/>
<path d="M129.654 627.669L162.283 596.084L127.549 571.104L129.654 627.669Z" fill="#1B4ED1"/>
<path d="M168.12 652.554L165.154 622.788L162.666 597.137L130.037 628.626L144.773 637.91L168.12 652.554Z" fill="#1B4ED1"/>
<path d="M1134.07 568.52L1139.52 530.619L1090.72 560.863L1134.07 568.52Z" fill="#1B4ED1"/>
<path d="M298.062 492.526L275.097 542.965L333.178 573.593L298.062 492.526Z" fill="#1B4ED1"/>
<path d="M1095.89 532.916L1090.15 560.193L1138.95 529.757L1098.86 518.942L1095.89 532.916Z" fill="#1B4ED1"/>
<path d="M189.075 569.381L138.17 559.619L158.743 589.098L163.049 595.319L173.191 585.269L189.075 569.381Z" fill="#1B4ED1"/>
<path d="M1288.98 289.524L1274.15 269.329L1262.48 298.042L1288.98 289.524Z" fill="#1B4ED1"/>
<path d="M494.409 350.013L496.227 353.076L503.212 343.218H490.294L494.409 350.013Z" fill="#1B4ED1"/>
<path d="M321.887 366.188L322.27 366.475L318.06 332.689L303.229 352.789L321.887 366.188Z" fill="#1B4ED1"/>
<path d="M326.097 324.076H307.63L308.013 324.267L318.347 330.871L320.261 329.244L326.097 324.076Z" fill="#1B4ED1"/>
<path d="M504.265 343.313L497.088 353.459H527.708L504.265 343.313Z" fill="#1B4ED1"/>
<path d="M1248.41 284.834L1261.33 297.755L1264.49 267.893L1236.74 273.253L1248.41 284.834Z" fill="#1B4ED1"/>
<path d="M1146.89 581.824L1180.67 543.827L1135.22 569.19L1146.89 581.824Z" fill="#1B4ED1"/>
<path d="M497.758 375.663L528.473 354.416H496.705L497.28 366.284L497.758 375.663Z" fill="#1B4ED1"/>
<path d="M1273.39 268.851L1267.46 268.085L1265.45 267.798L1262.48 295.458L1273.39 268.851Z" fill="#1B4ED1"/>
<path d="M1266.5 258.418L1265.54 266.841L1273.01 267.798L1266.5 258.418Z" fill="#1B4ED1"/>
<path d="M1263.72 267.032L1251.57 259.949L1237.51 272.105L1263.72 267.032Z" fill="#1B4ED1"/>
<path d="M1140.48 530.236L1135.12 568.137L1160.57 553.876L1181.62 542.2L1140.48 530.236Z" fill="#1B4ED1"/>
<path d="M1228.7 221.665L1245.45 212.956V196.589L1224.01 224.154L1228.7 221.665Z" fill="#1B4ED1"/>
<path d="M1230.52 245.88L1227.27 247.699L1243.15 248.464L1247.94 248.751L1239.13 240.807L1230.52 245.88Z" fill="#1B4ED1"/>
<path d="M1224.68 224.919L1243.25 222.91L1245.26 214.104L1243.63 214.966L1224.68 224.919Z" fill="#1B4ED1"/>
<path d="M1223.44 225.972L1238.85 239.372L1243.06 223.962L1228.51 225.398L1223.44 225.972Z" fill="#1B4ED1"/>
<path d="M765.296 506.021L695.636 546.315L742.427 556.078L765.296 506.021Z" fill="#1B4ED1"/>
<path d="M983.938 435.195L954.467 422.083L935.042 413.469L956.763 461.229L981.928 437.109L983.938 435.195Z" fill="#1B4ED1"/>
<path d="M961.739 512.625L966.906 504.394L917.436 511.764L925.378 513.678L956.38 521.239L961.739 512.625Z" fill="#1B4ED1"/>
<path d="M967.001 502.48L956.38 463.047L916.192 510.998L967.289 503.341L967.001 502.48Z" fill="#1B4ED1"/>
<path d="M955.711 522.005L945.377 519.516L915.331 512.146L895.62 583.164L955.711 522.005Z" fill="#1B4ED1"/>
<path d="M955.711 462.473L902.126 455.869L915.235 510.615L955.711 462.473Z" fill="#1B4ED1"/>
<path d="M904.423 469.842L901.265 456.443L872.942 498.46L869.593 503.341L870.454 503.533L914.374 510.998L904.423 469.842Z" fill="#1B4ED1"/>
<path d="M999.056 399.304L1013.31 340.155L957.529 365.327L999.056 399.304Z" fill="#1B4ED1"/>
<path d="M998.578 400.74L935.712 412.703L937.722 413.66L984.512 434.43L998.578 400.74Z" fill="#1B4ED1"/>
<path d="M934.947 411.842L998.291 399.878L956.763 365.997L934.947 411.842Z" fill="#1B4ED1"/>
<path d="M970.063 310.102L952.266 317.854L1013.6 338.719L1014.65 290.577L970.063 310.102Z" fill="#1B4ED1"/>
<path d="M1000.11 399.4L1058.09 376.333L1056.09 374.611L1014.27 340.155L1000.11 399.4Z" fill="#1B4ED1"/>
<path d="M999.63 400.835L985.565 434.43L1038.57 425.816L999.63 400.835Z" fill="#1B4ED1"/>
<path d="M869.115 504.298L862.417 528.8L855.049 555.408L913.8 511.859L869.115 504.298Z" fill="#1B4ED1"/>
<path d="M577.751 391.647L585.598 389.733L576.699 372.984L577.751 391.647Z" fill="#1B4ED1"/>
<path d="M742.522 557.609L711.999 590.246L756.684 610.92L742.522 557.609Z" fill="#1B4ED1"/>
<path d="M694.105 547.272L652.673 573.401L710.468 589.672L694.105 547.272Z" fill="#1B4ED1"/>
<path d="M798.307 486.496L823.473 472.522L736.973 460.463L766.54 504.202L798.307 486.496Z" fill="#1B4ED1"/>
<path d="M741.853 556.939L695.062 547.177L711.424 589.576L741.853 556.939Z" fill="#1B4ED1"/>
<path d="M868.062 502.575L853.901 445.245L850.647 431.75L848.829 434.621L825.578 472.044L868.062 502.575Z" fill="#1B4ED1"/>
<path d="M869.019 502.575L900.787 455.486L851.509 431.463L869.019 502.575Z" fill="#1B4ED1"/>
<path d="M427.333 425.624L371.357 454.146L447.236 480.083L448.097 480.466L427.333 425.624Z" fill="#1B4ED1"/>
<path d="M886.625 411.555L851.317 403.037V429.74L878.875 415.575L886.625 411.555Z" fill="#1B4ED1"/>
<path d="M848.638 433.09L849.978 430.984L814.287 428.783L815.435 433.185L825.099 470.991L848.638 433.09Z" fill="#1B4ED1"/>
<path d="M868.254 503.915L825.865 473.479L854.092 555.025L868.254 503.915Z" fill="#1B4ED1"/>
<path d="M851.891 430.505L900.691 454.433L887.678 412.129L851.891 430.505Z" fill="#1B4ED1"/>
<path d="M631.144 418.35L646.167 373.079L609.519 394.614L631.144 418.35Z" fill="#1B4ED1"/>
<path d="M599.281 371.931L609.615 380.162L619.949 345.036L599.281 371.931Z" fill="#1B4ED1"/>
<path d="M609.328 393.657L644.062 373.175L610.38 381.406L609.328 393.657Z" fill="#1B4ED1"/>
<path d="M674.49 359.297L647.889 372.122L694.584 415.575L682.24 368.102L679.37 356.904L674.49 359.297Z" fill="#1B4ED1"/>
<path d="M632.005 418.829L694.297 416.627L664.538 388.871L647.315 372.888L632.005 418.829Z" fill="#1B4ED1"/>
<path d="M586.363 367.049L593.348 348.96L582.344 350.97L586.363 367.049Z" fill="#1B4ED1"/>
<path d="M588.468 334.986L582.536 350.013L593.539 348.003L588.468 334.986Z" fill="#1B4ED1"/>
<path d="M576.89 371.165L585.789 388.106V369.251L583.684 369.634L576.89 371.165Z" fill="#1B4ED1"/>
<path d="M586.937 368.294L598.037 371.356L594.018 350.109L586.937 368.294Z" fill="#1B4ED1"/>
<path d="M595.932 379.492L601.386 379.875L608.371 380.449L598.802 372.792L595.932 379.492Z" fill="#1B4ED1"/>
<path d="M902.318 454.912L955.806 461.516L933.99 413.469L902.318 454.912Z" fill="#1B4ED1"/>
<path d="M680.327 355.947L709.989 364.657L716.974 366.667L693.244 323.597L680.327 355.947Z" fill="#1B4ED1"/>
<path d="M809.024 366.571L850.169 401.314L845.863 357.957L809.024 366.571Z" fill="#1B4ED1"/>
<path d="M851.222 401.314L899.065 353.459L846.82 357.766L851.222 401.314Z" fill="#1B4ED1"/>
<path d="M899.543 354.32L851.7 402.175L887.582 410.789L896.672 367.719L899.543 354.32Z" fill="#1B4ED1"/>
<path d="M693.531 546.411L658.797 512.721L658.702 512.625L658.319 516.262L652.099 572.635L664.826 564.596L693.531 546.411Z" fill="#1B4ED1"/>
<path d="M888.635 411.938L901.648 454.242L933.129 412.99H932.746L888.635 411.938Z" fill="#1B4ED1"/>
<path d="M731.614 346.376L719.271 366.284L774.099 338.336L741.853 329.722L731.614 346.376Z" fill="#1B4ED1"/>
<path d="M767.114 391.551L774.769 339.102L719.079 367.528L767.114 391.551Z" fill="#1B4ED1"/>
<path d="M694.105 323.023L718.027 366.571L740.8 329.627L731.136 328.191L694.105 323.023Z" fill="#1B4ED1"/>
<path d="M819.55 331.254L808.737 365.71L845.385 357.096L819.55 331.254Z" fill="#1B4ED1"/>
<path d="M768.166 391.264L807.206 366.284L775.725 339.102L768.166 391.264Z" fill="#1B4ED1"/>
<path d="M807.78 365.518L818.593 330.967L776.491 338.528L807.78 365.518Z" fill="#1B4ED1"/>
<path d="M813.808 430.793L813.33 428.974L746.35 456.156L737.834 459.601L766.157 463.526L824.238 471.661L813.808 430.793Z" fill="#1B4ED1"/>
<path d="M630.283 420.169L589.521 436.248L606.266 447.733L613.155 452.327L630.283 420.169Z" fill="#1B4ED1"/>
<path d="M590.286 453.667L611.816 452.615L588.564 436.822L568.47 454.816L590.286 453.667Z" fill="#1B4ED1"/>
<path d="M581.196 410.502L588.66 434.908L607.701 395.667L581.196 410.502Z" fill="#1B4ED1"/>
<path d="M753.622 419.977L811.99 427.634L811.129 426.964L767.688 392.987L753.622 419.977Z" fill="#1B4ED1"/>
<path d="M684.345 484.008L734.102 460.176L665.974 455.869L674.872 469.46L684.345 484.008Z" fill="#1B4ED1"/>
<path d="M768.358 392.317L813.043 427.251L807.589 367.145L768.358 392.317Z" fill="#1B4ED1"/>
<path d="M592.774 522.196L635.259 515.018L657.075 511.381L617.27 484.773L614.59 483.051L593.539 520.856L592.774 522.196Z" fill="#1B4ED1"/>
<path d="M683.58 484.486L670.375 464.291L665.4 456.634L664.443 464.291L658.989 510.232L673.246 495.397L683.58 484.486Z" fill="#1B4ED1"/>
<path d="M664.443 456.156L615.356 482.381L636.885 496.737L657.936 510.807L664.443 456.156Z" fill="#1B4ED1"/>
<path d="M613.538 472.618L612.868 453.572L570.958 455.582L568.757 455.677L613.921 481.519L613.538 472.618Z" fill="#1B4ED1"/>
<path d="M814.095 427.443L849.978 402.367L808.641 367.432L814.095 427.443Z" fill="#1B4ED1"/>
<path d="M614.877 481.519L663.295 455.677L613.825 453.572L614.877 481.519Z" fill="#1B4ED1"/>
<path d="M850.36 430.027V403.324L846.724 405.812L815.052 427.921L850.36 430.027Z" fill="#1B4ED1"/>
<path d="M480.63 442.182L479.004 449.36L466.373 504.394L510.101 505.447L480.63 442.182Z" fill="#1B4ED1"/>
<path d="M479.482 442.661L449.532 481.232L465.608 503.724L479.482 442.661Z" fill="#1B4ED1"/>
<path d="M533.832 453.38L481.3 441.321L510.867 504.872L533.832 453.38Z" fill="#1B4ED1"/>
<path d="M473.741 448.499L479.673 440.938L428.386 425.624L434.701 442.374L449.054 480.275L473.741 448.499Z" fill="#1B4ED1"/>
<path d="M434.127 537.988L465.225 504.777L449.15 482.285L436.423 529.661L434.127 537.988Z" fill="#1B4ED1"/>
<path d="M1083.16 278.517L1068.24 263.586L1045.27 313.739L1099.81 295.267L1083.16 278.517Z" fill="#1B4ED1"/>
<path d="M534.501 454.242L522.636 480.849L511.537 505.638L559.571 515.496L534.501 454.242Z" fill="#1B4ED1"/>
<path d="M1058.29 375.185L1044.12 315.462L1014.75 339.389L1058.29 375.185Z" fill="#1B4ED1"/>
<path d="M1000.4 400.261L1039.72 425.337L1058.19 377.386L1000.4 400.261Z" fill="#1B4ED1"/>
<path d="M1012.74 471.47L1082.59 455.103L1040.11 426.677L1036.57 432.42L1012.74 471.47Z" fill="#1B4ED1"/>
<path d="M1015.99 289.907L1044.22 313.834L1067.09 263.874L1055.7 269.616L1015.99 289.907Z" fill="#1B4ED1"/>
<path d="M665.974 454.912L717.166 458.166L734.772 459.219L695.445 417.776L667.218 453.38L665.974 454.912Z" fill="#1B4ED1"/>
<path d="M586.746 388.776L594.688 379.875L586.746 370.016V388.776Z" fill="#1B4ED1"/>
<path d="M581.387 409.258L607.414 394.71L586.65 390.594L581.387 409.258Z" fill="#1B4ED1"/>
<path d="M587.224 389.733L588.085 389.924L607.414 393.753L597.654 383.129L595.262 380.545L587.224 389.733Z" fill="#1B4ED1"/>
<path d="M596.41 380.449L608.371 393.37L609.423 381.406L596.41 380.449Z" fill="#1B4ED1"/>
<path d="M987.478 197.738V210.276L997.047 192.952L987.478 197.738Z" fill="#1B4ED1"/>
<path d="M580.718 408.205L585.598 390.69L577.847 392.604L580.718 408.205Z" fill="#1B4ED1"/>
<path d="M606.744 564.787L656.979 512.338L592.487 523.249L599.568 543.731L606.744 564.787Z" fill="#1B4ED1"/>
<path d="M591.626 522.292L613.059 483.72L561.676 515.879L591.147 522.196L591.626 522.292Z" fill="#1B4ED1"/>
<path d="M567.322 449.743L567.513 454.337L569.522 452.519L587.798 436.248L565.408 419.212L567.322 449.743Z" fill="#1B4ED1"/>
<path d="M561.006 515.209L613.442 482.381L590.478 469.268L567.513 456.06L561.006 515.209Z" fill="#1B4ED1"/>
<path d="M587.607 434.908L580.335 410.981L565.791 418.255L587.607 434.908Z" fill="#1B4ED1"/>
<path d="M683.867 485.635L658.989 511.572L693.627 545.167L683.867 485.635Z" fill="#1B4ED1"/>
<path d="M608.945 395.38L589.521 435.291L630.474 419.116L619.662 407.248L608.945 395.38Z" fill="#1B4ED1"/>
<path d="M752.187 420.839L696.593 417.585L735.824 458.931L747.402 432.037L752.187 420.839Z" fill="#1B4ED1"/>
<path d="M765.104 505.064L684.824 485.252L694.68 545.741L765.104 505.064Z" fill="#1B4ED1"/>
<path d="M719.366 368.677L752.857 419.499L766.827 392.508L719.366 368.677Z" fill="#1B4ED1"/>
<path d="M739.652 466.11L735.824 460.463L685.589 484.486L765.296 504.107L739.652 466.11Z" fill="#1B4ED1"/>
<path d="M811.799 428.496L753.144 420.934L736.877 458.931L811.799 428.496Z" fill="#1B4ED1"/>
<path d="M619.088 443.235L614.112 452.615L663.869 454.816L639.852 429.07L631.431 420.073L619.088 443.235Z" fill="#1B4ED1"/>
<path d="M696.21 416.627L751.613 419.882H751.9L739.173 400.452L718.027 368.485L696.21 416.627Z" fill="#1B4ED1"/>
<path d="M665.017 454.625L694.392 417.585L632.388 419.69L665.017 454.625Z" fill="#1B4ED1"/>
<path d="M695.541 415.575L707.788 388.68L717.261 367.815L680.327 356.904L695.541 415.575Z" fill="#1B4ED1"/>
<path d="M657.649 513.008L607.51 565.361L651.142 573.018L657.649 513.008Z" fill="#1B4ED1"/>
<path d="M269.26 289.237L268.303 305.508L275.958 290.194L269.26 289.237Z" fill="#1B4ED1"/>
<path d="M664.06 743L685.685 732.663L654.779 730.558L664.06 743Z" fill="#1B4ED1"/>
<path d="M626.838 711.224L634.971 729.601H652.291L633.441 716.01L626.838 711.224Z" fill="#1B4ED1"/>
<path d="M654.204 690.168L645.401 691.029L647.219 698.878L654.109 729.026L689.8 686.722L654.204 690.168Z" fill="#1B4ED1"/>
<path d="M720.323 709.501L737.93 712.66L745.202 691.891L720.323 709.501Z" fill="#1B4ED1"/>
<path d="M966.523 239.85L1013.98 241.956L987 212.86L985.852 214.391L966.523 239.85Z" fill="#1B4ED1"/>
<path d="M641.478 734.003L651.047 730.558H636.215L641.478 734.003Z" fill="#1B4ED1"/>
<path d="M644.54 691.603L626.36 709.693L653.056 728.931L650.855 719.455L644.54 691.603Z" fill="#1B4ED1"/>
<path d="M729.318 717.062L736.686 713.425L720.897 710.554L729.318 717.062Z" fill="#1B4ED1"/>
<path d="M81.5244 590.246L83.3424 614.078L85.9259 601.731L81.5244 590.246Z" fill="#1B4ED1"/>
<path d="M691.331 687.679L688.173 731.228L708.363 715.34L699.272 700.505L691.331 687.679Z" fill="#1B4ED1"/>
<path d="M654.779 729.601L687.12 731.802L690.374 687.584L654.779 729.601Z" fill="#1B4ED1"/>
<path d="M692.957 688.445L709.128 714.765L718.218 709.693L705.875 699.356L692.957 688.445Z" fill="#1B4ED1"/>
<path d="M593.348 669.303L590.19 698.208L624.35 708.831L593.348 669.303Z" fill="#1B4ED1"/>
<path d="M556.509 631.306L558.423 619.342L547.323 634.752L545.601 637.24H555.457L556.509 631.306Z" fill="#1B4ED1"/>
<path d="M525.315 591.682L500.15 606.421L507.518 624.223L512.206 615.705L525.315 591.682Z" fill="#1B4ED1"/>
<path d="M557.849 618.672L543.209 625.276L523.785 634.082L544.357 637.24L551.438 627.382L557.849 618.672Z" fill="#1B4ED1"/>
<path d="M525.89 592.735L522.158 599.434L508.092 625.18L521.679 633.507L525.89 592.735Z" fill="#1B4ED1"/>
<path d="M508.953 626.808L518.617 642.313L521.488 634.56L508.953 626.808Z" fill="#1B4ED1"/>
<path d="M522.445 634.847L521.488 637.24L519.479 642.695L541.965 637.814L522.828 634.943L522.445 634.847Z" fill="#1B4ED1"/>
<path d="M578.708 704.524L588.947 698.399L570.479 677.917L578.708 704.524Z" fill="#1B4ED1"/>
<path d="M570.192 676.194L589.329 697.442L589.712 693.805L592.487 668.824L570.192 676.194Z" fill="#1B4ED1"/>
<path d="M556.509 637.91L566.173 659.349L600.333 617.619L556.509 637.91Z" fill="#1B4ED1"/>
<path d="M582.823 665.666L566.652 660.88L569.714 675.333L591.434 668.154L582.823 665.666Z" fill="#1B4ED1"/>
<path d="M556.222 639.537L555.265 649.874L564.642 658.392L559.475 646.907L556.222 639.537Z" fill="#1B4ED1"/>
<path d="M598.898 708.161L622.054 709.119L591.147 699.452L598.898 708.161Z" fill="#1B4ED1"/>
<path d="M855.24 676.098L877.248 691.795L888.826 700.026L907.294 657.722L855.24 676.098Z" fill="#1B4ED1"/>
<path d="M906.624 661.838L889.783 700.313H897.725L906.624 661.838Z" fill="#1B4ED1"/>
<path d="M868.349 698.112L869.115 699.165L887.487 700.217L855.815 677.725L868.349 698.112Z" fill="#1B4ED1"/>
<path d="M897.821 701.27H891.027L903.849 708.161L901.744 705.673L897.821 701.27Z" fill="#1B4ED1"/>
<path d="M838.017 705.003L851.509 709.119L853.518 678.013L838.017 705.003Z" fill="#1B4ED1"/>
<path d="M854.571 677.534L852.466 708.927L868.158 699.452L855.049 678.395L854.571 677.534Z" fill="#1B4ED1"/>
<path d="M945.759 691.699L946.716 694.283L955.806 686.244L940.592 677.056L945.759 691.699Z" fill="#1B4ED1"/>
<path d="M956.572 685.574L968.82 673.227L941.166 676.29L956.572 685.574Z" fill="#1B4ED1"/>
<path d="M899.926 702.132L906.145 709.31L928.344 708.353L899.447 701.557L899.926 702.132Z" fill="#1B4ED1"/>
<path d="M899.352 700.6L931.502 708.066L938.966 676.96L899.352 700.6Z" fill="#1B4ED1"/>
<path d="M932.65 707.204L945.951 695.049L939.827 677.725L932.65 707.204Z" fill="#1B4ED1"/>
<path d="M779.744 654.372L747.402 689.976L790.461 683.468L783.667 664.996L779.744 654.372Z" fill="#1B4ED1"/>
<path d="M774.864 720.317L773.046 725.294L784.911 716.393L780.988 703.376L774.864 720.317Z" fill="#1B4ED1"/>
<path d="M738.791 713.043L746.733 722.997L745.68 693.231L738.791 713.043Z" fill="#1B4ED1"/>
<path d="M840.122 681.362L822.324 687.488L837.251 704.429L853.135 676.864L840.122 681.362Z" fill="#1B4ED1"/>
<path d="M764.53 713.425L748.646 724.049L771.707 726.155L780.031 703.089L764.53 713.425Z" fill="#1B4ED1"/>
<path d="M779.936 702.036L776.204 700.887L746.637 691.316L747.69 723.571L762.616 713.521L779.936 702.036Z" fill="#1B4ED1"/>
<path d="M780.797 701.366L790.27 684.521L748.168 690.838L780.797 701.366Z" fill="#1B4ED1"/>
<path d="M780.51 653.894L783.093 660.785L791.322 682.894L820.315 646.332L780.51 653.894Z" fill="#1B4ED1"/>
<path d="M979.536 637.91L941.071 675.333L969.776 672.174L982.503 634.943L979.536 637.91Z" fill="#1B4ED1"/>
<path d="M829.884 598.094L765.487 636.283L821.176 645.088L827.97 608.335L829.884 598.094Z" fill="#1B4ED1"/>
<path d="M791.896 683.66L805.484 688.924L820.124 648.151L791.896 683.66Z" fill="#1B4ED1"/>
<path d="M821.081 686.818V648.342L806.536 688.924L821.081 686.818Z" fill="#1B4ED1"/>
<path d="M825.674 650.161L822.037 646.715V686.627L853.231 675.811L825.674 650.161Z" fill="#1B4ED1"/>
<path d="M197.496 580.005L207.064 595.414L220.652 587.088L191.467 570.434L197.496 580.005Z" fill="#1B4ED1"/>
<path d="M165.154 596.563L214.049 619.916L206.586 596.563H165.154Z" fill="#1B4ED1"/>
<path d="M190.415 647.577L210.987 650.639L213.092 635.23L200.558 642.026L190.415 647.577Z" fill="#1B4ED1"/>
<path d="M213.188 634.082L214.241 622.118L191.372 645.95L213.188 634.082Z" fill="#1B4ED1"/>
<path d="M213.954 620.969L164.101 597.137L189.075 647.002L213.954 620.969Z" fill="#1B4ED1"/>
<path d="M163.719 598.573L169.077 652.841L188.214 647.577L163.719 598.573Z" fill="#1B4ED1"/>
<path d="M237.779 533.586V574.741L273.47 543.348L237.779 533.586Z" fill="#1B4ED1"/>
<path d="M202.663 541.817L221.8 586.322L236.535 575.698L202.663 541.817Z" fill="#1B4ED1"/>
<path d="M237.971 576.368L242.085 589.768L263.71 579.431L257.969 578.761L237.971 576.368Z" fill="#1B4ED1"/>
<path d="M151.088 673.897L168.12 669.973V654.372L135.97 677.247L151.088 673.897Z" fill="#1B4ED1"/>
<path d="M236.823 574.645V533.586L202.28 540.094L236.823 574.645Z" fill="#1B4ED1"/>
<path d="M227.732 473.862L201.132 469.46L237.205 531.958L260.266 479.318L227.732 473.862Z" fill="#1B4ED1"/>
<path d="M128.315 630.349L114.249 644.323L111.761 646.811L119.033 664.422L120.947 657.435L128.315 630.349Z" fill="#1B4ED1"/>
<path d="M497.854 623.745L506.752 624.798L499.863 608.048L497.854 623.745Z" fill="#1B4ED1"/>
<path d="M110.804 647.002L105.063 642.6L103.149 641.068L116.832 661.55L115.78 658.966L110.804 647.002Z" fill="#1B4ED1"/>
<path d="M95.1118 627.86L92.6239 625.85L86.7871 621.065L98.8435 635.422L95.1118 627.86Z" fill="#1B4ED1"/>
<path d="M86.5957 603.454L84.2993 614.174L83.6295 617.237L94.442 626.138L86.5957 603.454Z" fill="#1B4ED1"/>
<path d="M143.529 683.085L158.264 691.125L167.833 671.026L135.108 678.395L143.529 683.085Z" fill="#1B4ED1"/>
<path d="M238.449 575.411L243.329 576.081L265.05 578.665L273.662 544.497L238.449 575.411Z" fill="#1B4ED1"/>
<path d="M157.595 692.273L138.84 693.326L144.103 713.138L153.863 698.016L157.595 692.273Z" fill="#1B4ED1"/>
<path d="M158.073 711.607V693.422L144.868 713.617L158.073 711.607Z" fill="#1B4ED1"/>
<path d="M166.302 654.564L120.181 666.145L133.769 677.63L139.606 673.514L166.302 654.564Z" fill="#1B4ED1"/>
<path d="M159.795 648.438L129.559 629.487L119.799 665.187L167.45 653.319L159.795 648.438Z" fill="#1B4ED1"/>
<path d="M134.534 679.257L138.553 692.369L156.829 691.412L134.534 679.257Z" fill="#1B4ED1"/>
<path d="M93.0067 629.966L108.508 650.735L100.757 639.154L93.0067 629.966Z" fill="#1B4ED1"/>
<path d="M432.022 542.487L399.01 593.596L417.095 601.061L432.022 542.487Z" fill="#1B4ED1"/>
<path d="M369.826 558.087L398.245 593.022L432.117 540.572L369.826 558.087Z" fill="#1B4ED1"/>
<path d="M387.145 610.728L397.671 593.883L370.304 560.097L387.145 610.728Z" fill="#1B4ED1"/>
<path d="M432.979 542.582L418.052 601.253H438.241L434.605 560.576L432.979 542.582Z" fill="#1B4ED1"/>
<path d="M335.092 574.741L386.093 610.633L368.773 558.47L335.092 574.741Z" fill="#1B4ED1"/>
<path d="M485.223 569.094L433.744 540.572L434.892 553.589L439.198 600.87L485.223 569.094Z" fill="#1B4ED1"/>
<path d="M525.603 590.438L510.867 582.685L486.945 570.051L499.863 605.464L525.603 590.438Z" fill="#1B4ED1"/>
<path d="M486.276 571.104L483.214 596.946L498.715 605.177L495.653 596.659L486.276 571.104Z" fill="#1B4ED1"/>
<path d="M440.251 601.253L467.808 602.306L484.745 570.53L440.251 601.253Z" fill="#1B4ED1"/>
<path d="M341.599 599.721L350.21 630.253L386.093 611.781L334.901 575.794L341.599 599.721Z" fill="#1B4ED1"/>
<path d="M469.052 601.923L482.257 596.85L485.319 571.487L469.052 601.923Z" fill="#1B4ED1"/>
<path d="M332.413 576.081L298.731 592.926L306.099 609.771L307.917 607.474L332.413 576.081Z" fill="#1B4ED1"/>
<path d="M279.498 576.56L274.331 545.454L266.102 578.57L269.26 578.091L279.498 576.56Z" fill="#1B4ED1"/>
<path d="M331.934 575.22L281.316 577.325L298.157 592.065L321.983 580.197L331.934 575.22Z" fill="#1B4ED1"/>
<path d="M279.786 577.421L269.93 578.952L267.059 579.431L283.709 587.183L281.699 582.302L279.786 577.421Z" fill="#1B4ED1"/>
<path d="M282.656 582.111L284.953 587.758L295.956 591.49L281.316 578.57L282.656 582.111Z" fill="#1B4ED1"/>
<path d="M315.189 599.626L306.673 610.633L320.356 622.213L332.987 576.847L315.189 599.626Z" fill="#1B4ED1"/>
<path d="M333.848 577.517L321.218 622.692L337.006 625.85L336.623 620.778L333.848 577.517Z" fill="#1B4ED1"/>
<path d="M372.888 627.382L374.419 627.095L385.327 613.217L352.602 630.157L372.888 627.382Z" fill="#1B4ED1"/>
<path d="M372.888 628.339L350.689 631.306L356.717 640.398L371.644 629.2L372.888 628.339Z" fill="#1B4ED1"/>
<path d="M357.77 640.877L377.385 644.993L374.323 628.435L357.77 640.877Z" fill="#1B4ED1"/>
<path d="M340.163 597.903L334.901 579.24L335.57 589.768L337.963 626.138L349.158 630.157L340.163 597.903Z" fill="#1B4ED1"/>
<path d="M340.259 627.956L354.612 638.963L349.541 631.402L340.259 627.956Z" fill="#1B4ED1"/>
<path d="M744.723 691.029L739.269 690.551L692.383 686.722L719.079 709.214L721.854 707.204L744.723 691.029Z" fill="#1B4ED1"/>
<path d="M1106.89 512.434L1099.53 518.176L1139.24 528.896L1124.21 498.843L1106.89 512.434Z" fill="#1B4ED1"/>
<path d="M1086.13 453.189L1092.25 449.169L1129.48 424.667L1127.37 402.462L1086.13 453.189Z" fill="#1B4ED1"/>
<path d="M1127.37 400.644L1133.88 379.205L1062.02 377.099L1127.37 400.644Z" fill="#1B4ED1"/>
<path d="M1134.55 378.152L1150.34 367.528L1095.41 343.218L1134.55 378.152Z" fill="#1B4ED1"/>
<path d="M1123.93 497.503L1124.98 475.107L1080.1 487.932L1123.93 497.503Z" fill="#1B4ED1"/>
<path d="M1124.6 473.575L1124.98 473.767L1126.13 450.222L1085.56 455.582L1124.6 473.575Z" fill="#1B4ED1"/>
<path d="M1123.54 449.648L1126.13 449.265L1129.38 425.911L1085.84 454.529L1123.54 449.648Z" fill="#1B4ED1"/>
<path d="M1182.2 306.178L1144.12 310.389L1183.73 328.574L1193.39 305.029L1182.2 306.178Z" fill="#1B4ED1"/>
<path d="M1158.56 329.435L1166.12 338.719L1182.96 329.244L1144.02 311.346L1158.56 329.435Z" fill="#1B4ED1"/>
<path d="M1154.07 363.412L1164.4 350.396L1165.26 341.782L1155.12 361.211L1154.07 363.412Z" fill="#1B4ED1"/>
<path d="M1236.84 490.133L1217.22 479.796L1219.33 496.354L1236.84 490.133Z" fill="#1B4ED1"/>
<path d="M1093.79 341.495L1150.72 366.667L1142.01 310.867L1093.79 341.495Z" fill="#1B4ED1"/>
<path d="M1208.42 468.407L1191.38 457.4L1193.39 469.46L1205.74 468.598L1208.42 468.407Z" fill="#1B4ED1"/>
<path d="M1209.18 469.364L1193.78 470.417L1202.01 486.783L1209.18 469.364Z" fill="#1B4ED1"/>
<path d="M1187.46 336.996L1200 311.92L1184.59 329.34L1187.46 336.996Z" fill="#1B4ED1"/>
<path d="M1203.35 492.909L1201.62 488.315L1193.68 482.668L1204.02 494.631L1203.35 492.909Z" fill="#1B4ED1"/>
<path d="M1208.61 483.338L1215.98 478.839L1209.95 469.842L1209.66 470.608L1203.06 486.783L1208.61 483.338Z" fill="#1B4ED1"/>
<path d="M1218.27 496.163L1216.26 479.796L1202.96 487.932L1218.27 496.163Z" fill="#1B4ED1"/>
<path d="M1142.68 529.853L1182.01 541.242L1162.49 499.034L1140.86 529.374L1142.68 529.853Z" fill="#1B4ED1"/>
<path d="M1149.67 500.757L1137.8 491.952L1125.94 497.79L1149.67 500.757Z" fill="#1B4ED1"/>
<path d="M1161.44 498.938L1151.68 501.905L1142.01 526.12L1161.44 498.938Z" fill="#1B4ED1"/>
<path d="M1140.1 528.417L1143.16 520.569L1150.72 501.905L1139.14 500.47L1125.17 498.651L1131.96 512.242L1140.1 528.417Z" fill="#1B4ED1"/>
<path d="M1204.4 496.546L1190.62 480.753L1164.31 497.599L1204.4 496.546Z" fill="#1B4ED1"/>
<path d="M1188.13 481.136L1162.01 487.166L1162.97 497.311L1188.13 481.136Z" fill="#1B4ED1"/>
<path d="M1143.06 311.729L1151.58 365.997L1160.48 348.864L1165.45 339.389L1159.43 332.019L1143.06 311.729Z" fill="#1B4ED1"/>
<path d="M1263.63 344.845L1283.63 354.32L1281.52 325.798L1263.63 344.845Z" fill="#1B4ED1"/>
<path d="M1280.66 325.415L1248.13 330.68L1262.77 344.27L1265.54 341.399L1280.66 325.415Z" fill="#1B4ED1"/>
<path d="M1282.48 325.32L1284.58 354.224L1313.48 332.785L1282.48 325.32Z" fill="#1B4ED1"/>
<path d="M1259.13 299.191L1257.41 299.095L1240.57 298.138L1235.69 306.943L1255.88 300.244L1259.13 299.191Z" fill="#1B4ED1"/>
<path d="M1260.76 299.574L1235.3 308.092L1246.98 329.244L1260.76 299.574Z" fill="#1B4ED1"/>
<path d="M1281.04 324.363L1279.61 322.544L1261.81 299.669L1248.03 329.435L1247.84 329.722L1262.86 327.33L1281.04 324.363Z" fill="#1B4ED1"/>
<path d="M1319.7 375.089L1333 379.205L1325.82 354.511L1319.7 375.089Z" fill="#1B4ED1"/>
<path d="M1201.24 309.049L1194.35 305.125L1185.55 326.755L1201.24 309.049Z" fill="#1B4ED1"/>
<path d="M1295.59 361.977L1318.84 374.706L1319.32 372.984L1325.15 353.554L1295.59 361.977Z" fill="#1B4ED1"/>
<path d="M1314.53 333.455L1295.49 361.02L1325.15 352.597L1314.53 333.455Z" fill="#1B4ED1"/>
<path d="M1285.06 355.086L1294.15 361.211L1312.52 334.699L1285.06 355.086Z" fill="#1B4ED1"/>
<path d="M1191.67 242.339L1209.28 249.613L1206.22 229.896L1205.64 230.375L1191.67 242.339Z" fill="#1B4ED1"/>
<path d="M1161.44 227.887L1180.57 266.075L1190.14 242.722L1186.31 240.712L1161.44 227.887Z" fill="#1B4ED1"/>
<path d="M1161.72 226.929L1190.43 241.86L1197.89 217.263L1161.72 226.929Z" fill="#1B4ED1"/>
<path d="M1193.39 304.072L1184.88 284.834L1144.4 309.336L1193.39 304.072Z" fill="#1B4ED1"/>
<path d="M1144.12 259.471L1184.4 283.207L1180.19 267.702L1144.12 259.471Z" fill="#1B4ED1"/>
<path d="M1260.47 298.234L1236.55 274.306L1240.66 297.181L1260.47 298.234Z" fill="#1B4ED1"/>
<path d="M1222.96 226.834L1226.02 247.411L1238.37 240.137L1222.96 226.834Z" fill="#1B4ED1"/>
<path d="M1226.5 249.039L1235.97 272.105L1250.61 259.567L1226.5 249.039Z" fill="#1B4ED1"/>
<path d="M1244.78 195.824L1202.96 201.183L1211 211.137L1222.29 224.824L1244.78 195.824Z" fill="#1B4ED1"/>
<path d="M1191.67 241.095L1205.93 228.939L1198.75 217.741L1191.67 241.095Z" fill="#1B4ED1"/>
<path d="M1199.23 216.306L1220.76 224.537L1202.29 201.949L1199.23 216.306Z" fill="#1B4ED1"/>
<path d="M1048.62 541.817L1062.69 580.675L1088.52 561.246L1048.62 541.817Z" fill="#1B4ED1"/>
<path d="M1162.68 628.052L1172.73 621.065L1150.62 615.992L1162.68 628.052Z" fill="#1B4ED1"/>
<path d="M1147.37 583.546L1149.57 614.557L1179.52 607.091L1147.37 583.546Z" fill="#1B4ED1"/>
<path d="M1235.4 510.615L1237.51 490.899L1219.8 497.12L1235.4 510.615Z" fill="#1B4ED1"/>
<path d="M1129.67 613.599L1148.61 614.652L1146.51 584.121L1129.67 613.599Z" fill="#1B4ED1"/>
<path d="M1105.36 616.949L1126.7 613.887L1095.22 603.741L1105.36 616.949Z" fill="#1B4ED1"/>
<path d="M1094.93 602.593L1128.42 613.408L1133.88 570.147L1094.93 602.593Z" fill="#1B4ED1"/>
<path d="M1173.59 620.299L1179.71 608.048L1151.2 615.131L1173.59 620.299Z" fill="#1B4ED1"/>
<path d="M1216.93 496.45L1202.87 488.985L1205.55 496.067L1205.74 496.45H1216.93Z" fill="#1B4ED1"/>
<path d="M1089.96 561.724L1091.68 577.708L1094.36 601.923L1133.4 569.286L1089.96 561.724Z" fill="#1B4ED1"/>
<path d="M1209.09 507.552L1205.07 497.503L1166.6 498.46L1209.09 507.552Z" fill="#1B4ED1"/>
<path d="M1182.49 543.157L1147.75 582.302L1187.94 593.117L1187.17 585.748L1182.49 543.157Z" fill="#1B4ED1"/>
<path d="M1149.19 583.642L1180.48 606.613L1187.75 594.075L1149.19 583.642Z" fill="#1B4ED1"/>
<path d="M1005.85 538.084L1023.46 568.137L1031.97 582.589L1047.09 541.338L1005.85 538.084Z" fill="#1B4ED1"/>
<path d="M984.608 632.837L1015.61 634.943L1007.09 607.187L984.608 632.837Z" fill="#1B4ED1"/>
<path d="M978.771 580.005L992.454 583.642L1015.61 589.768L1004.8 538.754L978.771 580.005Z" fill="#1B4ED1"/>
<path d="M979.823 581.249L999.439 598.573L1007.19 605.464L1015.51 590.725L1014.17 590.342L979.823 581.249Z" fill="#1B4ED1"/>
<path d="M984.799 633.794L996.76 646.62L1012.55 663.656L1015.71 635.9L984.799 633.794Z" fill="#1B4ED1"/>
<path d="M984.321 634.847L988.531 671.983L1012.07 664.517L984.225 634.656L984.321 634.847Z" fill="#1B4ED1"/>
<path d="M970.829 672.174H987.574L983.364 635.422L970.829 672.174Z" fill="#1B4ED1"/>
<path d="M1088.52 564.117L1076.56 588.045L1093.31 601.731L1089.1 562.873L1088.52 564.117Z" fill="#1B4ED1"/>
<path d="M1088.14 562.777L1063.36 581.345L1075.7 587.566L1078.09 582.781L1088.14 562.777Z" fill="#1B4ED1"/>
<path d="M1182.96 541.147L1208.99 508.509L1190.14 504.49L1163.44 498.747L1182.96 541.147Z" fill="#1B4ED1"/>
<path d="M1016.66 589.768L1031.3 583.451L1006.14 540.285L1016.66 589.768Z" fill="#1B4ED1"/>
<path d="M1047.76 542.295L1032.74 583.164L1061.73 580.962L1047.76 542.295Z" fill="#1B4ED1"/>
<path d="M1134.83 570.147L1129.57 611.781L1146.22 582.589L1134.83 570.147Z" fill="#1B4ED1"/>
<path d="M1237.51 577.708L1235.4 552.058L1190.43 592.639L1237.51 577.708Z" fill="#1B4ED1"/>
<path d="M1247.46 605.56L1237.89 578.952L1219.8 599.147L1247.46 605.56Z" fill="#1B4ED1"/>
<path d="M1226.69 644.801L1246.6 638.484L1247.65 608.144L1237.51 625.755L1226.69 644.801Z" fill="#1B4ED1"/>
<path d="M1219.52 600.104L1225.93 644.131L1247.46 606.517L1233.58 603.359L1219.52 600.104Z" fill="#1B4ED1"/>
<path d="M1234.83 550.335L1222.1 530.236L1184.88 541.912L1234.83 550.335Z" fill="#1B4ED1"/>
<path d="M1210.04 507.265L1217.89 497.407H1206.12L1210.04 507.265Z" fill="#1B4ED1"/>
<path d="M1241.05 512.146L1252.82 514.348L1246.4 504.202L1238.37 491.664L1236.26 511.189L1241.05 512.146Z" fill="#1B4ED1"/>
<path d="M1253.96 514.348L1262 509.275L1239.9 492.239L1242.96 497.12L1253.96 514.348Z" fill="#1B4ED1"/>
<path d="M1184.21 541.051L1204.59 534.638L1221.53 529.374L1209.85 509.084L1184.21 541.051Z" fill="#1B4ED1"/>
<path d="M1232.91 651.022L1244.39 660.402L1246.5 639.537L1226.6 645.758L1232.91 651.022Z" fill="#1B4ED1"/>
<path d="M1253.29 529.566V515.401L1237.12 512.338L1253.29 529.566Z" fill="#1B4ED1"/>
<path d="M1225.83 591.012L1236.55 579.048L1190.43 593.692L1201.81 595.797L1218.75 598.956L1225.83 591.012Z" fill="#1B4ED1"/>
<path d="M1224.49 645.088L1202.87 624.606L1208.03 645.088H1224.49Z" fill="#1B4ED1"/>
<path d="M1218.56 600.679L1202.68 622.979L1224.97 644.323L1218.56 600.679Z" fill="#1B4ED1"/>
<path d="M1198.08 608.718L1202.2 622.022L1217.51 600.487L1198.08 608.718Z" fill="#1B4ED1"/>
<path d="M1222.96 673.131L1234.44 684.234L1244.11 661.742L1207.84 658.583L1222.96 673.131Z" fill="#1B4ED1"/>
<path d="M1183.44 542.582L1188.9 592.83L1234.73 551.292L1183.44 542.582Z" fill="#1B4ED1"/>
<path d="M1189.47 594.457L1197.7 607.857L1217.22 599.626L1189.47 594.457Z" fill="#1B4ED1"/>
<path d="M1206.89 684.425L1207.46 684.808L1214.45 690.072L1231.57 685.382L1206.89 684.425Z" fill="#1B4ED1"/>
<path d="M1205.93 683.468L1233.39 684.521L1206.98 659.062L1205.93 683.468Z" fill="#1B4ED1"/>
<path d="M1206.89 708.64L1213.78 690.838L1205.93 684.904L1206.89 708.64Z" fill="#1B4ED1"/>
<path d="M1217.79 658.488L1243.25 660.785L1238.37 656.669L1225.64 646.237L1207.94 657.626L1217.79 658.488Z" fill="#1B4ED1"/>
<path d="M1208.03 646.045L1207.08 657.052L1224.01 646.045H1208.03Z" fill="#1B4ED1"/>
<path d="M641.287 689.689L594.592 669.303L625.69 709.023L643.966 690.838L641.287 689.689Z" fill="#1B4ED1"/>
<path d="M589.329 331.924L593.635 326.851L591.913 319.099L589.329 331.924Z" fill="#1B4ED1"/>
<path d="M606.84 338.336L603.395 335.369L594.209 327.617L589.329 333.455L606.84 338.336Z" fill="#1B4ED1"/>
<path d="M591.052 316.323L580.622 296.415L569.044 315.27L580.048 315.749L591.052 316.323Z" fill="#1B4ED1"/>
<path d="M622.341 322.831L607.031 321.874L613.346 326.373L622.341 322.831Z" fill="#1B4ED1"/>
<path d="M605.022 322.066L594.975 327.043L608.084 338.145L605.022 322.066Z" fill="#1B4ED1"/>
<path d="M612.677 327.138L606.074 322.448L608.945 337.571L612.677 327.138Z" fill="#1B4ED1"/>
<path d="M591.626 315.366L593.635 303.593L581.866 296.702L584.832 302.349L591.626 315.366Z" fill="#1B4ED1"/>
<path d="M563.303 349.439L567.322 339.198L547.419 348.577L554.787 370.591L563.303 349.439Z" fill="#1B4ED1"/>
<path d="M553.83 324.458L547.61 347.429L567.417 338.049L553.83 324.458Z" fill="#1B4ED1"/>
<path d="M587.511 333.455L568.757 316.801V337.571L572.393 336.805L587.511 333.455Z" fill="#1B4ED1"/>
<path d="M555.839 370.495L581.005 350.587L568.47 339.006L561.006 357.67L555.839 370.495Z" fill="#1B4ED1"/>
<path d="M567.8 316.514L554.404 323.693L567.8 337.092V316.514Z" fill="#1B4ED1"/>
<path d="M554.787 372.696L548.854 378.63L574.594 390.499L554.787 372.696Z" fill="#1B4ED1"/>
<path d="M686.546 266.936L674.872 284.834L705.492 286.94L686.546 266.936Z" fill="#1B4ED1"/>
<path d="M613.921 327.234L620.906 341.208L623.968 323.214L613.921 327.234Z" fill="#1B4ED1"/>
<path d="M705.109 253.537L687.216 266.266L706.162 286.27L705.109 253.537Z" fill="#1B4ED1"/>
<path d="M674.968 292.587L654.97 297.851L691.809 321.013L674.968 292.587Z" fill="#1B4ED1"/>
<path d="M721.759 255.26L706.066 253.154L707.119 285.6L721.759 255.26Z" fill="#1B4ED1"/>
<path d="M702.143 287.706L674.681 285.791L675.638 291.534L702.143 287.706Z" fill="#1B4ED1"/>
<path d="M644.731 333.647L624.924 323.214L621.767 341.973L644.731 333.647Z" fill="#1B4ED1"/>
<path d="M692 322.257L687.312 319.29L654.109 298.425L646.549 333.072L692 322.257Z" fill="#1B4ED1"/>
<path d="M644.731 332.498L636.885 318.907L636.694 318.524L625.69 322.544L635.067 327.425L644.731 332.498Z" fill="#1B4ED1"/>
<path d="M652.673 298.234L640.713 299.286L637.746 316.227L650.473 300.914L652.673 298.234Z" fill="#1B4ED1"/>
<path d="M645.688 332.402L652.96 299.478L637.459 318.046L641.765 325.415L645.688 332.402Z" fill="#1B4ED1"/>
<path d="M735.25 292.587L722.428 256.121L707.406 287.227L735.25 292.587Z" fill="#1B4ED1"/>
<path d="M477.664 275.742L479.673 295.554L496.323 279.953L477.664 275.742Z" fill="#1B4ED1"/>
<path d="M496.801 280.814L480.056 296.511L495.749 309.145L496.801 280.814Z" fill="#1B4ED1"/>
<path d="M513.355 263.491L505.126 251.144L491.825 265.596L492.495 265.501L513.355 263.491Z" fill="#1B4ED1"/>
<path d="M512.876 264.544L491.347 266.554L497.471 278.9L512.876 264.544Z" fill="#1B4ED1"/>
<path d="M496.227 312.207L490.007 342.26H503.499L496.227 312.207Z" fill="#1B4ED1"/>
<path d="M562.92 405.334L548.184 380.066L542.922 406.386L562.92 405.334Z" fill="#1B4ED1"/>
<path d="M474.985 342.739L468.191 338.815L447.619 358.34L474.985 342.739Z" fill="#1B4ED1"/>
<path d="M494.887 352.693L489.146 343.218H477.76L494.887 352.693Z" fill="#1B4ED1"/>
<path d="M445.513 359.01L466.851 338.719H452.69L445.513 359.01Z" fill="#1B4ED1"/>
<path d="M495.749 354.224L477.951 344.366L477.377 344.079L496.801 374.706L495.749 354.224Z" fill="#1B4ED1"/>
<path d="M454.317 388.106L496.61 376.238L480.343 350.492L476.037 343.696L471.731 352.406L454.317 388.106Z" fill="#1B4ED1"/>
<path d="M490.39 266.841L478.238 274.976L496.418 278.996L490.39 266.841Z" fill="#1B4ED1"/>
<path d="M528.473 352.789L514.12 334.412L504.934 342.548L528.473 352.789Z" fill="#1B4ED1"/>
<path d="M514.407 263.204L531.822 251.91L506.178 250.953L513.929 262.629L514.407 263.204Z" fill="#1B4ED1"/>
<path d="M503.786 380.545L520.627 392.604L527.038 364.561L529.239 355.086L498.141 376.525L503.786 380.545Z" fill="#1B4ED1"/>
<path d="M521.966 393.466L542.061 406.099L547.323 379.683L546.175 380.257L521.966 393.466Z" fill="#1B4ED1"/>
<path d="M521.679 392.508L547.323 378.63L530.195 355.086L529.047 360.254L521.679 392.508Z" fill="#1B4ED1"/>
<path d="M513.546 333.647L497.184 312.207L504.36 341.878L513.546 333.647Z" fill="#1B4ED1"/>
<path d="M530.77 236.5L533.449 229.226L509.814 247.411L529.239 237.362L530.77 236.5Z" fill="#1B4ED1"/>
<path d="M530.77 237.649L507.04 249.996L532.779 251.048L530.77 237.649Z" fill="#1B4ED1"/>
<path d="M533.736 250.761L555.361 238.415L531.631 237.362L533.736 250.761Z" fill="#1B4ED1"/>
<path d="M554.5 237.458L540.625 231.141L534.788 228.556L531.822 236.405L554.5 237.458Z" fill="#1B4ED1"/>
<path d="M556.509 237.266V221.761L535.841 227.982L556.509 237.266Z" fill="#1B4ED1"/>
<path d="M929.11 280.814L950.256 315.749L943.846 263.874L938.87 269.616L929.11 280.814Z" fill="#1B4ED1"/>
<path d="M929.588 183.477L921.838 190.464L918.297 193.718L941.836 196.781L929.588 183.477Z" fill="#1B4ED1"/>
<path d="M919.254 194.866L941.549 209.032L941.645 207.883L942.602 197.929L919.254 194.866Z" fill="#1B4ED1"/>
<path d="M943.558 197.068L954.754 198.025L942.506 167.493L943.558 197.068Z" fill="#1B4ED1"/>
<path d="M942.602 208.744L954.275 198.982L943.558 198.025L942.602 208.744Z" fill="#1B4ED1"/>
<path d="M927.866 183.764L925.665 184.243L907.389 188.645L917.149 193.526L927.866 183.764Z" fill="#1B4ED1"/>
<path d="M915.14 165.77L914.566 167.302L906.719 187.784L928.727 182.52L915.14 165.77Z" fill="#1B4ED1"/>
<path d="M766.54 258.705L747.977 257.27L723.194 255.451L736.207 292.3L766.54 258.705Z" fill="#1B4ED1"/>
<path d="M966.236 281.867L973.891 264.352L944.802 263.299L951.213 316.132L966.236 281.867Z" fill="#1B4ED1"/>
<path d="M959.442 149.117L942.506 164.909L955.232 196.589L959.442 149.117Z" fill="#1B4ED1"/>
<path d="M457.091 328.574H434.031L452.116 337.571L457.091 328.574Z" fill="#1B4ED1"/>
<path d="M943.271 263.108L925.665 261.098L928.823 279.762L943.271 263.108Z" fill="#1B4ED1"/>
<path d="M964.705 239.18L957.911 220.995L955.711 215.253L953.701 233.246L959.347 236.309L964.705 239.18Z" fill="#1B4ED1"/>
<path d="M899.83 176.203L905.858 187.305L913.992 166.153L899.83 176.203Z" fill="#1B4ED1"/>
<path d="M955.998 212.669L969.202 210.467L974.274 209.606L957.337 200.13L955.998 199.365V212.669Z" fill="#1B4ED1"/>
<path d="M976.474 206.256L977.336 203.48L966.619 201.279L958.39 199.652L975.518 209.127L976.474 206.256Z" fill="#1B4ED1"/>
<path d="M930.067 181.276L941.071 165.292H930.067V181.276Z" fill="#1B4ED1"/>
<path d="M986.521 210.946V198.312L978.771 203.193L986.521 210.946Z" fill="#1B4ED1"/>
<path d="M985.277 198.025L959.634 198.886L977.91 202.619L985.277 198.025Z" fill="#1B4ED1"/>
<path d="M934.66 159.071L918.106 164.335H929.397L934.66 159.071Z" fill="#1B4ED1"/>
<path d="M929.11 165.292H916.001L929.11 181.467V165.292Z" fill="#1B4ED1"/>
<path d="M936.191 157.635L940.688 155.625L932.076 158.879L936.191 157.635Z" fill="#1B4ED1"/>
<path d="M937.148 158.209L941.74 163.761L942.028 164.143L957.72 149.404L937.148 158.209Z" fill="#1B4ED1"/>
<path d="M941.549 166.249L938.583 170.652L930.162 182.807L942.602 196.206L941.549 166.249Z" fill="#1B4ED1"/>
<path d="M930.737 164.335H940.975L936.286 158.784L930.737 164.335Z" fill="#1B4ED1"/>
<path d="M953.127 235.543L945.185 261.385L956.093 252.484L953.127 235.543Z" fill="#1B4ED1"/>
<path d="M796.681 230.854L784.433 226.164L773.046 231.811L786.538 231.236L796.681 230.854Z" fill="#1B4ED1"/>
<path d="M798.69 231.715L772.664 232.768L804.91 250.474L798.69 231.715Z" fill="#1B4ED1"/>
<path d="M768.358 259.854L776.682 301.966L788.26 281.963L783.093 276.316L768.358 259.854Z" fill="#1B4ED1"/>
<path d="M770.558 260.907L788.834 281.102L804.91 252.197L768.453 258.61L770.558 260.907Z" fill="#1B4ED1"/>
<path d="M804.336 251.24L787.399 241.956L771.228 233.151L768.071 257.652L804.336 251.24Z" fill="#1B4ED1"/>
<path d="M766.444 256.695L756.014 228.556L751.326 231.045L742.427 235.83L747.881 240.616L766.444 256.695Z" fill="#1B4ED1"/>
<path d="M765.009 256.791L741.661 236.405L734.581 244.54L742.714 247.794L765.009 256.791Z" fill="#1B4ED1"/>
<path d="M764.435 257.557L762.234 256.695L733.815 245.306L723.672 254.494L746.063 256.217L764.435 257.557Z" fill="#1B4ED1"/>
<path d="M767.305 256.312L770.367 232.672L757.067 228.652L758.885 233.629L767.305 256.312Z" fill="#1B4ED1"/>
<path d="M755.631 227.695L750.656 215.636L742.618 234.682L752.378 229.418L755.631 227.695Z" fill="#1B4ED1"/>
<path d="M828.066 301.775L824.717 298.999L802.422 281.389L777.831 302.828L828.066 301.775Z" fill="#1B4ED1"/>
<path d="M824.047 295.649L811.225 277.943L803.379 280.91L827.013 299.669L824.047 295.649Z" fill="#1B4ED1"/>
<path d="M872.368 271.722L910.738 275.742L902.318 261.098L871.029 271.53L872.368 271.722Z" fill="#1B4ED1"/>
<path d="M950.161 317.471L928.536 281.867L912.365 319.673L950.161 317.471Z" fill="#1B4ED1"/>
<path d="M911.121 319.386V277.177L875.334 299.861L911.121 319.386Z" fill="#1B4ED1"/>
<path d="M900.978 352.501L955.136 364.465L911.791 321.108L906.05 337.666L900.978 352.501Z" fill="#1B4ED1"/>
<path d="M912.078 276.89V317.854L927.77 281.102L912.078 276.89Z" fill="#1B4ED1"/>
<path d="M901.744 260.332L892.462 249.996L870.646 270.669L901.744 260.332Z" fill="#1B4ED1"/>
<path d="M829.31 301.296L838.017 284.643L842.131 276.795L812.277 277.847L823.568 293.352L829.31 301.296Z" fill="#1B4ED1"/>
<path d="M886.243 254.494L891.123 249.9L867.105 251.91L869.211 270.765L886.243 254.494Z" fill="#1B4ED1"/>
<path d="M856.676 316.897L842.801 277.465L830.075 301.966L856.676 316.897Z" fill="#1B4ED1"/>
<path d="M873.708 299.956L843.854 277.656L857.728 317.089L873.708 299.956Z" fill="#1B4ED1"/>
<path d="M873.708 298.808L870.263 281.389L868.445 272.296L844.141 276.603L858.015 287.036L873.708 298.808Z" fill="#1B4ED1"/>
<path d="M90.0404 572.923L70.4248 572.54L80.8546 586.226L87.1698 577.038L90.0404 572.923Z" fill="#1B4ED1"/>
<path d="M151.853 548.421L147.356 546.028L137.979 558.566L187.162 568.041L151.853 548.421Z" fill="#1B4ED1"/>
<path d="M136.448 558.949L127.454 551.962V568.903L134.343 561.246L136.448 558.949Z" fill="#1B4ED1"/>
<path d="M161.039 594.075L149.079 576.847L137.118 559.715L127.741 570.051L161.039 594.075Z" fill="#1B4ED1"/>
<path d="M164.006 537.031L148.217 545.358L188.214 567.467L164.006 537.031Z" fill="#1B4ED1"/>
<path d="M174.627 497.981L144.677 516.166L163.91 535.5L174.627 497.981Z" fill="#1B4ED1"/>
<path d="M143.242 501.905L144.294 515.305L173.191 497.79L143.242 501.905Z" fill="#1B4ED1"/>
<path d="M104.011 586.035L128.698 626.903L127.645 599.339L126.592 571.008L111.857 580.867L104.011 586.035Z" fill="#1B4ED1"/>
<path d="M102.575 587.279L86.9785 601.827L88.6051 606.517L95.3031 625.755L102.575 587.279Z" fill="#1B4ED1"/>
<path d="M106.881 592.639L103.628 587.279L98.8435 612.26L96.0686 627.095L128.41 628.243L106.881 592.639Z" fill="#1B4ED1"/>
<path d="M152.906 461.898L133.195 486.879L142.572 500.374L151.662 466.684L152.906 461.898Z" fill="#1B4ED1"/>
<path d="M101.331 638.293L126.688 629.105L96.26 628.052L101.331 638.293Z" fill="#1B4ED1"/>
<path d="M111.187 646.045L113.866 643.461L127.358 629.87L102.097 638.963L108.508 644.035L111.187 646.045Z" fill="#1B4ED1"/>
<path d="M138.84 447.35L139.51 447.829L153.193 458.549L147.069 432.994L144.294 437.779L138.84 447.35Z" fill="#1B4ED1"/>
<path d="M168.407 431.175L153.097 401.697L150.035 421.317L168.599 431.654L168.407 431.175Z" fill="#1B4ED1"/>
<path d="M151.184 423.04L149.844 422.274L147.835 431.175L167.737 432.228L151.184 423.04Z" fill="#1B4ED1"/>
<path d="M178.167 397.294L153.576 400.548L169.651 431.463L178.167 397.294Z" fill="#1B4ED1"/>
<path d="M175.871 395.284L156.733 381.597L162.188 390.69L175.871 395.284Z" fill="#1B4ED1"/>
<path d="M161.996 391.647L154.246 399.495L176.636 396.528L161.996 391.647Z" fill="#1B4ED1"/>
<path d="M133.29 427.921L134.056 430.41L138.362 446.202L146.591 431.941L133.29 427.921Z" fill="#1B4ED1"/>
<path d="M150.801 461.037L139.701 463.621L135.396 469.651L143.816 464.961L150.801 461.037Z" fill="#1B4ED1"/>
<path d="M106.02 570.626L104.489 581.058L104.011 584.982L125.444 570.626H106.02Z" fill="#1B4ED1"/>
<path d="M144.199 461.611L152.906 459.601L138.84 448.499L139.797 462.568L144.199 461.611Z" fill="#1B4ED1"/>
<path d="M134.247 471.374L133.195 485.348L152.141 461.42L134.247 471.374Z" fill="#1B4ED1"/>
<path d="M123.243 441.608L137.501 446.681L132.429 428.304L123.243 441.608Z" fill="#1B4ED1"/>
<path d="M41.9104 581.345L52.0531 581.058H54.828L57.3158 563.83L41.9104 581.345Z" fill="#1B4ED1"/>
<path d="M38.2744 573.21L40.8579 580.292L46.5033 562.49L38.2744 573.21Z" fill="#1B4ED1"/>
<path d="M12.9176 582.015L40.1881 581.345L37.4132 573.688L12.9176 582.015Z" fill="#1B4ED1"/>
<path d="M19.1372 554.929L10.9082 547.846L0.478429 555.982L22.8689 558.183L19.1372 554.929Z" fill="#1B4ED1"/>
<path d="M21.338 562.777L8.22899 577.23L9.95133 581.441L13.4917 575.698L21.338 562.777Z" fill="#1B4ED1"/>
<path d="M0 556.843L7.84624 576.272L23.3474 559.236L0 556.843Z" fill="#1B4ED1"/>
<path d="M24.4956 559.619L22.6776 562.49L10.9082 581.632L36.8391 572.827L24.4956 559.619Z" fill="#1B4ED1"/>
<path d="M67.937 581.249L79.4193 585.939L69.6593 573.114L67.937 581.249Z" fill="#1B4ED1"/>
<path d="M102.097 586.513L95.1118 586.801L81.5244 587.471L86.6914 600.87L102.097 586.513Z" fill="#1B4ED1"/>
<path d="M59.0382 563.734L67.1715 580.101L70.0421 566.893L59.0382 563.734Z" fill="#1B4ED1"/>
<path d="M191.372 357.383L155.968 379.875L178.55 395.954L191.372 357.383Z" fill="#1B4ED1"/>
<path d="M55.8806 581.058H66.5974L58.177 564.213L55.8806 581.058Z" fill="#1B4ED1"/>
<path d="M23.7301 557.609L22.6776 548.421L21.7207 540.285L11.6737 547.272L23.7301 557.609Z" fill="#1B4ED1"/>
<path d="M102.288 585.461L90.9973 573.21L81.8114 586.513L102.288 585.461Z" fill="#1B4ED1"/>
<path d="M105.063 570.721L91.9541 572.731L103.054 584.886L105.063 570.721Z" fill="#1B4ED1"/>
<path d="M104.106 563.16L92.8153 571.678L105.063 569.764L104.106 563.16Z" fill="#1B4ED1"/>
<path d="M113.962 555.312L104.967 562.49L105.924 568.807L113.962 555.312Z" fill="#1B4ED1"/>
<path d="M106.498 569.668H126.114L115.78 554.163L110.326 563.256L106.498 569.668Z" fill="#1B4ED1"/>
<path d="M87.3612 571.87L70.9989 567.18L70.0421 571.583L87.3612 571.87Z" fill="#1B4ED1"/>
<path d="M37.4132 572.061L40.2838 555.12L25.2611 559.045L37.4132 572.061Z" fill="#1B4ED1"/>
<path d="M39.2312 554.45L39.8053 554.259L33.2987 549.091L22.6776 540.572L24.7826 558.183L39.2312 554.45Z" fill="#1B4ED1"/>
<path d="M56.646 563.064L48.13 560.576L42.0061 579.814L56.646 563.064Z" fill="#1B4ED1"/>
<path d="M47.1731 560.097L41.1449 555.312L38.4657 571.296L47.1731 560.097Z" fill="#1B4ED1"/>
<path d="M451.733 338.432L432.979 329.052L444.461 359.297L451.733 338.432Z" fill="#1B4ED1"/>
<path d="M126.497 568.616V551.579L116.545 553.589L119.607 558.279L126.497 568.616Z" fill="#1B4ED1"/>
<path d="M298.349 266.171L296.531 275.55L293.086 292.682L318.538 291.63L312.127 283.494L298.349 266.171Z" fill="#1B4ED1"/>
<path d="M319.399 331.254L320.165 331.349L336.24 335.178L327.341 324.267L322.94 328.095L319.399 331.254Z" fill="#1B4ED1"/>
<path d="M293.469 293.64L306.003 308.188L318.443 292.587L302.846 293.257L293.469 293.64Z" fill="#1B4ED1"/>
<path d="M302.176 269.425L319.304 291.055L325.619 267.702L299.114 265.596L302.176 269.425Z" fill="#1B4ED1"/>
<path d="M303.898 345.993L303.324 351.162L317.677 331.541L306.386 324.363L303.898 345.993Z" fill="#1B4ED1"/>
<path d="M321.505 310.867L307.247 323.118H326.672L321.505 310.867Z" fill="#1B4ED1"/>
<path d="M322.461 242.626L326.576 266.649L344.373 261.481L322.461 242.626Z" fill="#1B4ED1"/>
<path d="M375.184 281.867L338.345 294.501L350.976 307.135L370.113 287.227L375.184 281.867Z" fill="#1B4ED1"/>
<path d="M368.678 305.125L375.854 282.633L352.315 307.135L368.678 305.125Z" fill="#1B4ED1"/>
<path d="M339.015 263.969L326.863 267.606L337.388 292.778L344.756 262.342L339.015 263.969Z" fill="#1B4ED1"/>
<path d="M375.758 280.623L368.582 276.316L345.713 262.438L338.154 293.544L368.678 283.111L375.758 280.623Z" fill="#1B4ED1"/>
<path d="M359.109 239.659L322.94 241.765L345.235 260.907L359.109 239.659Z" fill="#1B4ED1"/>
<path d="M431.735 328.574L415.085 329.627L443.121 358.723L431.735 328.574Z" fill="#1B4ED1"/>
<path d="M323.131 365.805L336.814 336.326L318.921 332.115L323.131 365.805Z" fill="#1B4ED1"/>
<path d="M413.267 329.818L398.819 331.828L401.881 358.818L413.267 329.818Z" fill="#1B4ED1"/>
<path d="M376.237 279.762L372.027 259.949L346.861 261.959L376.237 279.762Z" fill="#1B4ED1"/>
<path d="M402.359 360.254H443.313L414.224 330.105L406.569 349.534L402.359 360.254Z" fill="#1B4ED1"/>
<path d="M397.575 330.967L391.355 313.26L375.663 332.019L379.873 331.828L397.575 330.967Z" fill="#1B4ED1"/>
<path d="M375.758 332.977L401.02 359.393L397.862 331.924L381.595 332.689L375.758 332.977Z" fill="#1B4ED1"/>
<path d="M344.278 320.247L338.058 335.752L358.822 349.247L344.278 320.247Z" fill="#1B4ED1"/>
<path d="M323.801 366.475L359.013 350.492L337.675 336.709L324.471 365.231L323.801 366.475Z" fill="#1B4ED1"/>
<path d="M166.876 363.7L155.585 366.762V379.013L189.362 357.478L166.876 363.7Z" fill="#1B4ED1"/>
<path d="M400.158 359.871L390.111 349.439L374.706 333.264L360.831 350.3L400.158 359.871Z" fill="#1B4ED1"/>
<path d="M368.678 319.577H346.479L373.749 331.637L368.678 319.577Z" fill="#1B4ED1"/>
<path d="M373.845 332.785L345.235 320.056L360.066 349.726L373.845 332.785Z" fill="#1B4ED1"/>
<path d="M233.091 311.633H214.336L221.609 330.392L233.091 311.633Z" fill="#1B4ED1"/>
<path d="M273.757 321.013L267.442 308.475L258.543 312.399L275.384 324.363L273.757 321.013Z" fill="#1B4ED1"/>
<path d="M237.779 339.581L233.665 312.59L233.282 313.165L222.183 331.254L237.779 339.581Z" fill="#1B4ED1"/>
<path d="M214.91 336.805L235.866 339.676L221.609 332.019L219.025 333.838L214.91 336.805Z" fill="#1B4ED1"/>
<path d="M241.894 338.623L275.671 325.703L257.682 312.973L239.693 339.485L241.894 338.623Z" fill="#1B4ED1"/>
<path d="M238.736 339.198L251.462 320.438L256.725 312.782L234.526 311.729L237.014 328.382L238.736 339.198Z" fill="#1B4ED1"/>
<path d="M220.46 331.637L202.089 326.851L213.667 336.518L220.46 331.637Z" fill="#1B4ED1"/>
<path d="M189.075 356.617H188.788L159.987 355.564L155.968 365.614L161.422 364.178L189.075 356.617Z" fill="#1B4ED1"/>
<path d="M175.392 341.112L160.848 354.703L190.989 355.756L175.392 341.112Z" fill="#1B4ED1"/>
<path d="M189.745 344.653L187.449 331.254L176.158 340.538L191.563 354.894L189.745 344.653Z" fill="#1B4ED1"/>
<path d="M211.753 336.039L200.079 326.373L189.362 330.297L205.725 334.508L211.753 336.039Z" fill="#1B4ED1"/>
<path d="M198.644 349.822L212.71 337.284L202.758 334.795L188.405 330.967L192.616 355.277L198.644 349.822Z" fill="#1B4ED1"/>
<path d="M300.454 256.408L285.814 269.233L297.679 264.639L300.454 256.408Z" fill="#1B4ED1"/>
<path d="M326.576 226.259L322.366 240.903L357.865 238.798L326.576 226.259Z" fill="#1B4ED1"/>
<path d="M321.313 242.052L309.065 246.072L325.428 265.596L321.313 242.052Z" fill="#1B4ED1"/>
<path d="M323.801 266.649L301.793 255.547L298.731 264.639L323.801 266.649Z" fill="#1B4ED1"/>
<path d="M324.375 265.788L308.204 246.646L302.176 254.685L324.375 265.788Z" fill="#1B4ED1"/>
<path d="M342.938 219.464L327.533 225.589L358.439 237.936L342.938 219.464Z" fill="#1B4ED1"/>
<path d="M363.893 228.174L344.756 220.038L359.875 238.223L363.893 228.174Z" fill="#1B4ED1"/>
<path d="M291.172 293.352L285.335 292.108L277.011 290.385L268.877 306.56L291.172 293.352Z" fill="#1B4ED1"/>
<path d="M297.487 265.788L284.091 270.956L292.32 291.534L297.487 265.788Z" fill="#1B4ED1"/>
<path d="M291.651 292.491L285.527 277.273L283.517 272.009L277.298 289.428L284.378 290.96L291.651 292.491Z" fill="#1B4ED1"/>
<path d="M346.287 261.098L371.548 258.992L359.97 240.042L346.287 261.098Z" fill="#1B4ED1"/>
</g>
</svg>
