<svg width="80" height="80" viewBox="0 0 80 80" fill="none" xmlns="http://www.w3.org/2000/svg">
<path fill-rule="evenodd" clip-rule="evenodd" d="M15.5021 21.1031L47.0694 8.2803C47.8858 7.94867 48.7853 7.91016 49.6252 8.1709L65.192 13.0036C66.8582 13.5209 68 15.1146 68 16.923V63.7963C68 65.584 66.8836 67.1646 65.2433 67.6993L49.5565 72.8128C48.7591 73.0727 47.9028 73.0617 47.1117 72.7814L15.6645 61.6381C14.0712 61.0735 13 59.517 13 57.7664V24.9131C13 23.2284 13.9932 21.716 15.5021 21.1031Z" stroke="#1B4ED1"/>
<path d="M25.8329 24.1062L47.4519 20.0013C48.0556 19.8867 48.6117 20.369 48.6117 21.0072V63.7618C48.6117 64.3945 48.0649 64.8753 47.465 64.7702L16.4488 59.3325C15.9104 59.2381 15.8923 58.4718 16.4257 58.3521L24.2505 56.5959C24.7031 56.4943 25.0263 56.0779 25.0263 55.5963V25.1122C25.0263 24.6182 25.3657 24.1949 25.8329 24.1062Z" fill="#1B4ED1"/>
</svg>
