<svg width="65" height="65" viewBox="0 0 65 65" fill="none" xmlns="http://www.w3.org/2000/svg">
<path d="M20.7098 31.0635H22.9489C23.5403 31.0635 23.9834 30.9403 24.3111 30.7301C24.6612 30.502 24.9214 30.1867 25.0936 29.7674L25.0957 29.7623C25.2845 29.3166 25.3861 28.781 25.3861 28.1444C25.3861 27.4556 25.2926 26.8938 25.1219 26.446L25.1174 26.4343C24.962 25.9938 24.7222 25.685 24.4063 25.4767L24.4001 25.4726L24.3939 25.4683C24.0947 25.2579 23.6712 25.13 23.081 25.13H20.7098V31.0635Z" fill="#1B4ED1"/>
<path fill-rule="evenodd" clip-rule="evenodd" d="M32.5 65C50.4493 65 65 50.4493 65 32.5C65 14.5507 50.4493 0 32.5 0C14.5507 0 0 14.5507 0 32.5C0 50.4493 14.5507 65 32.5 65ZM14.875 20.2656H23.081C24.7402 20.2656 26.1862 20.5393 27.4016 21.1079C28.6229 21.6792 29.5705 22.5321 30.2289 23.6627C30.8889 24.7961 31.2044 26.1712 31.2044 27.7628C31.2044 29.0584 31.0224 30.1949 30.6414 31.1589L30.6406 31.1608C30.2629 32.1051 29.721 32.9062 29.0123 33.5545L29.009 33.5575C28.6574 33.8734 28.2728 34.156 27.8561 34.406L31.947 43.5908V44.4198H25.9519L22.3269 35.9278H20.7098V44.4198H14.875V20.2656ZM44.3623 20.2656H50.1805V36.6682C50.1805 38.5091 49.8285 40.0594 49.0853 41.2843C48.361 42.4856 47.3521 43.3717 46.0691 43.9326L46.0657 43.9342C44.8051 44.4741 43.3776 44.7379 41.7931 44.7379C40.1979 44.7379 38.76 44.4742 37.489 43.9348L37.4856 43.9333C36.1915 43.3727 35.176 42.4865 34.4509 41.2837L34.448 41.2788C33.7293 40.0551 33.3891 38.507 33.3891 36.6682V20.2656H39.2074V36.6682C39.2074 37.6464 39.321 38.3401 39.512 38.7896C39.7128 39.2363 39.9776 39.5019 40.2911 39.6438C40.6748 39.8009 41.17 39.8894 41.7931 39.8894C42.4319 39.8894 42.9183 39.7995 43.2747 39.6455C43.5884 39.5047 43.8484 39.2406 44.0394 38.7935L44.0428 38.7857C44.2426 38.3392 44.3623 37.6476 44.3623 36.6682V20.2656Z" fill="#1B4ED1"/>
</svg>
