<svg width="250" height="75" viewBox="0 0 250 75" fill="none" xmlns="http://www.w3.org/2000/svg">
<path d="M15.2661 32.7549L0 32.8065V63.4934L5.136 63.4418L5.11019 51.4019H14.4789C17.4082 51.4019 19.7697 50.5631 21.486 48.9113C23.2281 47.2466 24.1186 44.9496 24.1186 42.0848C24.1186 39.2329 23.3314 36.9488 21.7828 35.2841C20.2085 33.6066 18.0147 32.7549 15.2661 32.7549ZM18.9438 42.1493C18.9438 45.4013 17.3824 46.8466 13.8595 46.8466H5.136V37.3102H14.3885C17.5372 37.3102 18.9438 38.8071 18.9438 42.1493Z" fill="#1090CF"/>
<path d="M36.1588 41.9161C32.623 41.9161 29.8356 43.0259 27.8741 45.2068C26.0933 47.1424 25.2029 49.775 25.2029 53.0269C25.2029 56.2401 26.1191 58.8985 27.9515 60.9503C28.971 62.0472 30.184 62.8601 31.539 63.3763C32.8552 63.8667 34.4167 64.1248 36.1588 64.1248C39.8624 64.1248 42.7401 63.0408 44.7274 60.8987C46.4953 58.9888 47.3986 56.3305 47.3986 53.0269C47.3986 49.6846 46.4953 47.0263 44.7016 45.1164C42.753 43.0001 39.8753 41.9161 36.1588 41.9161ZM29.9517 53.0269C29.9517 51.9042 30.1066 50.9106 30.3905 50.0589C30.6744 49.233 31.0744 48.5361 31.5906 47.9683C32.6875 46.794 34.1844 46.2133 36.1588 46.2133C40.5851 46.2133 42.6498 48.3813 42.6498 53.0269C42.6498 54.1625 42.5207 55.169 42.2626 56.0078C42.0175 56.8079 41.6561 57.4531 41.14 58.0209C40.0818 59.2469 38.4558 59.8405 36.1588 59.8405C34.1199 59.8405 32.623 59.2727 31.5648 58.0726C30.4808 56.8337 29.9517 55.182 29.9517 53.0269Z" fill="#1090CF"/>
<path d="M67.0263 52.0211C65.9681 51.4791 64.1744 51.0661 61.5677 50.7822C58.2512 50.3693 56.9995 50.0854 56.5478 49.9305C55.4638 49.5176 55.3219 49.0014 55.3219 48.5497C55.3219 47.7239 55.6058 47.1819 56.2252 46.8076C56.7672 46.485 57.8641 46.0979 60.0449 46.0979C64.1873 46.0979 64.7164 47.8142 64.7164 49.324V50.0467H69.5298V49.324C69.5298 45.9688 67.8909 41.9684 60.1224 41.9684C58.6771 41.9684 57.3866 42.0846 56.2639 42.3169C55.1025 42.5491 54.1089 42.8976 53.2443 43.3879C51.5021 44.5364 50.6117 46.2915 50.6117 48.6014C50.6117 50.9887 51.657 52.7437 53.6443 53.6857C54.1863 53.9309 55.3735 54.331 59.5159 54.9375C63.3098 55.4924 64.0066 55.6601 64.1228 55.6988C65.0261 56.0602 65.4132 56.6022 65.4132 57.5184C65.4132 58.1894 65.4132 59.9702 60.5353 59.9702C57.7092 59.9702 56.4833 59.4283 55.8897 58.925C55.3606 58.5249 55.0767 57.8926 54.9864 57.0538H50.0568C50.1859 58.1249 50.4182 59.0669 50.7666 59.8283C51.1795 60.7574 51.7602 61.5188 52.4571 62.0737C53.3475 62.7963 54.4831 63.3254 55.851 63.6351C57.1285 63.919 58.7029 64.0739 60.5353 64.0739C68.5748 64.0739 70.2653 60.3316 70.2653 57.1958C70.2653 54.7955 69.1297 53.0018 67.0263 52.0211Z" fill="#1090CF"/>
<path d="M177.024 52.0211C175.979 51.4791 174.185 51.0661 171.565 50.7822C168.249 50.3693 166.997 50.0854 166.545 49.9305C165.474 49.5176 165.319 49.0014 165.319 48.5497C165.319 47.7239 165.603 47.1819 166.223 46.8076C166.765 46.485 167.862 46.0979 170.043 46.0979C174.198 46.0979 174.727 47.8142 174.727 49.324V50.0467H179.527V49.324C179.527 45.9688 177.901 41.9684 170.12 41.9684C168.688 41.9684 167.384 42.0846 166.262 42.3169C165.1 42.5491 164.119 42.8976 163.242 43.3879C161.5 44.5364 160.622 46.2915 160.622 48.6014C160.622 50.9887 161.668 52.7437 163.655 53.6857C164.184 53.9309 165.384 54.331 169.513 54.9375C173.32 55.4924 174.004 55.6601 174.12 55.6988C175.024 56.0602 175.411 56.6022 175.411 57.5184C175.411 58.1894 175.411 59.9702 170.533 59.9702C167.72 59.9702 166.481 59.4283 165.9 58.925C165.371 58.5249 165.087 57.8926 164.997 57.0538H160.067C160.196 58.1249 160.429 59.0669 160.764 59.8283C161.19 60.7574 161.758 61.5188 162.468 62.0737C163.345 62.7963 164.494 63.3254 165.861 63.6351C167.139 63.919 168.713 64.0739 170.533 64.0739C178.585 64.0739 180.276 60.3316 180.276 57.1958C180.276 54.7955 179.14 53.0018 177.024 52.0211Z" fill="#1090CF"/>
<path d="M112.438 43.9679C112.206 43.7356 112.025 43.5937 111.883 43.4905C110.296 42.4452 108.257 41.9161 105.818 41.9161C102.256 41.9161 99.4817 42.9356 97.5589 44.9229C95.7135 46.7682 94.7844 49.4265 94.7844 52.7946C94.7844 54.4593 95.0167 55.9562 95.4683 57.2725C95.92 58.6146 96.6168 59.7889 97.5331 60.7696C99.4687 62.6924 102.192 63.6731 105.624 63.6731C108.424 63.6731 110.709 63.0279 112.451 61.7504V62.2149C112.425 66.0605 111.986 66.7186 111.057 67.6993C110.154 68.6414 108.541 69.1188 106.269 69.1188C103.547 69.1188 102.295 68.5898 101.727 68.1381C101.185 67.7122 100.772 66.8218 100.527 65.5701L100.346 64.6023L95.6361 64.6539L95.6619 65.9701C95.7264 66.4734 95.8168 66.9638 95.9329 67.4284C96.3846 69.1447 97.1975 70.4867 98.3719 71.39C100.024 72.6934 102.63 73.3257 106.347 73.3257C115.38 73.3257 117.264 67.9445 117.264 63.4279V42.5226H112.451L112.438 43.9679ZM108.915 58.8985C108.192 59.1953 107.315 59.3372 106.347 59.3372C101.74 59.3372 99.6881 57.3241 99.6881 52.7946C99.6881 50.7041 100.23 49.1426 101.353 48.007C102.463 46.8843 104.037 46.3294 106.153 46.3294C108.283 46.3294 109.818 46.8843 110.863 48.007C111.922 49.1684 112.451 50.6912 112.451 52.6914C112.451 54.8593 111.909 56.524 110.851 57.6209C110.283 58.1758 109.638 58.6146 108.915 58.8985Z" fill="#1090CF"/>
<path d="M125.922 43.1291C125.832 43.1936 125.754 43.2453 125.69 43.3098V42.5355H120.954L120.98 63.4279H125.69V53.1947C125.69 47.1682 128.439 46.4714 130.516 46.4714C131.071 46.4714 133.691 46.4972 133.691 46.4972V41.9161H130.929C128.761 41.9161 127.135 42.3032 125.922 43.1291Z" fill="#1090CF"/>
<path d="M151.834 57.0531C150.918 58.963 149.24 59.8663 146.647 59.8663C144.44 59.8663 142.801 59.234 141.665 57.9177C140.878 57.0273 140.414 55.9433 140.259 54.6271H157.499V53.4786C157.499 50.0589 156.635 47.2973 154.905 45.2971C153.938 44.1486 152.725 43.284 151.292 42.7291C149.898 42.1871 148.285 41.9161 146.466 41.9161C143.02 41.9161 140.285 42.9097 138.336 44.8712C136.387 46.8327 135.407 49.4911 135.407 52.7946C135.407 56.0853 136.349 58.7694 138.207 60.7309C140.22 62.9505 143.072 64.0732 146.672 64.0732C148.092 64.0732 149.434 63.8667 150.66 63.4667C151.899 63.0666 152.996 62.4859 153.963 61.7116C155.46 60.4341 156.454 58.8726 156.97 57.0531H151.834ZM141.911 47.6844C142.491 47.1166 143.149 46.6908 143.885 46.4198C144.633 46.1359 145.498 45.9939 146.466 45.9939C148.324 45.9939 149.782 46.5746 150.931 47.7748C151.795 48.6652 152.337 49.6201 152.557 50.6525H140.427C140.749 49.4007 141.252 48.4071 141.911 47.6844Z" fill="#1090CF"/>
<path d="M92.099 62.7702V61.6346H87.4405V62.796C87.4405 62.796 87.4405 63.4283 87.4405 63.6348C87.4276 63.9445 87.2598 65.1446 87.1953 65.4156C87.0533 65.9318 86.8856 66.5254 86.7952 66.848C86.7178 67.0416 86.6404 67.2352 86.5501 67.4158C85.7113 69.0418 83.8788 69.8032 82.0851 69.4935C79.4526 69.0289 77.5427 66.5512 77.904 63.88C78.0847 62.5379 78.3944 61.2088 79.0138 60.0086C80.1752 57.7374 81.6076 55.5953 83.04 53.5048C83.3239 53.1047 84.3305 51.6078 85.5306 49.285C86.7565 49.8399 87.8276 50.1496 88.5503 50.3173C89.8665 50.627 90.6666 50.7045 91.286 50.5496C91.3635 50.5367 91.9442 50.4464 92.0861 50.2141C92.1377 50.1367 91.9958 49.9689 91.8409 49.9302C89.8794 49.414 87.9825 48.7688 86.4985 47.2719C87.7631 44.4974 89.0536 40.9487 89.802 36.8966C90.344 33.9157 91.0021 30.9476 91.1312 27.8635C91.286 25.3213 91.1828 22.4694 90.8344 20.082C90.0859 15.0235 87.8792 11.436 84.4595 7.75822C80.0075 2.95773 73.7617 0.751059 67.3352 0.131642C60.5216 -0.526489 56.56 1.37048 53.5403 3.87395C49.9399 6.842 49.2302 9.61647 48.9721 13.5782C48.7656 16.7527 49.3721 18.5593 50.9723 21.8371C52.1337 24.2115 56.9729 28.3151 58.3279 30.5863C59.6183 32.7672 59.2699 33.0382 60.2119 35.4126C60.6765 36.5869 63.038 38.5742 65.2189 38.2645C67.3739 37.9677 69.0902 36.4321 70.2646 33.3995C70.7033 32.3026 70.7291 31.2445 70.8453 30.3024C71.1808 27.7731 71.1034 25.7084 71.3485 22.5726C71.3744 22.2371 71.4131 21.8112 71.2582 21.6306C70.8324 21.1144 70.2646 21.3209 70.0194 21.8112C69.8516 22.1339 69.8129 22.5081 69.7097 22.8565C68.7289 26.173 66.7029 30.9993 66.6126 31.2832C66.3029 32.0703 65.5544 33.6318 65.0382 33.5802C64.7672 33.5415 64.5608 33.5415 64.4188 33.0382C64.264 32.4962 63.5671 29.9282 61.2314 27.0376C57.1019 21.9145 54.8307 19.4497 54.0694 16.0687C53.2306 12.3522 54.9211 8.40344 58.1085 6.62262C59.7603 5.69349 63.2445 4.2869 66.9739 4.68694C71.555 5.17731 76.6394 6.80328 79.801 10.2875C83.5691 14.4299 85.9823 16.7785 86.1113 24.3147C86.1887 28.741 85.2209 33.8899 84.1369 38.1742C84.0079 38.5871 83.8659 39.0259 83.7111 39.4775C83.3239 40.6648 82.9626 41.6842 82.6142 42.6004C82.511 42.4585 82.3303 42.2004 82.2787 42.123C81.698 41.3229 81.1947 40.5744 80.614 39.8905C79.9171 39.0517 79.2203 38.1742 78.3428 37.5548C77.2588 36.7676 76.0845 36.574 75.1296 37.6322C74.6521 38.1613 74.3295 38.9226 74.665 39.7743C75.6974 42.3423 77.6718 44.2264 79.8655 45.9943C79.9817 46.0847 80.3817 46.3428 80.8334 46.6525C80.0591 48.1752 79.1945 49.6463 78.0331 51.5949C76.3942 54.3565 74.5101 57.6084 73.9036 59.1182C72.7422 61.9959 72.6261 64.964 73.3358 67.9836C73.6455 69.2999 74.3037 70.3968 75.2199 71.3904C78.1492 74.5133 83.1433 75.2618 86.9372 73.7649C87.8018 73.4164 88.6664 72.7712 89.26 72.0357C90.8344 70.1 91.7377 67.9449 92.0087 65.5834C92.0345 65.3382 92.0603 64.6543 92.0732 64.0607C92.0861 63.9445 92.0861 63.8542 92.0861 63.7897C92.099 63.5316 92.099 62.7702 92.099 62.7702ZM84.4337 30.1605C84.4337 31.4896 83.3497 32.5736 82.0206 32.5736C80.6914 32.5736 79.6203 31.4896 79.6203 30.1605C79.6203 28.8313 80.6914 27.7602 82.0206 27.7602C83.3497 27.7602 84.4337 28.8313 84.4337 30.1605Z" fill="#003D52"/>
<path d="M201.092 32.753L185.826 32.8046V63.4916L190.962 63.4399L190.936 51.4H200.304C203.234 51.4 205.595 50.5612 207.312 48.9095C209.054 47.2448 209.944 44.9478 209.944 42.083C209.944 39.2311 209.157 36.947 207.608 35.2823C206.034 33.6047 203.84 32.753 201.092 32.753ZM204.769 42.1475C204.769 45.3994 203.208 46.8447 199.685 46.8447H190.962V37.3083H200.214C203.363 37.3083 204.769 38.8052 204.769 42.1475Z" fill="#1090CF"/>
<path d="M238.76 41.9142C235.224 41.9142 232.437 43.024 230.475 45.2049C228.695 47.1406 227.804 49.7731 227.804 53.025C227.804 56.2383 228.72 58.8966 230.553 60.9484C231.572 62.0453 232.785 62.8583 234.14 63.3745C235.457 63.8648 237.018 64.1229 238.76 64.1229C242.464 64.1229 245.341 63.0389 247.329 60.8968C249.097 58.9869 250 56.3286 250 53.025C250 49.6828 249.097 47.0244 247.303 45.1145C245.354 42.9982 242.477 41.9142 238.76 41.9142ZM232.553 53.025C232.553 51.9023 232.708 50.9087 232.992 50.057C233.276 49.2311 233.676 48.5342 234.192 47.9664C235.289 46.7921 236.786 46.2114 238.76 46.2114C243.186 46.2114 245.251 48.3794 245.251 53.025C245.251 54.1606 245.122 55.1672 244.864 56.006C244.619 56.806 244.257 57.4513 243.741 58.0191C242.683 59.245 241.057 59.8386 238.76 59.8386C236.721 59.8386 235.224 59.2708 234.166 58.0707C233.082 56.8319 232.553 55.1801 232.553 53.025Z" fill="#1090CF"/>
<path d="M218.423 43.1273C218.345 43.1918 218.268 43.2434 218.191 43.3079V42.5336H213.455L213.48 63.4261H218.191V53.1928C218.191 47.1664 220.939 46.4695 223.017 46.4695C223.572 46.4695 226.191 46.4953 226.191 46.4953V41.9142H223.43C221.262 41.9142 219.636 42.3014 218.423 43.1273Z" fill="#1090CF"/>
</svg>
