<svg width="121" height="90" viewBox="0 0 121 90" fill="none" xmlns="http://www.w3.org/2000/svg">
<path d="M44.3026 43.2513L49.8383 34.9941C50.0399 34.694 49.9434 34.2959 49.6345 34.1043C44.7005 31.055 41.4098 25.6332 41.4098 19.4409C41.4098 15.1261 43.0165 11.1934 45.653 8.16637C45.8653 7.92157 45.8664 7.56289 45.6465 7.32448L39.0768 0.209363C38.8259 -0.0631089 38.3893 -0.0716233 38.133 0.195528C33.2934 5.26391 30.3223 12.1087 30.3223 19.6442C30.3223 29.6309 35.5415 38.4074 43.4187 43.4386C43.7137 43.627 44.1084 43.5397 44.3026 43.2513Z" fill="#262726"/>
<path d="M72.0007 7.32448C71.7808 7.56289 71.7819 7.92157 71.9943 8.16637C74.6307 11.1934 76.2375 15.1261 76.2375 19.4409C76.2375 25.6332 72.9467 31.055 68.0128 34.1043C67.7039 34.2959 67.6073 34.694 67.809 34.9941L73.3447 43.2513C73.5388 43.5397 73.9335 43.627 74.2285 43.4386C82.1057 38.4074 87.3239 29.6309 87.3239 19.6442C87.3239 12.1087 84.3539 5.26391 79.5143 0.195528C79.2579 -0.0716233 78.8214 -0.0631089 78.5704 0.209363L72.0007 7.32448Z" fill="#262726"/>
<path d="M47.6154 44.8353C47.4041 45.1684 47.5414 45.6165 47.906 45.7676C51.2697 47.1545 54.9552 47.9251 58.824 47.9251C62.6918 47.9251 66.3773 47.1545 69.741 45.7676C70.1068 45.6165 70.2419 45.1684 70.0317 44.8353L59.3657 28.0549C59.1137 27.659 58.5323 27.659 58.2813 28.0549L47.6154 44.8353Z" fill="#1681C4"/>
<path d="M118.959 77.4639C118.913 77.35 118.778 77.3064 118.671 77.3691C117.459 78.0769 116.039 78.492 114.761 78.492C111.78 78.492 109.5 76.1931 109.5 73.1639C109.5 70.17 111.78 67.871 114.761 67.871C116.038 67.871 117.457 68.2861 118.669 68.9896C118.774 69.0513 118.909 69.0077 118.955 68.8949L119.985 66.3319C120.021 66.2425 119.989 66.1372 119.905 66.0861C118.426 65.1601 116.652 64.6226 114.761 64.6226C109.795 64.6226 105.895 68.3457 105.895 73.2001C105.895 78.0184 109.795 81.7415 114.761 81.7415C116.654 81.7415 118.43 81.2018 119.91 80.2769C119.993 80.2248 120.026 80.1205 119.99 80.03L118.959 77.4639Z" fill="#262726"/>
<path d="M5.24861 64.6226C3.35654 64.6226 1.58246 65.1601 0.103338 66.0861C0.0207479 66.1372 -0.0125042 66.2425 0.0239643 66.3319L1.05366 68.8949C1.09978 69.0077 1.23386 69.0513 1.34005 68.9896C2.55209 68.2861 3.97007 67.871 5.24861 67.871C7.60083 67.871 9.5122 69.3068 10.2158 71.3833H3.51743C3.40588 71.3833 3.31578 71.4727 3.31578 71.5823V74.1176C3.31578 74.2272 3.40588 74.3166 3.51743 74.3166H10.3917C9.89405 76.7572 7.8368 78.492 5.24861 78.492C3.969 78.492 2.54994 78.0769 1.33683 77.3691C1.23064 77.3064 1.09549 77.35 1.05045 77.4639L0.0186001 80.03C-0.0178684 80.1205 0.0153837 80.2248 0.0979741 80.2769C1.57817 81.2018 3.3544 81.7415 5.24861 81.7415C10.2148 81.7415 14.1137 78.0184 14.1137 73.2001C14.1137 68.3457 10.2148 64.6226 5.24861 64.6226Z" fill="#262726"/>
<path d="M41.343 78.2099H38.5134V73.0191H41.343C43.2962 73.0191 44.4492 74.0568 44.4492 75.615C44.4492 77.4893 43.2232 78.2099 41.343 78.2099ZM41.476 69.808H38.5134V64.7055C38.5134 64.5853 38.4051 64.4916 38.285 64.5086L34.9706 64.9642C34.872 64.978 34.7969 65.0621 34.7969 65.1621V81.057C34.7969 81.1677 34.887 81.2571 34.9985 81.2571H41.476C45.7138 81.2571 48.2677 79.2902 48.2677 75.615C48.2677 71.9388 45.6269 69.808 41.476 69.808Z" fill="#262726"/>
<path d="M19.7032 64.9884C19.6045 64.9884 19.5208 65.0576 19.5048 65.1534C19.3825 65.8942 18.873 68.9658 18.3839 71.747C18.135 73.1583 17.7028 75.4062 17.2973 76.2342C16.6977 77.4625 15.6874 78.084 14.4077 78.3757C14.2983 78.4012 14.2275 78.5076 14.2565 78.6173L15.0063 81.5304C15.0309 81.6283 15.1275 81.6932 15.2283 81.6815C18.1779 81.342 19.9831 80.2095 20.9538 76.5982C21.4966 74.576 22.6829 68.2623 22.6829 68.2623H26.8049V81.1078C26.8049 81.2175 26.895 81.3069 27.0065 81.3069H30.2898C30.4002 81.3069 30.4903 81.2175 30.4903 81.1078V65.1874C30.4903 65.0768 30.4002 64.9884 30.2898 64.9884H19.7032Z" fill="#262726"/>
<path d="M78.6396 78.2455C75.7779 78.2455 73.8183 76.0678 73.8183 73.2686C73.8183 70.3651 75.8831 68.1875 78.7448 68.1875C81.5721 68.1875 83.7002 70.3651 83.7002 73.1994C83.7002 76.1019 81.5024 78.2455 78.6396 78.2455ZM78.9056 64.7943C77.0307 64.7943 75.1934 65.6384 74.0564 66.6133V64.7049C74.0564 64.5847 73.9491 64.491 73.8279 64.508L70.5136 64.9636C70.4138 64.9774 70.3398 65.0615 70.3398 65.1616V89.1039C70.3398 89.2146 70.4299 89.304 70.5415 89.304H73.8548C73.9663 89.304 74.0564 89.2146 74.0564 89.1039V80.2411C75.3425 81.0245 76.9085 81.4736 78.6868 81.4736C83.5908 81.4736 87.0445 77.973 87.0445 73.2112C87.0445 68.1875 83.4213 64.7943 78.9056 64.7943Z" fill="#262726"/>
<path d="M58.8048 77.7343C56.2488 77.7343 54.1766 75.6769 54.1766 73.1416C54.1766 70.6042 56.2488 68.549 58.8048 68.549C61.3609 68.549 63.4331 70.6042 63.4331 73.1416C63.4331 75.6769 61.3609 77.7343 58.8048 77.7343ZM59.4591 65.1144C57.286 65.1144 55.4755 65.9052 54.4651 67.0089C55.1441 64.0053 56.3893 62.8835 58.3833 62.1843C59.6822 61.7277 61.1292 61.5212 62.4066 61.1976C64.4167 60.6878 64.9702 60.327 66.0342 59.8076C66.1297 59.7607 66.1768 59.6479 66.1361 59.5511L64.8779 56.5103C64.835 56.4049 64.7138 56.3559 64.6098 56.4049C63.8085 56.7785 62.7231 57.2266 61.4681 57.5256C60.1542 57.8396 58.4949 58.2451 57.0039 58.7581C51.5691 60.6303 50.386 65.2102 50.3635 71.5888L50.3613 71.5951C50.3613 71.61 50.3624 71.6239 50.3624 71.6398C50.3624 71.6856 50.3613 71.7292 50.3613 71.775L50.3678 71.7729C50.4375 78.1898 54.1852 81.3977 58.9346 81.3977C63.7978 81.3977 67.3728 77.9258 67.3728 73.2044C67.3728 68.5863 63.9373 65.1144 59.4591 65.1144Z" fill="#262726"/>
<path d="M105.513 64.9883H101.74C101.662 64.9883 101.59 65.033 101.558 65.1032L96.748 75.4167L91.6488 65.099C91.6145 65.0308 91.5448 64.9883 91.4687 64.9883H87.6566C87.5075 64.9883 87.411 65.1415 87.4754 65.2746L94.6146 79.9774C94.6146 79.9774 93.2578 83.0671 92.6056 84.0048C91.8762 85.0553 90.9785 86.0185 89.3781 86.5901C89.287 86.6231 89.2291 86.7157 89.2462 86.8104L89.7836 89.8331C89.8029 89.9449 89.9155 90.0183 90.0271 89.9949C92.0446 89.5671 93.173 89.0349 94.5395 87.6385C95.6647 86.4879 96.6869 84.5157 97.3894 83.0171C99.7545 77.9753 104.818 67.1478 105.698 65.2682C105.759 65.1362 105.661 64.9883 105.513 64.9883Z" fill="#262726"/>
</svg>
