<svg width="231" height="71" viewBox="0 0 231 71" fill="none" xmlns="http://www.w3.org/2000/svg">
<path d="M20.5049 29.6953H24.4272L31.8674 56.0943H28.6325L26.5298 48.5H18.1192L16.1782 56.0943H12.9434L20.5049 29.6953ZM22.4054 31.8249H22.3245L18.8066 45.8883H25.802L22.4054 31.8249Z" fill="#0079C1"/>
<path d="M37.0821 47.7333C37.0821 51.6308 38.1739 54.0819 42.0961 54.0819C45.0884 54.0819 47.1506 52.7961 47.1506 49.7022C47.1506 46.2868 45.5332 45.443 42.824 44.4384L38.9017 42.9919C36.4756 42.0678 34.6155 40.2596 34.6155 36.0808C34.6155 31.902 37.5269 29.25 41.8535 29.25C46.4632 29.25 49.2129 31.8618 49.415 36.6835H46.4632C46.4632 33.7905 45.0075 31.8618 42.0557 31.8618C38.7804 31.8618 37.6482 33.8306 37.6482 36.0406C37.6482 38.4515 38.2952 39.5364 39.9935 40.1391L44.2393 41.7061C48.4446 43.2732 50.1833 45.7644 50.1833 49.2602C50.1833 54.2426 47.0698 56.7338 41.9748 56.7338C36.8799 56.7338 34.0898 53.439 34.0898 47.7735L37.0821 47.7333Z" fill="#0079C1"/>
<path d="M61.6671 56.0943H58.7153V32.3473H51.8008V29.6953H68.5008V32.3473H61.6267L61.6671 56.0943Z" fill="#0079C1"/>
<path d="M74.7663 56.0943H71.8145V29.6953H79.9016C84.5518 29.6953 87.6249 31.9454 87.6249 36.8877C87.6249 39.9013 85.8861 42.5532 82.813 42.9551V43.0354C85.6031 43.3569 87.3418 45.7677 87.3418 49.0224C87.3418 54.5272 87.8271 54.6879 88.2314 55.5317V56.1344H85.2392C84.6326 54.4067 84.39 52.8798 84.39 50.0269C84.39 46.5312 82.8535 44.5221 79.5377 44.5221H74.7258L74.7663 56.0943ZM74.7663 41.83H79.9016C81.9639 41.83 84.5518 40.8656 84.5518 37.0083C84.5518 33.1911 82.3682 32.3473 79.7803 32.3473H74.7663V41.83Z" fill="#0079C1"/>
<path d="M98.9117 29.6953H102.834L110.274 56.0943H107.039L104.937 48.5H96.5664L94.6255 56.0943H91.3906L98.9117 29.6953ZM100.812 31.8249H100.731L97.2134 45.8883H104.209L100.812 31.8249Z" fill="#0079C1"/>
<path d="M127.094 53.4825H137.931V56.1344H124.143V29.6953H127.094V53.4825Z" fill="#0079C1"/>
<path d="M144.483 56.0943H141.531V29.6953H144.483V56.0943Z" fill="#0079C1"/>
<path d="M154.671 29.6953L162.192 51.3127C162.516 52.2369 162.799 53.0003 163.122 54.2058H163.244C163.203 53.2414 163.122 52.2369 163.122 51.2725V29.6953H166.074V56.0943H161.222L153.822 34.9992C153.377 33.7938 153.094 32.6285 152.811 31.0213H152.73C152.771 32.3473 152.811 33.7134 152.811 35.0394V56.0943H149.859V29.6953H154.671Z" fill="#0079C1"/>
<path d="M174.444 29.6953V48.7009C174.444 50.7502 174.727 54.0852 179.458 54.0852C184.189 54.0852 184.472 50.7502 184.472 48.7009V29.6953H187.424V49.7457C187.424 54.4468 184.27 56.697 179.458 56.697C174.606 56.697 171.492 54.4468 171.492 49.7457V29.6953H174.444Z" fill="#0079C1"/>
<path d="M194.662 29.6953L200.242 39.9817L205.822 29.6953H209.097L201.981 42.5131L209.259 56.0943H205.903L200.242 45.0445L194.5 56.0943H191.225L198.584 42.5131L191.427 29.6953H194.662Z" fill="#0079C1"/>
<path d="M155.439 68.0647H13.1051C7.52498 68.0647 2.95573 63.5644 2.95573 57.9793V26.8792C2.99616 21.294 7.52498 16.7937 13.1051 16.7937H104.571C105.38 16.7937 106.067 16.1508 106.067 15.307C106.067 14.5034 105.42 13.8203 104.571 13.8203H13.1051C5.86711 13.8203 0.00390625 19.6466 0.00390625 26.839V57.9391C0.00390625 65.1315 5.86711 70.9578 13.1051 70.9578H155.439V68.0647Z" fill="#0079C1"/>
<path d="M216.903 13.8203H125.518C124.709 13.8203 124.021 14.4632 124.021 15.307C124.021 16.1106 124.668 16.7937 125.518 16.7937H216.903C222.483 16.7937 227.052 21.294 227.052 26.8792V57.9793C227.052 63.5645 222.523 68.0647 216.903 68.0647L155.439 68.0647L155.44 70.9979H216.903C224.141 70.9979 230.004 65.1717 230.004 57.9793V26.8792C230.004 19.6867 224.141 13.8203 216.903 13.8203Z" fill="#0079C1"/>
<path d="M126.528 9.08092L118.723 7.75494C118.036 6.34861 115.772 1.56706 115.772 1.56706L115.044 0L111.324 7.75494L103.52 9.08092L109.1 15.0679L107.846 23.5863L115.044 19.6485L122.241 23.5461L120.988 15.0277C121.999 13.9428 125.355 10.3265 125.517 10.1256L126.528 9.08092ZM119.937 14.7063L120.988 21.8183L115.003 18.5235L109.019 21.7781L110.07 14.6661L105.42 9.64345L111.93 8.51838L115.003 2.08941L118.076 8.51838L124.587 9.64345L119.937 14.7063Z" fill="#0079C1"/>
<path d="M110.641 15.9924L112.784 18.9256L113.714 18.4434L110.115 11.0099L114.846 17.8005L115.008 17.7202L116.666 18.6042L113.027 10.6483L119.213 20.0105L120.062 20.4927L119.941 19.5685L115.938 10.2867L119.375 15.7513L119.173 14.4655L120.224 13.3404L118.849 9.92505L120.628 12.8984L123.176 10.1661L117.596 9.20179L115.008 3.77734L112.42 9.20179L106.84 10.1661L110.843 14.4655L110.641 15.9924Z" fill="#0079C1"/>
<path d="M110.4 17.5625L109.955 20.4957L111.492 19.6519L110.4 17.5625Z" fill="#0079C1"/>
<path d="M217.834 33.0728C217.834 35.0014 216.297 36.5283 214.356 36.5283C212.456 36.5283 210.879 35.0014 210.879 33.0728C210.879 31.1842 212.456 29.6172 214.356 29.6172C216.297 29.6172 217.834 31.1441 217.834 33.0728ZM211.405 33.0728C211.405 34.7202 212.699 36.006 214.356 36.006C216.014 36.006 217.308 34.7202 217.308 33.0728C217.308 31.4655 216.014 30.1395 214.356 30.1395C212.699 30.1395 211.405 31.4253 211.405 33.0728ZM213.062 31.1039H214.761C215.408 31.1039 216.136 31.3048 216.136 32.1486C216.136 32.912 215.529 33.1933 214.923 33.1933L216.095 34.9613H215.529L214.437 33.1933H213.588V34.9613H213.103V31.1039H213.062ZM213.548 32.8317H214.68C215.044 32.8317 215.65 32.7513 215.65 32.1084C215.65 31.5459 215.125 31.4655 214.639 31.4655H213.548V32.8317Z" fill="#0079C1"/>
</svg>
