<svg width="179" height="38" viewBox="0 0 179 38" fill="none" xmlns="http://www.w3.org/2000/svg">
<path d="M23.7921 37.0253V32.0007H0V37.0253H23.7921ZM66.7023 6.80247C63.3047 7.27143 60.9843 8.66994 59.7412 10.998C58.1999 13.728 57.8352 16.3994 58.6473 19.0122C60.0561 23.2161 62.7411 25.385 66.7023 25.519V32.0259H71.1028V25.519C75.0474 25.3683 77.7241 23.1994 79.1329 19.0122C79.945 16.3994 79.5804 13.728 78.039 10.998C76.796 8.66994 74.4839 7.27143 71.1028 6.80247V0.345883H66.7023V6.80247ZM67.6968 10.9729C67.3487 11.0231 67.0173 11.0901 66.7023 11.1739V21.2481C67.0173 21.3151 67.3487 21.357 67.6968 21.3738C67.3487 21.357 67.0173 21.3151 66.7023 21.2481C65.0449 20.8797 63.8848 19.7156 63.2218 17.7561C62.7743 16.2989 62.9815 14.8167 63.8433 13.3093C64.3903 12.2541 65.3433 11.5423 66.7023 11.1739C67.0173 11.0901 67.3487 11.0231 67.6968 10.9729ZM70.1332 10.9729C70.4812 11.0231 70.8044 11.0901 71.1028 11.1739C72.4618 11.5423 73.4231 12.2541 73.9867 13.3093C74.8485 14.8167 75.0557 16.2989 74.6082 17.7561C73.9286 19.7156 72.7602 20.8797 71.1028 21.2481C70.8044 21.3151 70.4812 21.357 70.1332 21.3738C70.4812 21.357 70.8044 21.3151 71.1028 21.2481V11.1739C70.8044 11.0901 70.4812 11.0231 70.1332 10.9729ZM46.9378 7.48079H42.4628V25.0166H51.8851C54.2552 24.6984 55.7469 23.4925 56.3601 21.3989L56.4098 16.7763C55.9292 14.2807 54.3961 12.899 51.8105 12.631H46.9378V7.48079ZM46.888 16.6255H50.6669C52.5232 17.9487 52.5232 19.3304 50.6669 20.7708H46.888V16.6255ZM30.4797 11.4251H34.6067V25.0417H39.3054V7.20444H26.2036V19.3388C25.7893 20.4107 24.9937 20.8043 23.8169 20.5196V24.9915L26.6511 24.6649C28.3417 24.2461 29.3858 23.3082 29.7836 21.8511C30.1648 20.394 30.2974 19.5314 30.1814 19.2634L30.4797 11.4251ZM14.146 0.798094C12.7869 0.077904 11.3615 0.0360325 9.86986 0.672479C8.26218 2.83305 5.12967 10.8473 0.47236 24.7151H5.2457L7.08542 20.1427H16.2592L17.9 25.0166H22.8722C20.701 16.86 17.7923 8.78718 14.146 0.798094ZM11.6599 5.97341L14.7178 15.3945H8.45278L11.6599 5.97341ZM166.768 7.53103H162.343V24.8407H166.669V17.8314L173.108 24.7151H179L171.02 15.5452L178.204 7.55616H172.586L166.768 14.063V7.53103ZM148.421 7.53103H143.996V24.8407H148.321V18.0827H154.736V24.8407H159.061V7.53103H154.636V13.8118H154.562H148.495L148.421 7.53103ZM128.482 13.9876C126.526 14.7413 125.507 16.0226 125.424 17.8314C124.944 21.6166 126.17 23.8944 129.104 24.6649C131.722 25.7535 134.093 25.2427 136.214 23.1324C137.54 24.891 139.33 25.452 141.584 24.8156V21.022L140.167 19.9669V11.5758C139.786 9.41525 138.277 7.91625 135.642 7.07882C133.769 6.49262 131.988 6.49262 130.297 7.07882C127.562 8.20098 126.054 9.94283 125.772 12.3044H130.347C130.479 11.5674 130.877 11.1739 131.54 11.1236H134.399C135.278 11.5926 135.634 12.3546 135.468 13.4098C132.733 13.1586 130.405 13.3512 128.482 13.9876ZM130.919 17.5048H135.717V19.4142C135.286 20.1846 134.797 20.6954 134.25 20.9467C133.04 21.6334 131.93 21.6334 130.919 20.9467C129.576 19.6738 129.576 18.5265 130.919 17.5048ZM110.508 5.09411H122.043V0.345883H105.361V24.8156H117.668C120.784 24.2126 122.615 22.588 123.162 19.9418L123.112 14.5152C122.748 12.3044 121.016 10.8724 117.916 10.2192C115.612 9.90096 113.143 9.75022 110.508 9.76697V5.09411ZM110.284 14.2389L116.101 14.2137C119.565 16.3241 119.565 18.3674 116.101 20.3437H110.284V14.2389ZM96.0136 11.5758C95.6324 9.41525 94.1241 7.91625 91.4889 7.07882C89.616 6.49262 87.8343 6.49262 86.1437 7.07882C83.409 8.20098 81.9008 9.94283 81.619 12.3044H86.1935C86.326 11.5674 86.7238 11.1739 87.3868 11.1236H90.2458C91.1242 11.5926 91.4806 12.3546 91.3148 13.4098C88.5801 13.1586 86.2515 13.3512 84.3289 13.9876C82.3731 14.7413 81.3538 16.0226 81.271 17.8314C80.7903 21.6166 82.0168 23.8944 84.9504 24.6649C87.5691 25.7535 89.9392 25.2427 92.0607 23.1324C93.3866 24.891 95.1766 25.452 97.4307 24.8156V21.022L96.0136 19.9669V11.5758ZM91.5635 19.4142C91.1325 20.1846 90.6436 20.6954 90.0966 20.9467C88.8867 21.6334 87.7763 21.6334 86.7653 20.9467C85.4228 19.6738 85.4228 18.5265 86.7653 17.5048H91.5635V19.4142Z" fill="white"/>
</svg>
