<svg width="208" height="44" viewBox="0 0 208 44" fill="none" xmlns="http://www.w3.org/2000/svg">
<path fill-rule="evenodd" clip-rule="evenodd" d="M0.749582 21.9751C0.749582 10.2668 10.2626 0.745018 21.9669 0.745018C33.645 0.745018 43.1581 10.2664 43.1581 21.9751C43.1581 33.6603 33.645 43.1767 21.9669 43.1767C10.2626 43.1767 0.749582 33.6603 0.749582 21.9751ZM0 21.9751C0 34.0732 9.84974 43.925 21.9669 43.925C34.0554 43.925 43.9035 34.0732 43.9035 21.9751C43.9035 9.85015 34.0558 0 21.9669 0C9.84974 0 0 9.85015 0 21.9751Z" fill="white"/>
<path fill-rule="evenodd" clip-rule="evenodd" d="M35.9403 19.7312C35.7598 19.8857 35.5796 20.0132 35.4007 20.171C34.1869 21.0958 32.2529 21.8462 29.5991 22.5448C24.0833 24.0386 20.0827 24.2419 15.5443 25.3564C14.6435 25.5866 13.7154 25.8699 12.8669 26.231C13.7154 26.6708 14.6435 27.0568 15.572 27.4192C17.4269 26.8787 18.3074 26.6456 20.9847 26.207C22.0163 26.0227 25.1621 25.4566 27.4307 24.9969C31.5327 24.116 37.5393 22.2069 35.9403 19.7312ZM33.2861 14.5711C32.4057 14.1864 31.3232 13.7971 30.1665 13.4902C29.6467 13.9031 29.0578 14.2621 28.177 14.6013C29.6248 14.8548 30.7077 15.2677 31.9415 15.6052C32.1481 15.7091 33.1275 14.8092 33.2861 14.5711ZM13.2003 20.0666C18.5637 18.4921 24.1847 18.0038 29.8828 16.4827C27.6655 15.8901 26.424 15.63 24.0833 15.9154C20.6779 16.3283 16.9134 17.0468 13.6923 18.0034C12.4263 18.3915 5.80178 20.2729 7.71217 22.9034C7.71176 22.9304 8.84234 21.3326 13.2003 20.0666ZM9.51324 29.0931C9.48715 29.5851 9.79858 30.0228 10.4434 30.5653C10.5192 30.3048 10.65 30.1019 10.8306 29.8435C10.3904 29.6083 9.95139 29.3784 9.51324 29.0931ZM12.0158 28.8645C12.4263 28.6044 12.9145 28.3712 13.4562 28.1658C12.7099 27.8287 11.9111 27.4978 11.1371 27.1355C10.7759 27.3674 10.443 27.5989 10.1854 27.8287C10.8024 28.1915 11.3975 28.5257 12.0158 28.8645ZM32.6123 17.4634C31.5331 17.979 29.9863 18.4925 27.7686 19.0363C25.9382 19.4993 21.5032 20.1441 16.7349 21.1749C15.239 21.5107 11.1375 22.4636 9.12644 24.1661C9.6938 24.6345 10.0545 24.7352 10.6732 25.0963C11.4982 24.5538 12.6329 24.0386 14.311 23.5971C17.2207 22.8268 19.4147 22.4926 22.0462 22.0561C24.649 21.6631 29.5714 20.634 32.279 19.6521C33.183 19.3448 34.0063 18.9319 34.5981 18.4383C34.4167 18.2353 32.6641 17.3843 32.6123 17.4634ZM34.1869 16.5063C34.7265 16.7652 35.2201 16.9461 35.6823 17.282C36.0157 16.6355 35.809 16.2227 35.1166 15.6304C34.8317 15.9675 34.5203 16.2496 34.1869 16.5063ZM9.25689 26.1788C8.7649 25.9237 8.45637 25.7171 8.04306 25.457C7.83641 25.9237 8.25303 26.4356 8.66344 26.6708C8.84234 26.4894 9.07674 26.3349 9.25689 26.1788ZM32.045 11.3765C31.9415 11.7376 31.5592 12.1757 31.2987 12.4611C32.0988 12.6677 32.9238 12.973 33.6953 13.2583C33.5934 12.5365 32.7685 11.8399 32.045 11.3765ZM6.83131 15.9373C12.4523 12.2764 18.6668 10.1109 29.1846 11.9438C29.7519 11.6063 30.0857 11.2709 30.2439 10.6008C27.6117 9.64745 24.7521 9.31159 21.0667 9.3617C17.764 9.46565 11.808 10.7014 8.61457 12.5882L9.59068 11.376C11.8079 10.0566 17.6079 8.33093 21.9675 8.25224C25.0333 8.17687 26.6062 8.35494 30.2684 9.3352C29.9312 8.72062 29.185 8.40837 28.0759 7.89319C24.5459 6.31865 17.9707 6.16253 12.5836 8.56119C13.2516 8.09777 13.9225 7.68322 14.8013 7.30222C16.5767 6.47478 19.4922 5.67385 23.1258 5.75129C26.0417 5.80306 29.4964 6.80899 31.6089 8.89871C31.968 9.3352 32.1763 9.77336 32.2533 10.1109C33.9297 10.9619 34.9075 11.7608 35.4487 12.6893C35.6827 13.1796 35.7602 13.6948 35.6554 14.2874C36.3511 14.6986 36.6887 15.0614 37.0514 15.5298C37.2796 15.9158 37.4602 16.3506 37.514 16.7436C37.5894 17.2555 37.6408 17.8498 37.0995 18.5468C37.6668 18.8321 38.1294 19.6276 38.1849 19.9668C38.4669 21.2258 37.6412 22.4645 36.586 23.4215C35.3465 24.5024 32.6136 25.7937 30.3959 26.3627C26.016 27.4693 22.1211 27.936 19.0304 28.5034C20.4211 28.8376 22.3029 29.2786 25.3716 29.2786C31.9427 29.2786 37.7439 26.1801 37.7439 26.1801C37.7439 26.1801 37.6171 26.571 37.4863 26.9321C33.3097 29.4583 26.6865 30.514 23.848 30.3852C20.986 30.2543 18.5645 29.8178 16.1924 29.0943C15.4697 29.3022 14.7479 29.5354 14.0538 29.8178C17.6638 31.4677 20.395 31.8301 23.4637 32.0604C26.607 32.2952 31.8176 31.5435 36.1971 29.9483C35.9908 30.1566 35.8881 30.4639 35.6836 30.6452C33.4385 31.8301 28.698 33.0174 26.2997 33.1197C23.9255 33.2236 21.0398 33.1197 18.5124 32.6546C16.3469 32.2181 14.5657 31.5435 12.7108 30.7227C12.3778 30.9761 12.2233 31.2901 12.1434 31.6508C19.3911 35.4413 26.1428 35.5184 33.8543 33.1197L33.1544 33.791C24.673 37.2478 18.0481 35.9047 12.9158 33.4303C12.7369 33.3516 12.5306 33.2725 12.3778 33.1702C12.8681 33.9977 16.7833 36.8597 21.1665 37.2204C24.1856 37.4789 27.8709 36.962 30.0625 36.0878L28.775 36.7558C27.7156 37.2726 24.9074 38.4612 20.986 38.2024C15.7538 37.84 12.8126 35.5184 11.499 34.3083C10.8786 33.7372 10.5983 33.0944 10.416 32.2956C9.22997 31.676 8.48246 31.0296 7.8654 30.0493C7.50428 29.5089 7.58006 28.8661 7.65751 28.3203L7.81612 27.8606C7.2471 27.4444 6.65365 27.0063 6.42215 26.5714C5.90448 25.6417 6.21715 24.8391 6.57662 24.2212C6.26519 23.8605 5.98151 23.4994 5.85644 23.1387C5.70197 22.7258 5.67588 22.3092 5.72392 21.8478C5.82704 21.0755 6.24159 20.354 6.78327 19.7328C7.91551 18.4184 9.72444 17.386 12.7886 16.3804C15.8076 15.3733 17.0198 15.2171 19.2884 14.6999C21.9426 14.0841 25.114 13.8791 27.7699 12.9506C20.3677 11.6614 12.688 12.8466 6.42256 17.1507L6.83131 15.9373Z" fill="white"/>
<path fill-rule="evenodd" clip-rule="evenodd" d="M71.5682 18.1346L72.4193 24.0153H70.7155L71.5682 18.1346ZM64.9434 31.5724H69.4541L70.0215 28.2436H73.1411L73.6828 31.5724H78.1936L74.3769 12.3301H68.7579L64.9434 31.5724Z" fill="white"/>
<path fill-rule="evenodd" clip-rule="evenodd" d="M82.4727 19.7849C83.1929 19.7849 84.5098 19.3199 84.5098 17.9014C84.5098 16.2263 82.9891 16.1203 82.5485 16.1203C82.035 16.1203 81.0556 16.199 80.101 16.664L80.0496 12.4825C81.5703 12.0961 82.6533 11.9922 83.9408 11.9922C87.6047 11.9922 89.2285 14.547 89.2285 17.0467C89.2285 19.4739 87.8345 20.9412 86.4695 21.5102V21.6899C87.7848 22.1061 89.5362 23.3672 89.5362 26.3079C89.5362 29.9469 87.0108 31.9567 83.7619 31.9567C82.0346 31.9331 80.8998 31.7016 79.5332 30.9529L79.6106 26.9527C80.8746 27.4965 81.7248 27.547 82.5763 27.547C84.0207 27.547 84.5856 26.4877 84.5856 25.717C84.5856 24.6328 83.8915 23.9109 82.3696 23.9109H80.5652V19.7849H82.4727Z" fill="white"/>
<path fill-rule="evenodd" clip-rule="evenodd" d="M91.625 12.3281H103.793V31.5708H99.3328V16.9714H96.0852V31.5708H91.625V12.3281Z" fill="white"/>
<path fill-rule="evenodd" clip-rule="evenodd" d="M110.805 16.56H111.863C112.87 16.56 113.515 17.1796 113.515 18.7794C113.515 20.8426 112.431 20.9954 111.863 20.9954H110.805V16.56ZM106.346 31.5724H110.805V25.2287H112.303C116.709 25.2287 118.077 21.2555 118.077 18.7239C118.077 16.2494 116.502 12.3301 112.303 12.3301H106.346V31.5724Z" fill="white"/>
<path fill-rule="evenodd" clip-rule="evenodd" d="M126.326 27.1326C124.751 27.1326 123.955 25.303 123.955 21.9237C123.955 18.5427 124.751 16.713 126.326 16.713C127.901 16.713 128.696 18.5427 128.696 21.9237C128.696 25.303 127.901 27.1326 126.326 27.1326ZM126.326 31.8024C131.612 31.8024 133.388 26.8485 133.388 21.9237C133.388 16.9988 131.612 12.0449 126.326 12.0449C121.042 12.0449 119.264 16.9988 119.264 21.9237C119.264 26.8485 121.042 31.8024 126.326 31.8024Z" fill="white"/>
<path fill-rule="evenodd" clip-rule="evenodd" d="M157.188 27.7015V23.3435H157.833C158.373 23.3435 159.767 23.3692 159.767 25.3546C159.767 27.3689 158.373 27.7015 157.833 27.7015H157.188ZM152.83 31.5707H158.141C159.3 31.5707 164.122 31.0787 164.148 25.2486C164.148 20.3539 160.411 19.5012 157.987 19.5012H157.188V16.9464H163.091V12.3301H152.83V31.5707Z" fill="white"/>
<path fill-rule="evenodd" clip-rule="evenodd" d="M180.185 12.3281H184.541V19.2678H187.661V12.3281H192.016V31.5708H187.661V23.8592H184.541V31.5708H180.185V12.3281Z" fill="white"/>
<path fill-rule="evenodd" clip-rule="evenodd" d="M194.953 12.3281H199.338L199.311 19.2408H200.264L202.766 12.3281H207.51L204.105 21.4618L208 31.5708H202.868L200.343 23.8319H199.311L199.338 31.5708H194.953V12.3281Z" fill="white"/>
<path fill-rule="evenodd" clip-rule="evenodd" d="M56.3086 12.3281H65.4564V17.1259H60.8442V31.5708H56.3086V12.3281Z" fill="white"/>
<path fill-rule="evenodd" clip-rule="evenodd" d="M135.532 12.3281H139.322L142.67 16.8691L146.05 12.3281H149.814V31.5708H145.351V19.8335L142.67 23.1871L139.991 19.8335V31.5708H135.532V12.3281Z" fill="white"/>
<path fill-rule="evenodd" clip-rule="evenodd" d="M171.651 18.1819L172.475 24.0373H170.798L171.651 18.1819ZM165 31.5944H169.538L170.08 28.2677H173.197L173.739 31.5944H178.277L174.461 12.3555H168.839L165 31.5944Z" fill="white"/>
</svg>
