<svg width="208" height="32" viewBox="0 0 208 32" fill="none" xmlns="http://www.w3.org/2000/svg">
<path d="M28.8696 6.21875C29.6351 7.20141 30.2833 8.26899 30.8008 9.40005L16.1199 20.1439L9.98438 16.3256V11.732L16.1199 15.5503L28.8696 6.21875Z" fill="white"/>
<path d="M3.72337 16.0004C3.72337 15.7943 3.72844 15.5895 3.73856 15.386L0.0202506 15.2051C0.00759465 15.4689 4.49341e-06 15.7353 4.49341e-06 16.0042C-0.00157755 18.1048 0.414609 20.1849 1.2247 22.1254C2.03478 24.0659 3.22282 25.8285 4.72066 27.3121L7.35815 24.695C6.20517 23.555 5.2905 22.1999 4.66672 20.7078C4.04294 19.2157 3.72236 17.6159 3.72337 16.0004Z" fill="white"/>
<path d="M16.1174 3.69589C16.3249 3.69589 16.5312 3.70344 16.7362 3.71348L16.9222 0.0208108C16.6557 0.00824642 16.3874 0.00196499 16.1174 0.00196499C14.0005 -0.000597838 11.904 0.411983 9.94828 1.21601C7.9925 2.02005 6.21598 3.1997 4.7207 4.68723L7.3582 7.30565C8.50658 6.16063 9.87162 5.25225 11.3748 4.63276C12.8781 4.01327 14.4897 3.69488 16.1174 3.69589Z" fill="white"/>
<path d="M16.1186 28.3057C15.9111 28.3057 15.7048 28.3057 15.4986 28.2894L15.3125 31.9808C15.5799 31.9942 15.8487 32.0009 16.1186 32.0009C18.2347 32.0031 20.3301 31.5903 22.2848 30.786C24.2396 29.9817 26.0149 28.8019 27.5091 27.3144L24.8766 24.6973C23.728 25.8417 22.3631 26.7495 20.8602 27.3688C19.3573 27.9881 17.7459 28.3065 16.1186 28.3057Z" fill="white"/>
<path d="M23.1025 5.84247L26.2361 3.54946C23.372 1.24699 19.7968 -0.00639142 16.1113 2.45099e-05V3.69521C18.6069 3.69214 21.0446 4.44087 23.1025 5.84247Z" fill="white"/>
<path d="M32.2346 16C32.2366 15.0387 32.1519 14.0791 31.9815 13.1328L28.5125 15.6708C28.5125 15.7802 28.5125 15.8895 28.5125 16C28.5134 17.7192 28.1504 19.4194 27.4471 20.9903C26.7437 22.5613 25.7157 23.968 24.4297 25.1192L26.9318 27.8646C28.6037 26.3662 29.9397 24.5357 30.8532 22.4918C31.7668 20.4478 32.2374 18.2361 32.2346 16Z" fill="white"/>
<path d="M16.117 28.3052C14.3852 28.3058 12.6726 27.9453 11.0899 27.2471C9.50739 26.5489 8.09017 25.5284 6.93006 24.252L4.16602 26.7347C5.67518 28.3948 7.51896 29.7213 9.57779 30.6285C11.6366 31.5356 13.8645 32.003 16.117 32.0004V28.3052Z" fill="white"/>
<path d="M7.80619 6.88009L5.30537 4.13477C3.63298 5.63291 2.29646 7.46331 1.38248 9.50725C0.468516 11.5512 -0.00249179 13.763 9.91357e-06 15.9993H3.72338C3.72261 14.2802 4.08567 12.58 4.78899 11.0091C5.49233 9.43819 6.52026 8.03146 7.80619 6.88009Z" fill="white"/>
<path d="M93.0096 9.14909L97.621 5.81445H82.1875V25.8527H97.621V22.5181H86.5913V17.3853H96.0001V14.0506H86.5913V9.14909H93.0096Z" fill="white"/>
<path d="M71.8023 13.6204H66.4442V9.14751H74.9956L79.6043 5.80273H62.043V25.841H71.2356C76.3894 25.841 79.3472 23.5483 79.3472 19.5498C79.3472 15.7245 76.6681 13.6204 71.8023 13.6204ZM71.0373 22.5053H66.4442V16.953H71.0373C73.8249 16.953 75.1319 17.8835 75.1319 19.7292C75.1319 21.5749 73.7412 22.5053 71.0373 22.5053Z" fill="white"/>
<path d="M108.965 5.8125H100.564V25.8507H104.968V20.1742H108.965C114.325 20.1742 117.641 17.4059 117.641 12.9827C117.641 8.55951 114.325 5.8125 108.965 5.8125ZM108.873 16.8371H104.968V9.14968H108.873C111.692 9.14968 113.248 10.5156 113.248 12.9949C113.248 15.4742 111.692 16.8371 108.873 16.8371Z" fill="white"/>
<path d="M55.4353 21.122C54.2978 21.7266 53.0234 22.0396 51.73 22.0322C47.8586 22.0322 45.0502 19.3195 45.0502 15.584C45.0502 11.8485 47.8586 9.12988 51.73 9.12988C53.126 9.1066 54.4931 9.52212 55.6315 10.3158L58.7117 8.08927L58.5033 7.944C56.7066 6.39348 54.3059 5.57227 51.5579 5.57227C48.5773 5.57227 45.8747 6.55653 43.945 8.3472C42.9693 9.26919 42.1977 10.3787 41.6781 11.6065C41.1586 12.8342 40.9022 14.1538 40.9253 15.4832C40.9046 16.826 41.1598 18.1591 41.6755 19.403C42.1912 20.6469 42.9569 21.776 43.9269 22.723C45.8656 24.5848 48.5622 25.6105 51.5216 25.6105C54.6139 25.6105 57.3166 24.5521 59.1466 22.6251L56.3895 20.6091L55.4353 21.122Z" fill="white"/>
<path d="M135.1 13.6204H129.744V9.14751H141.254V5.80273H125.34V25.841H134.521C139.674 25.841 142.632 23.5483 142.632 19.5498C142.644 15.7245 139.966 13.6204 135.1 13.6204ZM134.335 22.5053H129.744V16.953H134.335C137.122 16.953 138.429 17.8835 138.429 19.7292C138.429 21.5749 137.05 22.5053 134.335 22.5053Z" fill="white"/>
<path d="M192.697 25.8137H188.232V5.77539H192.697V14.1916H195.126L201.688 5.77539H206.747L198.964 15.3078L208.001 25.8137H202.078L195.436 17.9328H192.697V25.8137Z" fill="white"/>
<path d="M158.852 22.0045H149.408L147.807 25.8957H143.057L151.914 5.85742H156.664L165.377 25.8957H160.453L158.852 22.0045ZM157.373 18.3737L154.158 10.5913L150.925 18.3737H157.373Z" fill="white"/>
<path d="M171.386 5.85742V14.225H180.624V5.85742H185.227V25.8957H180.624V17.9999H171.386V25.8957H166.783V5.85742H171.386Z" fill="white"/>
</svg>
