<svg width="110" height="110" viewBox="0 0 110 110" fill="none" xmlns="http://www.w3.org/2000/svg">
<path d="M21.639 79.9882C20.9837 82.5329 20.1834 85.641 18.5889 85.641C16.6404 85.641 15.9485 84.2605 15.1043 82.5762C14.794 81.9571 14.4632 81.297 14.0418 80.6494C12.5021 78.2827 12.173 75.75 11.8647 73.3773L11.8479 73.2478C11.8334 73.1371 11.8227 73.0308 11.8153 72.9286L8.1481 72.4807L5 70.6949V67.5077L7.51848 66.8141L10.6666 70.2855L12.4982 70.6949C12.6437 70.5398 12.7962 70.4084 12.9389 70.2855C13.1282 70.1224 13.3002 69.9742 13.4156 69.8053C13.7024 69.3854 14.2224 69.3496 14.8334 69.3075C15.2244 69.2806 15.6526 69.2511 16.0808 69.1168C16.9062 68.8578 16.9335 68.5015 17.0297 67.2423C17.0614 66.8273 17.1005 66.3142 17.1783 65.6742C17.372 64.0788 17.2065 63.5349 16.9407 62.6619C16.7764 62.122 16.5737 61.4563 16.394 60.3382C16.0712 58.3301 16.7822 56.7272 17.4121 55.3072C17.7 54.658 17.971 54.0471 18.1186 53.4531C18.5889 51.5598 22.3515 50.0106 24.8599 48.9777C27.0841 48.0619 28.3222 45.793 28.7929 44.9306C28.853 44.8204 28.9007 44.7331 28.9362 44.6746C29.2497 44.1582 31.6014 42.9533 33.3259 42.9533C34.7309 42.9533 35.1994 43.753 35.9182 44.9802C36.0817 45.2593 36.2581 45.5605 36.4615 45.8795C37.178 47.0033 36.4242 47.3934 35.4218 47.912C34.889 48.1877 34.286 48.4998 33.7963 48.9777C32.9242 49.8287 32.4714 49.6278 31.8455 49.3502C31.4587 49.1786 31.0059 48.9777 30.3472 48.9777C28.6226 48.9777 30.1904 51.3876 30.9743 52.2482C31.5795 52.9127 33.5864 52.4485 35.3357 52.044C35.8521 51.9245 36.3462 51.8103 36.775 51.7318C38.6563 51.3876 40.5377 51.3876 42.2622 51.3876C43.3034 51.3876 44.0589 51.8895 44.9427 52.4767C45.5227 52.8621 46.1579 53.2842 46.9655 53.6252C48.8205 54.4085 50.2859 52.7679 51.598 51.2988C51.7276 51.1537 51.8556 51.0104 51.9824 50.8712C53.1424 49.5976 53.2428 49.6037 53.9387 49.6462C54.0893 49.6554 54.2677 49.6663 54.4908 49.6663C55.745 49.6663 55.2747 51.0433 54.4908 52.9367L54.4503 53.0346C53.7015 54.8425 53.5529 55.2015 53.7069 56.7235C53.8491 58.1284 54.3781 57.9761 55.4108 57.6788C55.5169 57.6483 55.6282 57.6162 55.745 57.5842C56.5812 57.3547 56.5812 56.8192 56.5812 56.1817C56.5812 55.8629 56.5812 55.5186 56.6857 55.1744C56.8506 54.6311 57.0156 54.4689 57.2262 54.2618C57.4159 54.0751 57.6427 53.8521 57.9399 53.281C58.286 52.6161 58.3456 52.0036 58.4085 51.3568C58.4597 50.8314 58.513 50.2834 58.7238 49.6663C58.9779 48.9225 59.3691 48.6306 59.7 48.3839C59.9816 48.1739 60.2195 47.9965 60.2916 47.6007C60.4158 46.9189 61.9174 45.805 62.8479 45.1148C63.092 44.9338 63.2968 44.7819 63.4271 44.6746C64.0542 44.1582 65.622 43.6418 67.033 44.1582C68.1091 44.552 67.7261 45.1461 67.0665 46.1695C66.8612 46.4879 66.6291 46.8479 66.4059 47.2564C65.4652 48.9777 65.7788 49.4941 67.9736 49.6663C69.5072 49.7865 71.8826 48.5624 73.3352 47.8137C73.9617 47.4909 74.4165 47.2564 74.5583 47.2564C75.0286 47.2564 76.4396 47.6007 77.3802 48.9777C78.3209 50.3547 78.7912 49.322 79.4184 47.6007C79.6082 47.0796 79.755 46.4164 79.9152 45.6924C80.2841 44.0253 80.7244 42.0357 81.9268 40.7156C82.9615 39.5795 83.8269 39.373 84.6924 39.1664C85.2693 39.0287 85.8462 38.891 86.4733 38.4779C87.4857 37.811 87.779 37.3595 88.113 36.8451C88.2962 36.5629 88.4917 36.2619 88.825 35.896C89.5305 35.1214 89.7068 34.3469 90.0155 32.9914C90.1184 32.5395 90.2359 32.0231 90.3927 31.4207C90.5253 30.9114 90.6298 30.5482 90.7063 30.2824C90.8444 29.8026 90.8912 29.6397 90.8469 29.5073C90.8241 29.4393 90.7773 29.3793 90.7063 29.2885C90.6298 29.1907 90.5253 29.057 90.3927 28.8388C89.8928 28.0154 90.2897 26.8637 90.7095 25.6455C90.8163 25.3358 90.9245 25.0217 91.0198 24.7076C91.3841 23.508 92.3124 24.0631 93.3681 24.6944C93.6756 24.8783 93.9939 25.0687 94.3121 25.224C95.7086 25.9054 95.8765 27.9356 96.0319 29.8129L96.0367 29.8715C96.1272 30.9646 96.479 31.1398 97.1826 31.4901C97.6977 31.7465 98.4014 32.0968 99.329 32.9698C101.226 34.7554 100.781 36.4124 100.22 38.4968C100.132 38.8235 100.041 39.1608 99.9561 39.5107C99.329 42.0926 99.7994 45.8794 100.583 47.2564C100.914 47.8369 101.857 48.7231 102.92 49.7217C104.378 51.0924 106.063 52.6749 106.698 53.9694C107.795 56.2071 105.6 57.2399 104.973 57.412C104.346 57.5841 101.994 54.4858 99.329 50.5269C97.1969 47.3597 96.5593 48.1744 96.507 48.9777C96.507 50.1252 96.1621 52.6613 94.7825 53.6252C93.5305 54.4999 93.8484 56.2817 94.1167 57.7853C94.218 58.3529 94.3121 58.8809 94.3121 59.3054C94.3121 60.8546 94.3121 62.748 94.7825 64.125C95.128 65.1366 95.8119 65.0335 96.6478 64.9075C96.9497 64.862 97.2716 64.8135 97.6045 64.8135C98.8587 64.8135 99.6426 65.1578 100.583 67.5676C101.254 69.2871 101.287 69.6044 101.535 72.0215C101.635 72.9918 101.77 74.3004 101.994 76.174C102.778 82.7148 99.0155 83.9197 98.2316 83.2312C97.7462 82.8049 97.7417 82.1145 97.7342 80.9557C97.7296 80.2432 97.7239 79.3536 97.6045 78.2395C97.4234 76.5501 97.0856 76.5819 96.41 76.6456C95.9154 76.6923 95.2398 76.756 94.3121 76.174C93.2147 75.4855 92.666 75.4855 92.2545 75.4855C91.8429 75.4855 91.5686 75.4855 91.0198 74.7969C89.9224 73.4199 88.825 73.2478 87.414 73.2478C86.3025 73.2478 86.2611 73.8886 86.1404 75.7593L86.1403 75.7608C86.1077 76.2645 86.0695 76.8575 86.003 77.551C85.777 79.908 84.5738 80.7451 83.3325 81.6088C82.8514 81.9435 82.3646 82.2822 81.9268 82.7148C80.6726 83.9542 77.4325 83.2312 75.9693 82.7148H72.3634C72.0373 82.7148 71.73 82.6942 71.4351 82.6743C70.8793 82.6369 70.3671 82.6024 69.855 82.7148C69.0711 82.887 66.8762 83.5755 65.9355 83.9197C64.9949 84.264 59.1941 85.641 55.4315 85.641C52.0103 85.641 51.0518 82.6527 50.6703 81.4633C50.6322 81.3446 50.5999 81.2438 50.5714 81.1657C50.2578 80.305 49.6307 79.7887 47.5926 79.2723C46.1799 78.9144 45.9724 78.2256 45.717 77.3781C45.604 77.0029 45.4815 76.5965 45.241 76.174C44.7375 75.2895 44.234 75.5412 43.6474 75.8345C43.3208 75.9978 42.9683 76.174 42.5758 76.174C42.2788 76.174 41.8097 75.9597 41.2523 75.7052C39.7496 75.0189 37.605 74.0396 36.4615 76.174C36.3401 76.4005 36.2291 76.6095 36.1268 76.8019C35.4216 78.1294 35.1355 78.6678 34.7671 78.7318C34.5158 78.7754 34.2261 78.5982 33.7388 78.3002C33.7065 78.2805 33.6735 78.2602 33.6395 78.2395C33.0344 77.8704 32.1409 76.8998 31.2312 75.9116C30.0196 74.5954 28.7791 73.2478 28.1523 73.2478C27.0549 73.2478 23.449 74.7969 22.3515 77.551C22.1115 78.1533 21.8855 79.0309 21.639 79.9882Z" fill="#1B4ED1"/>
<path d="M46.822 44.1745L45.3792 47.7816C45.3285 47.9083 45.3859 48.0687 45.4366 48.1954C45.5703 48.5296 45.7489 49.1743 46.1005 49.0974C46.5417 49.001 46.9548 48.8498 47.1845 48.6201C47.8141 47.9905 47.8141 46.7312 48.4437 46.1016C49.6859 44.8594 51.2041 43.9341 52.8548 43.3329C53.8625 42.9659 54.8503 42.5835 55.3696 42.3239C56.6288 41.6943 56.6288 40.435 56.6288 39.8054C56.6288 39.1758 55.3696 39.1758 54.1103 39.1758C52.8511 39.1758 52.2215 39.1758 51.5918 39.8054C51.3797 40.0175 50.8624 40.3115 50.2561 40.6122C48.7279 41.3701 47.4556 42.5907 46.822 44.1745Z" fill="#1B4ED1"/>
</svg>
