<svg width="110" height="110" viewBox="0 0 110 110" fill="none" xmlns="http://www.w3.org/2000/svg">
<path d="M27.3028 53.453H29.7143C30.351 53.453 30.8282 53.3203 31.1812 53.094C31.5582 52.8484 31.8384 52.5087 32.0239 52.0572L32.0261 52.0517C32.2294 51.5717 32.3389 50.9949 32.3389 50.3094C32.3389 49.5676 32.2382 48.9626 32.0544 48.4803L32.0496 48.4677C31.8822 47.9934 31.6239 47.6608 31.2837 47.4365L31.277 47.4321L31.2704 47.4274C30.9482 47.2008 30.4921 47.063 29.8564 47.063H27.3028V53.453Z" fill="#1B4ED1"/>
<path fill-rule="evenodd" clip-rule="evenodd" d="M40 90C59.33 90 75 74.33 75 55C75 35.67 59.33 20 40 20C20.67 20 5 35.67 5 55C5 74.33 20.67 90 40 90ZM21.0192 41.8245H29.8564C31.6433 41.8245 33.2005 42.1192 34.5094 42.7315C35.8246 43.3469 36.8452 44.2654 37.5542 45.4829C38.265 46.7035 38.6048 48.1843 38.6048 49.8984C38.6048 51.2936 38.4088 52.5176 37.9984 53.5557L37.9976 53.5578C37.5908 54.5747 37.0072 55.4374 36.244 56.1356L36.2404 56.1389C35.8618 56.479 35.4476 56.7834 34.9988 57.0526L39.4044 66.944V67.8367H32.9482L29.0443 58.6915H27.3028V67.8367H21.0192V41.8245ZM52.7747 41.8245H59.0406V59.4888C59.0406 61.4714 58.6615 63.1409 57.8611 64.46C57.0811 65.7537 55.9945 66.708 54.6129 67.3121L54.6092 67.3137C53.2516 67.8952 51.7144 68.1792 50.0079 68.1792C48.2901 68.1792 46.7416 67.8953 45.3728 67.3144L45.3691 67.3128C43.9755 66.7091 42.8819 65.7547 42.101 64.4593L42.0978 64.4541C41.3238 63.1362 40.9575 61.4691 40.9575 59.4888V41.8245H47.2233V59.4888C47.2233 60.5422 47.3457 61.2894 47.5514 61.7735C47.7676 62.2544 48.0528 62.5405 48.3904 62.6933C48.8036 62.8626 49.337 62.9578 50.0079 62.9578C50.6959 62.9578 51.2198 62.861 51.6036 62.6952C51.9413 62.5435 52.2214 62.2591 52.4271 61.7777L52.4307 61.7692C52.6459 61.2884 52.7747 60.5435 52.7747 59.4888V41.8245Z" fill="#1B4ED1"/>
</svg>
