<svg width="110" height="110" viewBox="0 0 110 110" fill="none" xmlns="http://www.w3.org/2000/svg">
<path d="M41 6H52.2895L48.1842 10.1081L52.2895 14.2162H42V27.0011H40V6.00195L41 6.00195V6Z" fill="#1B4ED1"/>
<path d="M5 36.0011H76V42.0011H5V36.0011Z" fill="#1B4ED1"/>
<path fill-rule="evenodd" clip-rule="evenodd" d="M76 44.0011H5V84.0011H76V44.0011ZM46.1332 57.8621V82.0011H34.8438V57.8621C34.8438 54.7446 37.371 52.2174 40.4885 52.2174C43.606 52.2174 46.1332 54.7446 46.1332 57.8621ZM65.6332 82.0011V57.8621C65.6332 54.7446 63.106 52.2174 59.9885 52.2174C56.871 52.2174 54.3438 54.7446 54.3438 57.8621V82.0011H65.6332ZM26.6332 82.0011H15.3438V57.8621C15.3438 54.7446 17.871 52.2174 20.9885 52.2174C24.106 52.2174 26.6332 54.7446 26.6332 57.8621V82.0011Z" fill="#1B4ED1"/>
<path d="M69 34.0011H12V29.0011H69V34.0011Z" fill="#1B4ED1"/>
</svg>
