<svg width="110" height="110" viewBox="0 0 110 110" fill="none" xmlns="http://www.w3.org/2000/svg">
<path d="M22.0723 33H46.9366V31H22.0723V33Z" fill="#1B4ED1"/>
<path d="M22.0723 39.291H46.9366V37.291H22.0723V39.291Z" fill="#1B4ED1"/>
<path d="M22.0723 45.582H46.9366V43.582H22.0723V45.582Z" fill="#1B4ED1"/>
<path fill-rule="evenodd" clip-rule="evenodd" d="M5 19H64V91.129H42.0874V97.0021L34.5017 93.2279L26.916 97.0021V91.129H5V19ZM50.3281 85.2582H42.0874V77.3679C46.621 74.7573 49.671 69.8791 49.671 64.2921C49.671 55.9544 42.8785 49.1953 34.4996 49.1953C26.1206 49.1953 19.3281 55.9544 19.3281 64.2921C19.3281 69.8809 22.3801 74.7604 26.916 77.3704V85.2582H18.2995C18.2995 81.5526 15.2807 78.5485 11.5566 78.5485V31.5808C15.2807 31.5808 18.2995 28.5767 18.2995 24.8711H50.3281C50.3281 28.5767 53.3469 31.5808 57.0709 31.5808V78.5485C53.3469 78.5485 50.3281 81.5526 50.3281 85.2582ZM34.4987 71.0014C38.2227 71.0014 41.2416 67.9974 41.2416 64.2917C41.2416 60.5861 38.2227 57.582 34.4987 57.582C30.7747 57.582 27.7559 60.5861 27.7559 64.2917C27.7559 67.9974 30.7747 71.0014 34.4987 71.0014Z" fill="#1B4ED1"/>
</svg>
