<svg width="110" height="110" viewBox="0 0 110 110" fill="none" xmlns="http://www.w3.org/2000/svg">
<path fill-rule="evenodd" clip-rule="evenodd" d="M60.0892 26.9474C60.0892 26.9474 68.695 84.4211 33 94C-2.69495 84.4211 5.91076 26.9474 5.91076 26.9474C5.91076 26.9474 10.5187 25.8526 19.2545 22.4612C27.9903 19.0697 33 16 33 16C33 16 38.0097 19.0697 46.7455 22.4612C55.4813 25.8526 60.0892 26.9474 60.0892 26.9474ZM51.6613 36.0286C51.6613 36.0286 57.5897 76.1689 32.9998 82.859C8.40997 76.1689 14.3384 36.0286 14.3384 36.0286C14.3384 36.0286 17.5127 35.264 23.5307 32.8954C29.5487 30.5267 32.9998 28.3828 32.9998 28.3828C32.9998 28.3828 36.451 30.5267 42.469 32.8954C48.487 35.264 51.6613 36.0286 51.6613 36.0286Z" fill="#1B4ED1"/>
</svg>
