<svg width="110" height="110" viewBox="0 0 110 110" fill="none" xmlns="http://www.w3.org/2000/svg">
<path fill-rule="evenodd" clip-rule="evenodd" d="M44.2439 18.1215C44.4521 20.0294 43.3743 21.3054 41.9046 22.4356C44.9542 25.9961 46.7546 30.1036 47.4894 34.843C48.1753 30.1157 50.0124 26.0205 53.0375 22.4477C51.9842 21.5971 51.0289 20.7342 50.784 19.3854C50.7302 19.0651 50.7092 18.7318 50.6874 18.3854C50.6794 18.2587 50.6713 18.1302 50.6615 18C50.7368 18.014 50.794 18.0208 50.8373 18.026C50.9067 18.0343 50.9403 18.0383 50.9554 18.0608C51.7393 18.9114 52.7925 19.2395 53.8825 19.2274C54.7131 19.2207 55.5437 19.1523 56.3763 19.0837C57.0661 19.0268 57.7572 18.9699 58.4508 18.9479C59.7858 18.9114 61.133 18.8993 62.4679 19.0451C63.4967 19.1545 64.4153 19.6405 64.8317 20.7221C64.8929 20.8679 65.1624 20.9773 65.3583 21.0381C65.7704 21.1516 66.1859 21.2516 66.6003 21.3513C67.2945 21.5184 67.9857 21.6847 68.6529 21.913C70.245 22.4477 70.6002 23.3348 69.9756 24.8781C69.8715 25.126 69.7409 25.365 69.5988 25.6251C69.5737 25.6711 69.5482 25.7178 69.5224 25.7653C68.2119 24.708 66.7668 24.6229 65.2603 24.9025C64.5255 25.0361 63.9254 25.4371 63.411 26.0083C63.2028 26.2513 62.8109 26.385 62.4679 26.4458C60.8268 26.7496 59.4428 27.4909 58.2793 28.6818C57.2996 29.6904 56.8097 30.9178 56.626 32.2667C56.3688 34.1746 56.528 36.0582 57.0914 37.9053C57.569 39.4729 58.4876 40.7732 59.6266 41.9277C60.5084 42.8269 61.5249 43.0943 62.7496 42.7419C64.0601 42.3652 65.1746 41.6968 66.0932 40.7003C66.5953 40.1535 66.5708 39.5337 66.2891 38.8896C65.7012 37.5529 65.3338 36.1918 65.5665 34.7093C66.0197 31.7684 68.6284 29.2043 71.629 29.095C77.0913 28.8884 81.5738 30.8935 84.7704 35.402C86.8157 38.3063 87.8077 41.6239 88.0037 45.0873C88.1796 48.2547 88.2066 51.4278 88.2335 54.5989V54.6002C88.2459 56.0639 88.2583 57.5273 88.2854 58.9894C88.3589 62.9024 88.4323 66.8032 88.5181 70.7162C88.5426 72.0773 88.665 72.3325 90 74.1796C89.8831 74.1876 89.7728 74.2035 89.6679 74.2187C89.454 74.2495 89.2622 74.2771 89.0815 74.2282C88.7796 74.154 88.4772 74.0821 88.1749 74.0103C87.0914 73.7527 86.0101 73.4956 84.9663 73.1345C83.2517 72.5391 81.5983 71.7978 80.2878 70.4732C80.1654 70.3517 79.9694 70.2788 79.798 70.2302C77.471 69.659 76.234 68.0914 75.7318 65.8554C75.661 65.5422 75.624 65.2257 75.587 64.9093C75.5537 64.6242 75.5204 64.3391 75.4624 64.0568C75.4256 63.8867 75.2174 63.6437 75.0582 63.6194C73.1966 63.3277 71.9474 62.1976 71.1268 60.6421C70.7036 59.8434 70.376 58.989 70.0488 58.1355C69.893 57.7293 69.7373 57.3232 69.5714 56.9235C69.0203 57.8471 68.1017 58.4182 66.975 58.1509C66.2651 57.9856 65.5865 57.6711 64.9124 57.3586C64.6445 57.2344 64.3773 57.1105 64.1091 56.9964C63.6069 58.5033 62.5659 59.0744 60.8635 58.5397C60.3256 58.373 59.8165 58.1203 59.3007 57.8643C59.0649 57.7473 58.8276 57.6295 58.5855 57.519C58.4291 57.7889 58.2576 58.0888 58.0772 58.4041C57.9328 58.6566 57.7827 58.919 57.6302 59.1838C57.823 59.2412 58.0133 59.2949 58.2016 59.3481C58.6113 59.4639 59.0118 59.577 59.4061 59.7185C62.0515 60.7028 63.2885 62.793 63.8152 65.4057C63.9051 65.8519 63.9446 66.3071 63.9841 66.7631C64.0092 67.0523 64.0343 67.342 64.0723 67.6296C64.0968 67.8362 64.1336 68.1035 64.2683 68.2372C65.5112 69.4161 66.761 70.5814 68.0125 71.7483C68.4381 72.1452 68.8639 72.5423 69.2897 72.9401C69.3142 72.9595 69.3407 72.9751 69.3777 72.9969C69.4333 73.0295 69.5126 73.0762 69.6449 73.171C69.7267 73.0713 69.8052 72.9672 69.8837 72.8629C70.0636 72.6241 70.2438 72.3849 70.4655 72.1988C70.9921 71.7492 71.5555 71.3482 72.1311 70.9714C72.3883 70.8013 72.7802 70.6069 73.0374 70.6919C73.5388 70.845 74.0305 70.786 74.5186 70.7274C74.8055 70.6929 75.0911 70.6586 75.3767 70.6676C76.038 70.6798 76.6014 70.9593 77.0178 71.4818C77.2872 71.8343 77.3975 72.2231 77.128 72.7335C76.5769 72.3811 76.0135 72.2474 75.3399 72.6606C76.4299 73.0009 77.4465 73.3411 77.5077 74.6293C77.5444 75.2612 77.3117 75.7959 76.6871 76.209C76.6159 76.0612 76.5703 75.8989 76.5253 75.7386C76.4001 75.2927 76.2792 74.862 75.6216 74.7994C75.4637 75.8481 74.643 75.9283 73.7811 76.0126L73.76 76.0146C72.5475 76.124 71.335 76.2577 70.1225 76.4156C69.302 76.525 68.8488 76.9625 68.7386 77.8374C68.5794 79.1377 68.5059 79.162 67.1709 79.5995C67.3045 79.9114 67.4431 80.2233 67.5803 80.5319C67.657 80.7044 67.7332 80.8758 67.8078 81.0456C66.6075 81.4588 64.746 80.4259 64.4888 79.2106C64.3785 78.7002 64.599 78.3114 64.9419 77.9468C65.1065 77.7721 65.2747 77.5998 65.4431 77.4272C65.8134 77.0478 66.1852 76.6668 66.5218 76.2577C67.1342 75.5285 67.1342 74.9209 66.5096 74.1918C66.0932 73.7178 65.6278 73.2925 65.1256 72.9036C63.9621 71.9922 62.7741 71.1051 61.5861 70.218C61.0472 69.817 60.4226 69.7198 59.798 69.975C59.3449 70.1572 58.9774 70.0479 58.61 69.7805C57.3118 68.8691 55.9034 68.2129 54.3235 67.9577C54.152 67.9334 53.9683 67.9091 53.7723 67.8969C54.3595 69.2722 54.9399 70.6429 55.5183 72.0091C56.279 73.8058 57.0364 75.5947 57.8017 77.3757C58.3713 78.7186 58.9469 80.0585 59.5226 81.3984C60.0982 82.7381 60.6738 84.0777 61.2432 85.4204C61.8801 86.9273 61.5004 88.2033 60.1654 89.1511C58.9162 90.0383 57.3975 89.9653 56.3565 89.0782C56.3134 89.2563 56.2756 89.4438 56.2369 89.6358C56.1435 90.0989 56.0448 90.588 55.8544 91.0347C55.5482 91.7274 54.8991 92.1284 54.1765 92.3715C52.9885 92.7725 51.4331 92.8211 50.5268 91.4358C50.1593 93.1371 49.1306 94.012 47.4037 93.9999C45.8973 93.9877 45.1379 93.368 44.3908 91.5573C43.2518 92.9062 41.8434 92.8576 40.4104 92.2135C39.1367 91.6423 38.5244 90.5973 38.6713 89.0782C37.7283 89.7223 36.7975 89.9532 35.7687 89.6372C33.7969 89.0296 32.9151 87.3283 33.6989 85.4326C34.9518 82.4313 36.2373 79.4365 37.5221 76.4435C37.9957 75.3404 38.4691 74.2374 38.9408 73.1345C39.1976 72.5398 39.4515 71.9451 39.7053 71.3504L39.7062 71.3482C39.9604 70.7527 40.2145 70.1572 40.4717 69.5618C40.5768 69.3203 40.6844 69.0789 40.7944 68.8318L40.795 68.8305C40.9285 68.531 41.0658 68.2228 41.2065 67.8969C39.9328 68.0306 38.7571 68.383 37.6425 68.9785L37.5704 69.016C37.3599 69.1254 37.1435 69.2378 36.9567 69.3795C36.2708 69.8899 35.5972 70.2545 34.6664 69.8899C34.3358 69.7562 33.7479 69.9507 33.4172 70.1937C31.8373 71.3725 30.2941 72.5998 28.751 73.8272C28.5183 74.0095 28.3346 74.2768 28.1753 74.532C27.8324 75.0424 27.8079 75.565 28.2243 76.0511C28.7387 76.6465 29.2776 77.2298 29.8287 77.801C30.6371 78.6273 30.686 79.3322 29.8655 80.1707C29.1184 80.9363 28.1876 81.2401 27.0731 81.1307C27.318 80.5717 27.5262 80.0978 27.7834 79.5144C26.5464 79.4658 26.228 78.7489 26.1668 77.8374C26.1178 77.0232 25.6891 76.5493 24.9053 76.4399C23.5703 76.2577 22.2476 76.0875 20.9004 75.9782C20.0798 75.9174 19.4675 75.6865 19.3083 74.7872C18.627 74.8452 18.5026 75.3098 18.3819 75.7603C18.3507 75.8768 18.3197 75.9923 18.2795 76.0997C17.7528 75.9295 17.3364 75.2976 17.3854 74.6779C17.4834 73.3776 18.4509 72.9644 19.5777 72.6728C18.9531 72.2474 18.4019 72.369 17.8386 72.7092C17.4589 72.3082 17.6426 71.9436 17.8508 71.5912C18.2795 70.8621 19.2593 70.534 20.2758 70.7041C20.4713 70.7335 20.6725 70.7202 20.874 70.707C21.0889 70.6928 21.3041 70.6786 21.5128 70.7162C22.0639 70.8135 22.615 70.935 23.1172 71.1659C23.5166 71.3471 23.8736 71.6549 24.2177 71.9517L24.2929 72.0165C24.5377 72.227 24.7607 72.4644 25.009 72.7289C25.1335 72.8614 25.2643 73.0006 25.4074 73.1467C25.5877 72.9883 25.7666 72.8321 25.9443 72.6769L25.9459 72.6755C26.5036 72.1884 27.0492 71.7118 27.5875 71.2145C28.5428 70.3274 29.4981 69.4403 30.3921 68.5046C30.6371 68.2615 30.7963 67.8605 30.8208 67.5081C30.9555 66.0741 31.1392 64.6645 31.7393 63.3156C32.7069 61.1403 34.397 59.8886 36.675 59.3539C36.8342 59.3175 36.9934 59.281 37.1527 59.2324C37.1588 59.2324 37.1649 59.2263 37.1787 59.2127C37.1925 59.199 37.2139 59.1777 37.2506 59.1474L36.3321 57.4339C36.1492 57.5325 35.969 57.6362 35.7892 57.7396C35.4151 57.9549 35.043 58.169 34.6542 58.3332C34.2133 58.5154 33.7111 58.6248 33.2335 58.6613C31.8128 58.7342 31.2004 58.2602 30.833 56.96C30.5499 57.0803 30.2691 57.2128 29.9878 57.3454C29.332 57.6546 28.6736 57.965 27.9794 58.1266C26.8771 58.3939 25.9586 57.8592 25.2727 56.8141C25.2111 57.0138 25.1528 57.2074 25.096 57.3965C24.9384 57.9207 24.7914 58.4099 24.6114 58.8922C24.0235 60.4963 23.2397 61.991 21.6965 62.8902C21.2676 63.1391 20.7906 63.3138 20.2866 63.4983C20.0279 63.593 19.762 63.6903 19.492 63.8016C19.4651 63.9783 19.4391 64.1659 19.4121 64.3615C19.3405 64.879 19.2612 65.4523 19.1368 66.0255C18.6469 68.2129 17.3609 69.659 15.1319 70.2302C14.9604 70.2788 14.7645 70.3517 14.642 70.4611C12.9274 72.1381 10.7351 72.9158 8.51833 73.6328C7.80889 73.8616 7.06734 73.9757 6.32159 74.0904C6.03751 74.1341 5.7525 74.178 5.46874 74.2282C5.36161 74.246 5.24797 74.2185 5.14205 74.1929C5.10267 74.1833 5.06435 74.1741 5.02783 74.1675C5.02315 74.135 5.01669 74.1043 5.01117 74.078C5.00223 74.0356 4.99577 74.0049 5.00334 73.9973C6.30156 72.9766 6.43628 71.5183 6.44853 70.0479C6.49742 66.7488 6.53547 63.4443 6.5735 60.1416C6.59263 58.4808 6.61175 56.8204 6.63224 55.1614C6.64342 54.2625 6.64666 53.3625 6.6499 52.462C6.65731 50.4043 6.66473 48.3444 6.76696 46.2903C6.95067 42.6933 7.77124 39.2299 9.66958 36.1068C12.0701 32.133 15.7075 29.9456 20.2391 29.2043C21.2311 29.0464 22.2721 28.9856 23.2764 29.0707C27.4772 29.3988 30.2819 33.4941 29.1184 37.5043C28.9944 37.945 28.8269 38.377 28.66 38.8077C28.629 38.8877 28.5979 38.9677 28.5673 39.0476C28.3223 39.6795 28.408 40.2507 28.8612 40.7368C29.9879 41.9398 31.3597 42.6811 33.0008 42.8756C33.8336 42.9728 34.544 42.6082 35.1441 42.0371C37.3609 39.9469 38.3284 37.3342 38.3896 34.3569C38.4019 33.567 38.3529 32.7771 38.2549 31.9993C37.8997 29.1314 35.3155 26.9562 32.5599 26.4701C32.021 26.3729 31.6168 26.1784 31.2372 25.7531C30.2941 24.7202 29.0082 24.6473 27.7222 24.8052C26.9261 24.9025 26.0933 25.0118 25.5544 25.7166C24.1949 24.5622 24.4644 22.5328 26.0688 21.9738C26.8159 21.7079 27.5899 21.5168 28.3623 21.3261C28.7548 21.2292 29.1469 21.1324 29.5348 21.0259L29.5912 21.0112C29.7714 20.9648 30.005 20.9046 30.0492 20.795C30.6983 19.2395 32.0822 18.8993 33.5152 18.875C34.4162 18.8609 35.3214 18.9365 36.2259 19.0121C36.8828 19.067 37.5393 19.1219 38.1937 19.1423C39.4552 19.1788 40.7289 19.2152 41.9659 19.0451C42.511 18.9936 43.0255 18.7298 43.5613 18.4551C43.7839 18.341 44.0102 18.225 44.2439 18.1215ZM20.2792 54.7822C20.187 54.8518 20.089 54.917 19.9844 54.9771C19.7536 55.1092 19.4969 55.2019 19.2258 55.2999C19.0865 55.3502 18.9435 55.4019 18.7982 55.461C18.7837 55.5547 18.7698 55.6542 18.7552 55.758C18.7167 56.0327 18.674 56.3374 18.607 56.6417C18.3434 57.8031 17.6514 58.571 16.452 58.8742C16.3597 58.9 16.2543 58.9387 16.1884 58.9968C15.2657 59.8872 14.0861 60.3002 12.8932 60.6808C12.5115 60.8023 12.1124 60.8629 11.7112 60.9238C11.5582 60.947 11.405 60.9703 11.2522 60.997C11.1946 61.0064 11.1334 60.9918 11.0764 60.9782C11.0553 60.9732 11.0346 60.9682 11.015 60.9647C11.0125 60.9475 11.009 60.9312 11.006 60.9173C11.0012 60.8947 10.9977 60.8784 11.0018 60.8744C11.7004 60.3324 11.7729 59.5582 11.7795 58.7774C11.8058 57.0258 11.8262 55.2713 11.8467 53.5177C11.857 52.6361 11.8673 51.7541 11.8783 50.8734C11.8843 50.3961 11.8861 49.9183 11.8878 49.4402C11.8918 48.3476 11.8958 47.2539 11.9508 46.1633C12.0497 44.2534 12.4912 42.4145 13.5127 40.7563C14.8044 38.6464 16.7617 37.485 19.2002 37.0914C19.734 37.0075 20.2942 36.9753 20.8346 37.0205C22.3767 37.1393 23.5692 38.1891 23.9725 39.5204C24.2139 43.9601 22.8544 51.2826 20.2792 54.7822ZM75.0156 54.9771C74.911 54.917 74.813 54.8518 74.7208 54.7822C72.1456 51.2826 70.7861 43.9601 71.0275 39.5204C71.4308 38.1891 72.6233 37.1393 74.1654 37.0205C74.7058 36.9753 75.266 37.0075 75.7998 37.0914C78.2383 37.485 80.1956 38.6464 81.4873 40.7563C82.5088 42.4145 82.9503 44.2534 83.0492 46.1633C83.1042 47.2539 83.1082 48.3476 83.1122 49.4402V49.4424C83.1139 49.9198 83.1157 50.3969 83.1217 50.8734C83.1327 51.7543 83.143 52.6358 83.1533 53.5176C83.1738 55.2712 83.1942 57.0257 83.2205 58.7774C83.2271 59.5582 83.2996 60.3324 83.9982 60.8744C84.0023 60.8784 83.9988 60.8947 83.994 60.9173C83.9918 60.9275 83.9894 60.9389 83.9872 60.9511C83.9864 60.9556 83.9857 60.9601 83.985 60.9647C83.9654 60.9682 83.9449 60.9731 83.9237 60.9782C83.8667 60.9918 83.8054 61.0064 83.7478 60.997C83.595 60.9703 83.4418 60.947 83.2888 60.9238C82.8876 60.8629 82.4885 60.8023 82.1068 60.6808C80.9139 60.3002 79.7343 59.8872 78.8116 58.9968C78.7457 58.9387 78.6403 58.9 78.548 58.8742C77.3486 58.571 76.6566 57.8031 76.393 56.6417C76.326 56.3374 76.2834 56.0331 76.2448 55.7584C76.2303 55.6545 76.2163 55.5548 76.2018 55.461C76.0565 55.4019 75.9135 55.3502 75.7742 55.2999C75.5031 55.2019 75.2464 55.1092 75.0156 54.9771Z" fill="#1B4ED1"/>
</svg>
