<svg width="110" height="110" viewBox="0 0 110 110" fill="none" xmlns="http://www.w3.org/2000/svg">
<path fill-rule="evenodd" clip-rule="evenodd" d="M57.5363 19.0928C57.5363 23.2237 54.4412 26.6317 50.4435 27.1244V30.1942L72.4938 40.3712H72.4948V53.5577H76.8779C77.3705 49.56 80.7785 46.4649 84.9095 46.4649C89.379 46.4649 93.0023 50.0882 93.0023 54.5577C93.0023 59.0273 89.379 62.6505 84.9095 62.6505C80.7785 62.6505 77.3705 59.5554 76.8779 55.5577H72.4948V68.7423L50.4435 78.9199V82.8749C54.4412 83.3675 57.5363 86.7756 57.5363 90.9065C57.5363 95.376 53.913 98.9993 49.4435 98.9993C44.974 98.9993 41.3507 95.376 41.3507 90.9065C41.3507 86.7756 44.4458 83.3675 48.4435 82.8749L48.4435 78.9201L26.3918 68.7423V55.5577H21.1244C20.6317 59.5554 17.2237 62.6505 13.0928 62.6505C8.62326 62.6505 5 59.0273 5 54.5577C5 50.0882 8.62326 46.4649 13.0928 46.4649C17.2237 46.4649 20.6317 49.56 21.1244 53.5577H26.3918V40.3712H26.3928L48.4435 30.194V27.1244C44.4458 26.6317 41.3507 23.2237 41.3507 19.0928C41.3507 14.6233 44.974 11 49.4435 11C53.913 11 57.5363 14.6233 57.5363 19.0928ZM49.4435 25.1856C52.8085 25.1856 55.5363 22.4577 55.5363 19.0928C55.5363 15.7278 52.8085 13 49.4435 13C46.0786 13 43.3507 15.7278 43.3507 19.0928C43.3507 22.4577 46.0786 25.1856 49.4435 25.1856ZM84.9095 48.4649C81.5445 48.4649 78.8167 51.1928 78.8167 54.5577C78.8167 57.9227 81.5445 60.6505 84.9095 60.6505C88.2744 60.6505 91.0023 57.9227 91.0023 54.5577C91.0023 51.1928 88.2744 48.4649 84.9095 48.4649ZM49.4435 84.8137C52.8085 84.8137 55.5363 87.5415 55.5363 90.9065C55.5363 94.2714 52.8085 96.9993 49.4435 96.9993C46.0785 96.9993 43.3507 94.2714 43.3507 90.9065C43.3507 87.5415 46.0786 84.8137 49.4435 84.8137ZM13.0928 48.4649C16.4577 48.4649 19.1856 51.1928 19.1856 54.5577C19.1856 57.9227 16.4577 60.6505 13.0928 60.6505C9.72783 60.6505 7 57.9227 7 54.5577C7 51.1928 9.72783 48.4649 13.0928 48.4649Z" fill="#1B4ED1"/>
</svg>
