<svg width="110" height="110" viewBox="0 0 110 110" fill="none" xmlns="http://www.w3.org/2000/svg">
<path d="M46.385 32.2734H21.8477V30.2734H46.385V32.2734Z" fill="#1B4ED1"/>
<path d="M21.8477 37.2734H46.385V35.2734H21.8477V37.2734Z" fill="#1B4ED1"/>
<path d="M46.5198 42.2734H21.9824V40.2734H46.5198V42.2734Z" fill="#1B4ED1"/>
<path d="M21.8477 47.2734H46.385V45.2734H21.8477V47.2734Z" fill="#1B4ED1"/>
<path d="M32.3593 52.2734H21.9824V50.2734H32.3593V52.2734Z" fill="#1B4ED1"/>
<path fill-rule="evenodd" clip-rule="evenodd" d="M37.9 64.4286C37.9 62.535 39.5118 61 41.5 61C43.4882 61 45.1 62.535 45.1 64.4286V66.1429H46V73H37V66.1429H37.9V64.4286ZM41.5 62.7143C40.5059 62.7143 39.7 63.4818 39.7 64.4286V65.2857H43.3V64.4286C43.3 63.4818 42.4941 62.7143 41.5 62.7143ZM39.7 68.7145V70.4287L43.3 70.4286V68.7144L39.7 68.7145Z" fill="#1B4ED1"/>
<path fill-rule="evenodd" clip-rule="evenodd" d="M5 20H63.2242V85.2659L69 91.0173L64.9977 95.0028L61.2102 91.2313H5V20ZM56.3885 32.423V78.459L56.326 78.3967L55.8969 78.824C55.4252 78.8583 54.9672 78.9416 54.5279 79.0687L54.3945 79.1304L51.733 76.48C56.444 71.1059 56.2291 62.9388 51.0881 57.8195C45.7229 52.4768 37.024 52.4768 31.6587 57.8195C26.2934 63.1622 26.2934 71.8244 31.6587 77.1671C36.7999 82.2866 45.002 82.5004 50.3989 77.8086L52.5904 79.9909C50.8641 81.1879 49.7343 83.1788 49.7343 85.4324H18.1269C18.1269 81.7729 15.1477 78.8062 11.4727 78.8062V32.423C15.1477 32.423 18.1269 29.4564 18.1269 25.7969H49.7343C49.7343 29.4564 52.7134 32.423 56.3885 32.423ZM48.9193 59.978C53.0875 64.1286 53.0875 70.858 48.9193 75.0086C44.7512 79.1592 37.9933 79.1592 33.8251 75.0086C29.657 70.858 29.657 64.1286 33.8251 59.978C37.9933 55.8274 44.7512 55.8274 48.9193 59.978Z" fill="#1B4ED1"/>
</svg>
