<svg width="162" height="54" viewBox="0 0 162 54" fill="none" xmlns="http://www.w3.org/2000/svg">
<g clip-path="url(#clip0_858_3280)">
<path fill-rule="evenodd" clip-rule="evenodd" d="M27.2039 0L27.4991 0.454733L54.7873 53.4518L27.2039 26.7052L0 53.4518L27.2039 0Z" fill="white"/>
<path fill-rule="evenodd" clip-rule="evenodd" d="M27.2039 40.0977L54.7873 53.4503L27.2039 46.7533L0 53.4503L27.2039 40.0977Z" fill="white"/>
<path fill-rule="evenodd" clip-rule="evenodd" d="M88.486 29.6403C88.486 32.3687 87.4737 34.5184 85.4915 36.0893C83.467 37.6602 80.852 38.4456 77.5623 38.4456H60.1855V36.2546H61.0291C61.8726 36.2546 62.4209 36.172 62.7583 36.0066C63.3488 35.6759 63.6018 35.0145 63.6018 33.981V12.6912C63.6018 11.7817 63.4331 11.1617 63.0536 10.8723C62.674 10.5829 61.9991 10.4175 61.0713 10.4175H60.2277V8.22656H83.0874L84.6479 14.9649H83.1717C81.6112 13.3113 80.1772 12.2365 78.9119 11.6991C77.6466 11.1617 76.1283 10.8723 74.399 10.8723H73.3868C72.1637 10.8723 71.3623 11.1203 71.0671 11.6577C70.8984 11.9058 70.8562 12.4018 70.8562 13.1459V20.711C71.278 20.711 71.995 20.6697 73.0072 20.6284C74.0194 20.587 74.5677 20.5457 74.6099 20.5457C79.8398 20.5457 83.5935 21.5378 85.9132 23.5635C87.6003 25.0103 88.486 27.0773 88.486 29.6403ZM80.7255 28.8962C80.7255 26.4572 79.7976 24.8036 77.9419 23.9769C76.7609 23.4394 74.9473 23.1914 72.4589 23.1914C72.2059 23.1914 71.9528 23.1914 71.7841 23.2327C71.6154 23.2327 71.278 23.3154 70.814 23.3981V33.4849C70.814 34.3944 70.9827 35.0145 71.3623 35.3038C71.7419 35.5932 72.4167 35.7586 73.3868 35.7586H74.3147C76.297 35.7586 77.8575 35.1798 78.9963 33.981C80.1772 32.8235 80.7255 31.1286 80.7255 28.8962ZM121.763 38.4456H107.676V36.2546H108.562C109.532 36.2546 110.207 36.0893 110.544 35.7999C110.924 35.5105 111.093 34.8904 111.093 33.9396V13.1046C111.093 12.2365 110.924 11.6164 110.544 11.2857C110.165 10.955 109.49 10.7896 108.52 10.7896H102.657C101.645 10.7896 100.97 10.955 100.591 11.2443C100.253 11.5337 100.085 12.1538 100.085 13.0633V33.857C100.085 34.7664 100.253 35.3865 100.633 35.6759C101.012 35.9653 101.687 36.1306 102.615 36.1306H103.501V38.4456H89.3717V36.2546H90.2996C91.4383 36.2546 92.1553 36.0066 92.4928 35.5519C92.7036 35.2625 92.788 34.7251 92.788 33.981V13.3113C92.788 12.2365 92.6193 11.4924 92.2819 11.079C91.9445 10.6656 91.2275 10.4589 90.173 10.4589H89.2873V8.2679H121.552V10.4589H120.709C119.823 10.4589 119.148 10.6242 118.769 10.9136C118.347 11.203 118.178 11.8231 118.178 12.7326V33.981C118.178 34.8904 118.389 35.5105 118.769 35.7999C119.19 36.0893 119.823 36.2546 120.709 36.2546H121.552V38.4456H121.763ZM162 45.2666H160.566C159.764 43.241 158.162 41.5461 155.842 40.1405C154.83 39.5204 153.691 39.0657 152.51 38.8177C151.287 38.5696 149.515 38.4043 147.196 38.4043H126.192V36.2133H127.12C128.258 36.2133 128.975 35.9653 129.313 35.5105C129.524 35.2212 129.608 34.6837 129.608 33.9396V12.6912C129.608 11.9471 129.524 11.451 129.313 11.1617C128.933 10.6656 128.216 10.4175 127.12 10.4175H126.192V8.22656H140.321V10.4175H139.393C138.254 10.4175 137.537 10.6656 137.2 11.1203C136.989 11.4097 136.905 11.9471 136.905 12.6912V33.4849C136.905 34.2703 137.031 34.8078 137.284 35.0971C137.664 35.5519 138.381 35.7586 139.435 35.7586H145.509C146.394 35.7586 147.027 35.6345 147.407 35.3452C147.828 35.0971 147.997 34.4357 147.997 33.4436V12.6912C147.997 11.9471 147.913 11.451 147.702 11.1617C147.322 10.6656 146.605 10.4175 145.509 10.4175H144.581V8.22656H158.71V10.4175H157.824C156.643 10.4175 155.884 10.6656 155.589 11.1203C155.378 11.4097 155.294 11.9471 155.294 12.6912V33.6916C155.294 34.8904 155.758 35.7172 156.685 36.172C157.445 36.544 158.71 36.7094 160.481 36.7094L162 45.2666Z" fill="white"/>
</g>
<defs>
<clipPath id="clip0_858_3280">
<rect width="162" height="53.4518" fill="white"/>
</clipPath>
</defs>
</svg>
