<svg width="116" height="39" viewBox="0 0 116 39" fill="none" xmlns="http://www.w3.org/2000/svg">
<g clip-path="url(#clip0_758_13)">
<path fill-rule="evenodd" clip-rule="evenodd" d="M19.4793 0L19.6907 0.331787L39.2304 39L19.4793 19.4849L0 39L19.4793 0Z" fill="#1B4ED1"/>
<path fill-rule="evenodd" clip-rule="evenodd" d="M19.4793 29.2559L39.2304 38.9983L19.4793 34.112L0 38.9983L19.4793 29.2559Z" fill="#7C7C7C"/>
<path fill-rule="evenodd" clip-rule="evenodd" d="M63.3602 21.6261C63.3602 23.6168 62.6354 25.1852 61.216 26.3314C59.7664 27.4776 57.8939 28.0507 55.5383 28.0507H43.0957V26.4521H43.6997C44.3037 26.4521 44.6963 26.3917 44.9379 26.2711C45.3607 26.0298 45.5419 25.5472 45.5419 24.7931V9.25949C45.5419 8.59592 45.4211 8.14348 45.1493 7.93235C44.8775 7.72121 44.3943 7.60056 43.7299 7.60056H43.1259V6.00195H59.4946L60.612 10.9184H59.555C58.4375 9.71193 57.4107 8.92771 56.5047 8.5356C55.5987 8.14348 54.5115 7.93235 53.2733 7.93235H52.5485C51.6726 7.93235 51.0988 8.11332 50.8874 8.50543C50.7666 8.68641 50.7364 9.04836 50.7364 9.59128V15.111C51.0384 15.111 51.5518 15.0808 52.2766 15.0507C53.0015 15.0205 53.3941 14.9904 53.4243 14.9904C57.1691 14.9904 59.857 15.7142 61.518 17.1922C62.726 18.2479 63.3602 19.756 63.3602 21.6261ZM57.8033 21.0832C57.8033 19.3036 57.1389 18.0971 55.8101 17.4938C54.9645 17.1017 53.6659 16.9207 51.884 16.9207C51.7028 16.9207 51.5216 16.9207 51.4008 16.9509C51.28 16.9509 51.0384 17.0112 50.7062 17.0716V24.4312C50.7062 25.0948 50.827 25.5472 51.0988 25.7583C51.3706 25.9695 51.8538 26.0901 52.5485 26.0901H53.2129C54.6323 26.0901 55.7497 25.6678 56.5651 24.7931C57.4107 23.9486 57.8033 22.7119 57.8033 21.0832ZM87.1884 28.0507H77.1014V26.4521H77.7356C78.4302 26.4521 78.9135 26.3314 79.1551 26.1203C79.4269 25.9091 79.5477 25.4567 79.5477 24.763V9.56112C79.5477 8.92771 79.4269 8.47527 79.1551 8.23397C78.8833 7.99267 78.4 7.87202 77.7054 7.87202H73.5076C72.7828 7.87202 72.2996 7.99267 72.0278 8.20381C71.7861 8.41495 71.6653 8.86738 71.6653 9.53096V24.7026C71.6653 25.3662 71.7861 25.8187 72.058 26.0298C72.3298 26.2409 72.813 26.3616 73.4774 26.3616H74.1116V28.0507H63.9944V26.4521H64.6588C65.4743 26.4521 65.9877 26.2711 66.2293 25.9393C66.3803 25.7282 66.4407 25.3361 66.4407 24.7931V9.71193C66.4407 8.92771 66.3199 8.38478 66.0783 8.08316C65.8367 7.78154 65.3232 7.63072 64.5682 7.63072H63.934V6.03212H87.0374V7.63072H86.4334C85.7992 7.63072 85.316 7.75137 85.0442 7.96251C84.7421 8.17365 84.6213 8.62608 84.6213 9.28966V24.7931C84.6213 25.4567 84.7724 25.9091 85.0442 26.1203C85.3462 26.3314 85.7992 26.4521 86.4334 26.4521H87.0374V28.0507H87.1884ZM116 33.0275H114.973C114.399 31.5495 113.251 30.3129 111.59 29.2873C110.866 28.8349 110.05 28.5031 109.205 28.3221C108.329 28.1412 107.06 28.0205 105.399 28.0205H90.3594V26.4219H91.0238C91.8393 26.4219 92.3527 26.2409 92.5943 25.9091C92.7453 25.698 92.8057 25.3059 92.8057 24.763V9.25949C92.8057 8.71657 92.7453 8.35462 92.5943 8.14348C92.3225 7.78154 91.8091 7.60056 91.0238 7.60056H90.3594V6.00195H100.477V7.60056H99.8122C98.9968 7.60056 98.4834 7.78154 98.2418 8.11332C98.0908 8.32446 98.0304 8.71657 98.0304 9.25949V24.4312C98.0304 25.0043 98.121 25.3964 98.3022 25.6075C98.574 25.9393 99.0874 26.0901 99.8424 26.0901H104.191C104.825 26.0901 105.278 25.9996 105.55 25.7885C105.852 25.6075 105.973 25.1249 105.973 24.401V9.25949C105.973 8.71657 105.913 8.35462 105.762 8.14348C105.49 7.78154 104.976 7.60056 104.191 7.60056H103.527V6.00195H113.644V7.60056H113.01C112.164 7.60056 111.621 7.78154 111.409 8.11332C111.258 8.32446 111.198 8.71657 111.198 9.25949V24.582C111.198 25.4567 111.53 26.06 112.194 26.3917C112.738 26.6632 113.644 26.7839 114.912 26.7839L116 33.0275Z" fill="#1B4ED1"/>
</g>
<defs>
<clipPath id="clip0_758_13">
<rect width="116" height="39" fill="white"/>
</clipPath>
</defs>
</svg>
